<svg xmlns="http://www.w3.org/2000/svg" viewBox="0 0 96.12 96.12"><defs><style>.cls-1{fill:#273a52;}.cls-2{fill:#14baae;}.cls-3{fill:#f4ce96;}.cls-4{fill:#666464;}.cls-5{fill:#f7fafc;}.cls-6{fill:#6cd4cf;}.cls-7{fill:none;stroke:#fff;stroke-width:5px;}</style></defs><title>communication</title><g id="Layer_2" data-name="Layer 2"><g id="Layer_1-2" data-name="Layer 1"><path class="cls-1" d="M2.61,47.85C1.42,21.24,26.43,2.22,48.18,2.5c25,.33,45.44,20.68,45.44,45.66s-22,45.25-45.55,45.69C25.46,94.27.65,72.27,2.61,47.85Zm61.05,3.67,1.27,1.34c-.2,1.61-.12,3.24-1.5,4.55-3.32,3.16-1.28,5,1.88,6,5.71,1.77,11.22,1.42,16.28-2.45-.91-3.56-4.65-5.68-4.46-9.58l-1.26.53-1.12-1.22c-.41-1.86,1.14-2.75,2-4,.57.07,1.12,1,1.65.14.13-.2-.3-.77-.48-1.16l.36-2.07c.06-.14.22-.34.17-.41a4.93,4.93,0,0,0-.56-.65L77,40.56c.8-.06,2.28-.16,2-.86-.95-2.28-1.12-4.94-4.09-6.27-4.41-2-7.66.08-11.11,2.1.52-5-1.66-7-6.62-6.24a20.25,20.25,0,0,1-4,0c-2.47-.1-4.62-.19-4.45,3.46.15,3.3,1.44,4.79,4.74,4.88,2.75.07,5.66-.79,8.17,1.09l.2,1L61.53,42c-3.74-.12-7.5,0-11.21-.44-2-.24-4.41,1.54-6.15-.83a2.78,2.78,0,0,0-1.34-3.9c-1.71-1.51.83-2.38.53-3.92-1-5.3-6.59-8.42-13.56-7.27-4,.66-8,6.71-7.2,10.94-2.44,2.83-.44,5.18.91,7.51,2,3.52,4.62,6.77,5,11a2.24,2.24,0,0,0-2,2.39c-3.14,1-6.3,2-9.39,3.14-3.68,1.36-4.5,4.16-3.16,7.58a26.92,26.92,0,0,0,5.91,8.59c9.14,9.57,20.14,14.12,33.9,12.36-.4-8.46-.68-16.54-1.24-24.61a4,4,0,0,0-2.76-3.84c-3.49-.93-6.78-2.81-10.6-2.19q-.57-3.21-1.15-6.42l4.84-7.88c3,2.39,2.73,6.08,3.81,9.41l3.06-2.26Z"/><path class="cls-2" d="M39.08,58.51c3.82-.62,7.11,1.26,10.6,2.19a4,4,0,0,1,2.76,3.84c.56,8.07.84,16.15,1.24,24.61-13.76,1.76-24.76-2.79-33.9-12.36a26.92,26.92,0,0,1-5.91-8.59C12.53,64.78,13.35,62,17,60.62c3.09-1.15,6.25-2.1,9.39-3.14.83,2.23.65,4.93,3,6.47,1.86,3.91.86,8.59,3.24,12.57A9.1,9.1,0,0,0,35,71.08Z"/><path class="cls-3" d="M35,71.08a9.1,9.1,0,0,1-2.3,5.44c-2.38-4-1.38-8.66-3.24-12.57.49-1.8,2.18-3.15,2.07-5.15-.88-1.44-2.78-1.91-3-3.71-.34-4.27-2.93-7.52-5-11-1.35-2.33-3.35-4.68-.91-7.51.93.28.94,1.88,2.19,1.64,1.76-1,1-3.53,3.37-4.7,3.56,4.82,9.76,1.13,14.2,4.18l.47-.87a2.78,2.78,0,0,1,1.34,3.9c-.47,1.17-.93,2.35-1.4,3.52l-4.84,7.88a5.7,5.7,0,0,1-2.2,5.25c-1,.86-1.81,1.66-1.57,3.34C34.64,64.11,34.72,67.61,35,71.08Z"/><path class="cls-4" d="M42.83,36.79l-.47.87c-4.44-3-10.64.64-14.2-4.18-2.4,1.17-1.61,3.72-3.37,4.7-1.25.24-1.26-1.36-2.19-1.64-.8-4.23,3.18-10.28,7.2-10.94,7-1.15,12.52,2,13.56,7.27C43.66,34.41,41.12,35.28,42.83,36.79Z"/><path class="cls-5" d="M42.77,44.21c.47-1.17.93-2.35,1.4-3.52,1.74,2.37,4.11.59,6.15.83,3.71.42,7.47.32,11.21.44.1,2.73.57,5.48-.37,8.33-3.8,1.18-7.84-.53-11.52,1.07l-3.06,2.26C45.5,50.29,45.73,46.6,42.77,44.21Z"/><path class="cls-2" d="M75.87,51.87l1.26-.53c-.19,3.9,3.55,6,4.46,9.58C76.53,64.79,71,65.14,65.31,63.37c-3.16-1-5.2-2.8-1.88-6,1.38-1.31,1.3-2.94,1.5-4.55l2.56.11c.77,1.91,1.45,3.87,3.1,5.41C73.79,57.29,74.42,54.24,75.87,51.87Z"/><path class="cls-5" d="M61.66,38.74c-2.51-1.88-5.42-1-8.17-1.09-3.3-.09-4.59-1.58-4.74-4.88-.17-3.65,2-3.56,4.45-3.46a20.25,20.25,0,0,0,4,0c5-.78,7.14,1.26,6.62,6.24C63.55,36.9,64,38.77,61.66,38.74Z"/><path class="cls-4" d="M61.66,38.74c2.38,0,1.89-1.84,2.13-3.21,3.45-2,6.7-4.07,11.11-2.1,3,1.33,3.14,4,4.09,6.27.29.7-1.19.8-2,.86-.56-.54-.65-2.2-1.33-1.76-2.73,1.74-5.79,2.27-8.8,3.09-2,.54-1.57,2.23-1.26,3.73-2.69-1-.36-5.29-3.75-5.89Z"/><path class="cls-3" d="M65.61,45.62c-.31-1.5-.69-3.19,1.26-3.73,3-.82,6.07-1.35,8.8-3.09.68-.44.77,1.22,1.33,1.76l.87,1.95.39,1.06-.36,2.07-1.17,1c-.84,1.24-2.39,2.13-2,4-1.63,1.88-3.41,2.56-5.54.74a9.66,9.66,0,0,0-3.63-5.84Z"/><path class="cls-5" d="M35,71.08c-.24-3.47-.32-7-.8-10.4-.24-1.68.58-2.48,1.57-3.34a5.7,5.7,0,0,0,2.2-5.25q.59,3.21,1.15,6.42Q37,64.8,35,71.08Z"/><path class="cls-6" d="M61.86,39.73c3.39.6,1.06,4.84,3.75,5.89l0-.07a11.89,11.89,0,0,1-1.92,6l-14-.16c3.68-1.6,7.72.11,11.52-1.07.94-2.85.47-5.6.37-8.33Z"/><path class="cls-5" d="M69.21,51.39c2.13,1.82,3.91,1.14,5.54-.74l1.12,1.22c-1.45,2.37-2.08,5.42-5.28,6.51-1.65-1.54-2.33-3.5-3.09-5.41Z"/><path class="cls-5" d="M28.47,55.09c.24,1.8,2.14,2.27,3,3.71.11,2-1.58,3.35-2.07,5.15-2.35-1.54-2.17-4.24-3-6.47A2.24,2.24,0,0,1,28.47,55.09Z"/><path class="cls-4" d="M69.21,51.39,67.5,53l-2.57-.11-1.27-1.34a11.89,11.89,0,0,0,1.92-6A9.66,9.66,0,0,1,69.21,51.39Z"/><path class="cls-4" d="M76.73,46.66l1.17-1c.18.39.61,1,.48,1.16C77.85,47.62,77.3,46.73,76.73,46.66Z"/><path class="cls-4" d="M78.26,43.57l-.39-1.06a4.93,4.93,0,0,1,.56.65C78.48,43.23,78.32,43.43,78.26,43.57Z"/><circle class="cls-7" cx="48.06" cy="48.06" r="45.56"/></g></g></svg>