<svg xmlns="http://www.w3.org/2000/svg" viewBox="0 0 495 495"><defs><style>.cls-1{fill:#25364f;}.cls-2{fill:#e2e8f4;}.cls-3{fill:#c5cde0;}.cls-4{fill:#afb9d2;}.cls-5{fill:#eebf86;}.cls-6{fill:#694c4b;}.cls-7{fill:#b3dff8;}.cls-8{fill:#5a4246;}.cls-9{fill:#684b4b;}.cls-10{fill:#edf0f8;}.cls-11{fill:#e3ad77;}.cls-12{fill:#755450;}.cls-13{fill:#e1e7f3;}.cls-14{fill:#775550;}.cls-15{fill:#9dceeb;}.cls-16{fill:#a0d1ee;}.cls-17{fill:#e4af7a;}.cls-18{fill:#5e6071;}.cls-19{fill:#d09b6f;}.cls-20{fill:#c7cfe1;}.cls-21{fill:#c9d0e3;}.cls-22{fill:#b2bcd4;}.cls-23{fill:#969cb3;}.cls-24{fill:none;stroke:#fff;stroke-width:23px;}</style></defs><title>communication</title><g id="Layer_2" data-name="Layer 2"><g id="Layer_1-2" data-name="Layer 1"><path class="cls-1" d="M255.38,473.66c-69.85-.26-123.31-22.44-167.16-65.56-38.68-38.05-61-85.5-65.32-139.47-5.65-69.89,16.79-131.2,66.44-180.87,43.55-43.57,97.6-64.38,159.13-64.2,63.64.18,117.65,24,161.94,69.55,36,37,57,82.05,61.45,132.82,6.24,71.78-16.23,134.76-68.88,185.28C359.71,452.74,307.44,472.93,255.38,473.66ZM163.51,340.15c-4.66-.39-5.13,3.17-6,6.35-7,1.65-14.08,3.18-21.05,5-2.1.55-4,2-5.95,3-.56.58-1.57,1.13-1.6,1.73-.36,7.17-.76,14.35-.63,21.52,0,.94,2.82,2.53,4.41,2.63,4.59.31,9.22,0,13.83,0l30.82.05,10.44-.06h30.72c4.66.05,9.33,0,14,.2,3.78.15,5-1.85,5-5.21,0-4.83.29-9.69-.15-14.48-.2-2.23-1.81-4.34-2.79-6.5-1.83-1-3.56-2.28-5.5-2.79-7.13-1.87-14.34-3.47-21.51-5.18-.75-3.26-1.2-6.81-6-6.2l-.21-6.7c2.3-3.83,4.59-7.68,6.92-11.5a12,12,0,0,1,1.8-2.52c3.23-3.08,4.57-11.91,2.32-15.85.5-1.9.93-3.82,1.51-5.69.77-2.45,2.55-4.93,2.33-7.26a69.39,69.39,0,0,0-3.11-15.38c-1.28-3.89-3.84-7.34-8.61-7.88a34.44,34.44,0,0,0-2.79-2.75c-9.64-7.64-20.56-6.79-31.57-4.44-5.1,1.08-11.5.71-12.2,8.39,0,.3-.32.57-.48.86-7.69,6.29-10.87,19.38-6.94,28.16.87,1.94,1.39,4,2.08,6.07-.26,2.51-1.28,5.25-.62,7.49a65.08,65.08,0,0,0,11.81,23.27Zm180,18.35-8.06-4.15c3.41-3,4.17-6.8,4-11.19-.47-12.57-.15-25.19-1.18-37.71a107.22,107.22,0,0,0-5-23.64c-2.7-8.4-7.77-15.37-16.74-18.42a26.45,26.45,0,0,0-4.86-2.22,41.07,41.07,0,0,0-24.15,1.38c-6.53,1.39-10.54,6.17-14,11.16-8.08,11.47-9,25.05-9.82,38.37-.72,11.4-.06,22.9-.21,34.35-.05,3.62,1.16,6.08,4.54,7.41l-8.63,4.42c-.84.74-2.38,1.43-2.43,2.22a168.9,168.9,0,0,0-.49,17.42c0,.91,2.68,2.34,4.21,2.47a101.1,101.1,0,0,0,10.87,0h59c3.63,0,7.28.28,10.9.07a6.68,6.68,0,0,0,4.3-1.75C348.8,375.12,347.22,361.92,343.52,358.5Zm-65-223.89-8.94-.23c-2.73-13.53-8.08-17.88-21.95-17.88-34.65,0-69.29.38-103.92-.19-13.4-.23-20.81,9.9-20.65,20.36.32,19.81,0,39.64.12,59.46,0,13,7.55,20.37,20.56,20.4,17.15.05,34.31,0,51.46,0h5.6c0,5.31-.12,10,.06,14.61.06,1.52.88,3,1.35,4.52,1.52-.74,3.33-1.17,4.52-2.27,5.71-5.31,11.26-10.8,16.86-16.23l2.85,8.33c3.09,6.38,8.62,8.92,15.26,9.13,8,.25,16-.09,24,.21a10.18,10.18,0,0,1,6,2.51c5.16,4.72,9.93,9.85,15,14.7,1,.95,2.46,1.4,3.7,2.08.63-1.41,1.72-2.8,1.79-4.24.22-4.91.09-9.83.09-15.16h6.15c16.81,0,33.62,0,50.44,0,13.74,0,21-7.22,21-20.9,0-19-.21-38,.09-56.94.21-12.83-5-22.25-21.47-22.38C325.13,134.32,301.82,134.56,278.52,134.61Z"/><path class="cls-2" d="M223.59,217.18c-5.6,5.43-11.15,10.92-16.86,16.23-1.19,1.1-3,1.53-4.52,2.27-.47-1.51-1.29-3-1.35-4.52-.18-4.64-.06-9.3-.06-14.61h-5.6c-17.15,0-34.31,0-51.46,0-13,0-20.51-7.44-20.56-20.4-.08-19.82.2-39.65-.12-59.46-.16-10.46,7.25-20.59,20.65-20.36,34.63.57,69.27.19,103.92.19,13.87,0,19.22,4.35,21.95,17.88,0,20.14-.44,40.29,0,60.43.31,13.9-8.75,22.59-21.73,21.84C239.82,216.18,231.69,217,223.59,217.18ZM196,161.51q24.24,0,48.48,0c3.13,0,5.85-.52,6-4.32s-2.29-4.72-5.58-4.71c-32.32,0-64.63-.07-97,.2-2.1,0-5.71,2.58-6,4.35-.54,3.63,2.6,4.55,6.08,4.52C164,161.44,180,161.51,196,161.51Zm.12,37h39c3.67,0,7.42.41,11-.29,1.7-.33,3-2.81,4.45-4.31a42.14,42.14,0,0,0-5-4.31c-.83-.53-2.28-.1-3.44-.1H160.62c-4.67,0-9.37-.33-14,.18-1.8.2-3.38,2.32-5.07,3.57,1.53,1.73,2.86,3.71,4.66,5.09.85.65,2.58.17,3.91.17Zm-15.62-18c10.64,0,21.29,0,31.94,0,3.51,0,6.72-1.34,6.58-5.19-.12-3.48-3.22-4.7-6.55-4.75-.66,0-1.33,0-2,0q-30,0-59.9,0c-1.49,0-3.29-.32-4.39.38-1.78,1.15-4.29,3-4.29,4.57s2.48,3.44,4.26,4.6c1.09.7,2.9.38,4.39.39Q165.52,180.5,180.5,180.48Zm31.47-46c-10.64,0-21.28.1-31.91-.06-3.48-.05-6.34.77-6.31,4.52s3.13,4.56,6.45,4.55q32.16,0,64.32,0c3.14,0,5.84-.56,5.93-4.34.1-4.1-2.72-4.72-6.07-4.7C233.57,134.54,222.77,134.5,212,134.5Zm27.6,36.22v0c-2.31,0-4.86-.61-6.86.18a7.18,7.18,0,0,0-4,4.58c-.21,1.24,2,4,3.38,4.19a63.62,63.62,0,0,0,14.72.3c1.58-.17,4.07-3.09,4-4.62s-2.54-3.72-4.4-4.43C244.42,170.12,241.89,170.72,239.57,170.72Zm-87.09-27.37c2.66,0,5.49.55,7.92-.2a6.29,6.29,0,0,0,3.65-4.42c.13-1.22-2.18-3.75-3.58-3.89a71.64,71.64,0,0,0-14.93,0c-1.44.16-3.44,2.76-3.61,4.4-.13,1.22,2.06,3.4,3.62,3.91C147.66,143.85,150.15,143.34,152.48,143.35Z"/><path class="cls-3" d="M278.52,134.61c23.3-.05,46.61-.29,69.91-.1,16.48.13,21.68,9.55,21.47,22.38-.3,19,0,38-.09,56.94,0,13.68-7.26,20.87-21,20.9-16.82,0-33.63,0-50.44,0h-6.15c0,5.33.13,10.25-.09,15.16-.07,1.44-1.16,2.83-1.79,4.24-1.24-.68-2.72-1.13-3.7-2.08-5-4.85-9.8-10-15-14.7a10.18,10.18,0,0,0-6-2.51c-8-.3-16,0-24-.21-6.64-.21-12.17-2.75-15.26-9.13,8.49,0,17,.2,25.47-.11a25.67,25.67,0,0,0,10-2.25c8.27-4,14.35-10.08,15.75-19.73.51-3.57,2.06-5.47,6.18-5a45,45,0,0,0,12.44-.14c1.88-.33,4.47-2.78,4.75-4.59.4-2.55-1.75-4.34-4.9-4.22-4.16.17-8.33-.06-12.49.07-3.12.1-5.28,0-5.34-4.3s1.84-4.81,5.39-4.79c19.64.12,39.29.08,58.94,0a12.1,12.1,0,0,0,5.74-1.08c1.35-.75,2.87-2.74,2.79-4.09s-1.86-3.08-3.3-3.66a18.89,18.89,0,0,0-6.8-1.05q-29-.12-57.94,0c-3.25,0-4.77-.62-4.79-4.36s1.17-5.09,4.89-4.75c3,.27,6,0,9,0,7.33,0,14.67.23,22-.17,1.8-.09,3.48-2.21,5.22-3.4a51.24,51.24,0,0,0-5-5.31c-.7-.57-2.25-.12-3.42-.12-9.32,0-18.65-.12-28,.06-3.39.06-4.84-.86-4.62-4.47C278.71,143.62,278.51,139.11,278.52,134.61Zm36,81.89c10.31,0,20.62-.11,30.93.06,3.43.05,5.81-1.14,5.84-4.52s-2.29-4.62-5.75-4.6c-20.29.12-40.59.08-60.88,0-3.37,0-6.18.64-6.06,4.72.12,3.79,2.84,4.34,6,4.32C294.52,216.46,304.5,216.5,314.49,216.5Zm16.44-27.05c-5.15,0-10.33-.32-15.43.18-1.75.17-3.3,2.39-4.94,3.68,1.49,1.69,2.93,4.79,4.48,4.86,10.61.43,21.25.44,31.86,0,1.57-.07,3-3.24,4.51-5-1.68-1.25-3.28-3.41-5.06-3.58C341.25,189.13,336.07,189.45,330.93,189.45Zm8.84-27.9c2.16,0,4.5.53,6.41-.15s3.51-2.6,5.23-4c-1.62-1.62-3.06-4.33-4.9-4.64a40.27,40.27,0,0,0-12.87,0c-1.85.3-3.32,2.94-5,4.52,1.71,1.42,3.22,3.32,5.19,4.11C335.57,162.1,337.78,161.55,339.77,161.55Z"/><path class="cls-4" d="M278.52,134.61c0,4.5.19,9-.08,13.49-.22,3.61,1.23,4.53,4.62,4.47,9.32-.18,18.65-.07,28-.06,1.17,0,2.72-.45,3.42.12a51.24,51.24,0,0,1,5,5.31c-1.74,1.19-3.42,3.31-5.22,3.4-7.3.4-14.64.17-22,.17-3,0-6,.22-9,0-3.72-.34-4.9,1-4.89,4.75s1.54,4.38,4.79,4.36q29-.16,57.94,0a18.89,18.89,0,0,1,6.8,1.05c1.44.58,3.22,2.34,3.3,3.66s-1.44,3.34-2.79,4.09a12.1,12.1,0,0,1-5.74,1.08c-19.65.07-39.3.11-58.94,0-3.55,0-5.44.43-5.39,4.79s2.22,4.4,5.34,4.3c4.16-.13,8.33.1,12.49-.07,3.15-.12,5.3,1.67,4.9,4.22-.28,1.81-2.87,4.26-4.75,4.59a45,45,0,0,1-12.44.14c-4.12-.45-5.67,1.45-6.18,5-1.4,9.65-7.48,15.73-15.75,19.73a25.67,25.67,0,0,1-10,2.25c-8.48.31-17,.11-25.47.11l-2.85-8.33c8.1-.22,16.23-1,24.28-.53,13,.75,22-7.94,21.73-21.84-.46-20.14-.06-40.29,0-60.43Z"/><path class="cls-5" d="M212.4,303.61c2.25,3.94.91,12.77-2.32,15.85a12,12,0,0,0-1.8,2.52c-2.33,3.82-4.62,7.67-6.92,11.5l-3.86,2.93-1,1.09v0l-3,2v0l-14,1c-5-5.06-9.17-10.64-9.46-18.06-.33-8.3-.64-16.63-.22-24.91.22-4.2,2.69-7.35,7.91-7.15a27.18,27.18,0,0,0,8.82-1.17c2.78-.85,5.3-2.52,7.94-3.83l7-1.84c2,5,4.7,9.84,5.79,15C208,302.06,209,303.61,212.4,303.61Z"/><path class="cls-6" d="M287.52,262.55a41.07,41.07,0,0,1,24.15-1.38,26.45,26.45,0,0,1,4.86,2.22c-1.6,11,2.77,19.05,11.58,25.54a15.49,15.49,0,0,1,5.29,9c3.34,18.25-1.31,35.27-9.07,51.66l-1.6-.24c-1.84-2.85-2.36-7.81-7.8-4.87q-.26-3.48-.48-6.95l0-1.05a41.82,41.82,0,0,0,5.29-3.62c2-1.87,4.93-3.86,5.34-6.18,2.6-14.57,7-29.8-9-40.25-.14-.09-.28-.18-.41-.28-1-.09-2.23-.55-3.12-.21-3.72,1.41-7.35,3.05-11,4.6L275.67,288a36.07,36.07,0,0,1,8.85-21A44.68,44.68,0,0,0,287.52,262.55Z"/><path class="cls-7" d="M322.73,349.36l1.6.24,11.13,4.75,8.06,4.15c-1.21,1.45-2.16,3.31-3.68,4.28-6.46,4.15-10.72,9.32-9.36,17.57h-5c-1.12-6.91-6.54-4.46-10.6-4.81-3.34-.28-5.4,1.19-5.44,4.81h-38c1.23-7.06-1.54-12.26-7.16-16.43-2-1.46-3.35-3.73-5-5.64l8.63-4.42,11.52-4.35c1.75,2.15,3.6,4.23,5.22,6.48,5,7,5,7,12.46,3,.2-.1.59.17,1.31.39,0,2-.33,4.2.08,6.25.65,3.26-2.35,9.17,2.32,9.25,5,.08,1.81-5.84,2.53-9,.52-2.28.32-4.72.49-7.85,1.78,1,2.95,1.36,3.61,2.14,3.13,3.69,5.44,2.48,7.79-.9S320.25,352.63,322.73,349.36Z"/><path class="cls-8" d="M279.51,349.49,268,353.84c-3.38-1.33-4.59-3.79-4.54-7.41.15-11.45-.51-22.95.21-34.35.83-13.32,1.74-26.9,9.82-38.37,3.5-5,7.51-9.77,14-11.16a44.68,44.68,0,0,1-3,4.39,36.07,36.07,0,0,0-8.85,21l25.84,2.59c-5.47,1.3-11,2.38-16.39,3.94-7.63,2.2-11.08,7.52-10.3,15.39.43,4.28,1.26,8.53,1.53,12.82.34,5.19,2.91,8.56,7.35,11,1.64.9,2.92,2.47,4.35,3.73q-.35,3.51-.7,7C281.76,341.51,281.69,347.13,279.51,349.49Z"/><path class="cls-9" d="M201.49,283.55l-7,1.84-5.93.22c-10.71-2-21.07-8.37-32.48-1.76-.29-1.62-.65-2.44-.53-3.19.57-3.75,1.27-7.47,1.93-11.2.16-.29.45-.56.48-.86.7-7.68,7.1-7.31,12.2-8.39,11-2.35,21.93-3.2,31.57,4.44a34.44,34.44,0,0,1,2.79,2.75C207.13,273.46,204.65,278.57,201.49,283.55Z"/><path class="cls-10" d="M130.5,354.49c2-1,3.85-2.42,5.95-3,7-1.84,14-3.37,21.05-5,2.66,5.45,5.41,10.87,7.93,16.38,1.58,3.46,3.22,4.76,6.6,1.75,1.63-1.44,3.95-2.1,5.95-3.12q-.33,9.44-.65,18.88l-30.82-.05c1-6.84-1.34-12.12-6.91-16.42C136.18,361.28,133.51,357.67,130.5,354.49Z"/><path class="cls-10" d="M207.55,346.38c7.17,1.71,14.38,3.31,21.51,5.18,1.94.51,3.67,1.84,5.5,2.79a58.9,58.9,0,0,1-5.32,6.22c-6,5.34-12.69,10.16-10.75,19.77h-7c-1.13-1.25-2.13-3.41-3.4-3.58a43.89,43.89,0,0,0-11.22,0c-1.27.17-2.27,2.33-3.4,3.59h-5.72L187,361.52c1.88.89,4.2,1.36,5.58,2.75,3.31,3.34,5.39,2.31,7.14-1.32C202.38,357.45,205,351.91,207.55,346.38Z"/><path class="cls-11" d="M188.56,285.61l5.93-.22c-2.64,1.31-5.16,3-7.94,3.83a27.18,27.18,0,0,1-8.82,1.17c-5.22-.2-7.69,2.95-7.91,7.15-.42,8.28-.11,16.61.22,24.91.29,7.42,4.46,13,9.46,18.06a65.89,65.89,0,0,1-8.47-2.09c-2.54-1-4.83-2.62-7.22-4A65.08,65.08,0,0,1,152,311.18c-.66-2.24.36-5,.62-7.49l4.54-1c1.15-11.21,5.25-16.18,14.22-17,3.09-.29,6.26.28,9.4.28C183.37,286,186,285.74,188.56,285.61Z"/><path class="cls-12" d="M335.46,354.35l-11.13-4.75c7.76-16.39,12.41-33.41,9.07-51.66a15.49,15.49,0,0,0-5.29-9c-8.81-6.49-13.18-14.55-11.58-25.54,9,3.05,14,10,16.74,18.42a107.22,107.22,0,0,1,5,23.64c1,12.52.71,25.14,1.18,37.71C339.63,347.55,338.87,351.36,335.46,354.35Z"/><path class="cls-8" d="M188.56,285.61c-2.59.13-5.19.37-7.78.36-3.14,0-6.31-.57-9.4-.28-9,.86-13.07,5.83-14.22,17l-4.54,1c-.69-2-1.21-4.13-2.08-6.07-3.93-8.78-.75-21.87,6.94-28.16-.66,3.73-1.36,7.45-1.93,11.2-.12.75.24,1.57.53,3.19C167.49,277.24,177.85,283.61,188.56,285.61Z"/><path class="cls-13" d="M130.5,354.49c3,3.18,5.68,6.79,9.1,9.43,5.57,4.3,7.86,9.58,6.91,16.42-4.61.05-9.24.34-13.83,0-1.59-.1-4.4-1.69-4.41-2.63-.13-7.17.27-14.35.63-21.52C128.93,355.62,129.94,355.07,130.5,354.49Z"/><path class="cls-13" d="M218.49,380.34c-1.94-9.61,4.78-14.43,10.75-19.77a58.9,58.9,0,0,0,5.32-6.22c1,2.16,2.59,4.27,2.79,6.5.44,4.79.14,9.65.15,14.48,0,3.36-1.25,5.36-5,5.21C227.82,380.35,223.15,380.39,218.49,380.34Z"/><path class="cls-13" d="M207.55,346.38c-2.6,5.53-5.17,11.07-7.81,16.57-1.75,3.63-3.83,4.66-7.14,1.32-1.38-1.39-3.7-1.86-5.58-2.75l-3.93-3.86,18.48-17.48C206.35,339.57,206.8,343.12,207.55,346.38Z"/><path class="cls-2" d="M178,361.51c-2,1-4.32,1.68-5.95,3.12-3.38,3-5,1.71-6.6-1.75-2.52-5.51-5.27-10.93-7.93-16.38.88-3.18,1.35-6.74,6-6.35l8.08,7.33,10.57,10.24Z"/><path class="cls-14" d="M201.49,283.55c3.16-5,5.64-10.09,3-16.15,4.77.54,7.33,4,8.61,7.88a69.39,69.39,0,0,1,3.11,15.38c.22,2.33-1.56,4.81-2.33,7.26-.58,1.87-1,3.79-1.51,5.69-3.39,0-4.38-1.55-5.12-5C206.19,293.39,203.5,288.54,201.49,283.55Z"/><path class="cls-15" d="M330.48,380.35c-1.36-8.25,2.9-13.42,9.36-17.57,1.52-1,2.47-2.83,3.68-4.28,3.7,3.42,5.28,16.62,2.16,20.17a6.68,6.68,0,0,1-4.3,1.75C337.76,380.63,334.11,380.4,330.48,380.35Z"/><path class="cls-16" d="M259.36,358.26c1.65,1.91,3,4.18,5,5.64,5.62,4.17,8.39,9.37,7.16,16.43a101.1,101.1,0,0,1-10.87,0c-1.53-.13-4.18-1.56-4.21-2.47a168.9,168.9,0,0,1,.49-17.42C257,359.69,258.52,359,259.36,358.26Z"/><path class="cls-17" d="M182.16,357.72l-10.57-10.24c2.33,0,4.73.39,7-.06,5.72-1.16,11.79-1.88,14.94-7.95v0l3-2v0l1-1.09,3.86-2.93.21,6.7-18.48,17.48A1.35,1.35,0,0,1,182.16,357.72Z"/><path class="cls-18" d="M182.16,357.72a1.35,1.35,0,0,0,.93-.06l3.93,3.86.75,18.81-10.44.06q.31-9.43.65-18.88Z"/><path class="cls-19" d="M193.49,339.47c-3.15,6.07-9.22,6.79-14.94,7.95-2.23.45-4.63.06-7,.06l-8.08-7.33.3-5.7c2.39,1.35,4.68,3,7.22,4a65.89,65.89,0,0,0,8.47,2.09Z"/><path class="cls-16" d="M309.48,380.34c0-3.62,2.1-5.09,5.44-4.81,4.06.35,9.48-2.1,10.6,4.81Z"/><path class="cls-2" d="M193.49,380.34c1.13-1.26,2.13-3.42,3.4-3.59a43.89,43.89,0,0,1,11.22,0c1.27.17,2.27,2.33,3.4,3.58Z"/><path class="cls-20" d="M196,161.51c-16,0-32-.07-48,.06-3.48,0-6.62-.89-6.08-4.52.26-1.77,3.87-4.33,6-4.35,32.32-.27,64.63-.18,97-.2,3.29,0,5.71,1,5.58,4.71s-2.84,4.33-6,4.32Q220.24,161.47,196,161.51Z"/><path class="cls-20" d="M196.12,198.49h-46c-1.33,0-3.06.48-3.91-.17-1.8-1.38-3.13-3.36-4.66-5.09,1.69-1.25,3.27-3.37,5.07-3.57,4.61-.51,9.31-.18,14-.18h81.46c1.16,0,2.61-.43,3.44.1a42.14,42.14,0,0,1,5,4.31c-1.47,1.5-2.75,4-4.45,4.31-3.53.7-7.28.28-11,.29Z"/><path class="cls-21" d="M180.5,180.48q-15,0-29.95,0c-1.49,0-3.3.31-4.39-.39-1.78-1.16-4.27-3-4.26-4.6s2.51-3.42,4.29-4.57c1.1-.7,2.9-.38,4.39-.38q30,0,59.9,0c.66,0,1.33,0,2,0,3.33,0,6.43,1.27,6.55,4.75.14,3.85-3.07,5.18-6.58,5.19C201.79,180.51,191.14,180.48,180.5,180.48Z"/><path class="cls-20" d="M212,134.5c10.8,0,21.6,0,32.41,0,3.35,0,6.17.6,6.07,4.7-.09,3.78-2.79,4.35-5.93,4.34q-32.16-.06-64.32,0c-3.32,0-6.42-.76-6.45-4.55s2.83-4.57,6.31-4.52C190.69,134.6,201.33,134.5,212,134.5Z"/><path class="cls-22" d="M239.57,170.72c2.32,0,4.85-.6,6.87.17,1.86.71,4.3,2.82,4.4,4.43s-2.4,4.45-4,4.62a63.62,63.62,0,0,1-14.72-.3c-1.38-.17-3.59-2.95-3.38-4.19a7.18,7.18,0,0,1,4-4.58c2-.79,4.55-.18,6.86-.18Z"/><path class="cls-4" d="M152.48,143.34c-2.33,0-4.82.51-6.93-.17-1.56-.51-3.75-2.69-3.62-3.91.17-1.64,2.17-4.24,3.61-4.4a71.64,71.64,0,0,1,14.93,0c1.4.14,3.71,2.67,3.58,3.89a6.29,6.29,0,0,1-3.65,4.42C158,143.9,155.14,143.35,152.48,143.34Z"/><path class="cls-4" d="M314.49,216.5c-10,0-20,0-29.95,0-3.13,0-5.85-.53-6-4.32-.12-4.08,2.69-4.73,6.06-4.72,20.29,0,40.59.08,60.88,0,3.46,0,5.77,1.25,5.75,4.6s-2.41,4.57-5.84,4.52C335.11,216.39,324.8,216.5,314.49,216.5Z"/><path class="cls-23" d="M330.93,189.45c5.14,0,10.32-.32,15.42.17,1.78.17,3.38,2.33,5.06,3.58-1.5,1.73-2.94,4.9-4.51,5-10.61.44-21.25.43-31.86,0-1.55-.07-3-3.17-4.48-4.86,1.64-1.29,3.19-3.51,4.94-3.68C320.6,189.13,325.78,189.45,330.93,189.45Z"/><path class="cls-23" d="M339.77,161.55c-2,0-4.2.55-5.91-.15-2-.79-3.48-2.69-5.19-4.11,1.65-1.58,3.12-4.22,5-4.52a40.27,40.27,0,0,1,12.87,0c1.84.31,3.28,3,4.9,4.64-1.72,1.37-3.26,3.27-5.23,4S341.93,161.55,339.77,161.55Z"/><path class="cls-19" d="M196.49,337.47l-3,2Z"/><path class="cls-19" d="M197.5,336.41l-1,1.09Z"/><path class="cls-5" d="M315.65,286.16c.13.1.27.19.41.28,16.09,10.45,11.64,25.68,9,40.25-.41,2.32-3.33,4.31-5.34,6.18a41.82,41.82,0,0,1-5.29,3.62l-14,5c-2.52-3-5.58-5.79-7.46-9.19-5.17-9.37-4.71-19.78-4.36-30,0-1.24,1.64-2.81,2.9-3.56,1.82-1.07,4-1.43,6-2.26C304,293.77,311.68,293.19,315.65,286.16Z"/><path class="cls-11" d="M315.65,286.16c-4,7-11.63,7.61-18.06,10.31-2,.83-4.19,1.19-6,2.26-1.26.75-2.86,2.32-2.9,3.56-.35,10.26-.81,20.67,4.36,30,1.88,3.4,4.94,6.15,7.46,9.19-1.9-.47-3.83-.83-5.68-1.45-2.29-.78-4.51-1.77-6.76-2.67-1.44-1.26-2.72-2.83-4.36-3.73-4.44-2.41-7-5.78-7.35-11-.27-4.29-1.1-8.54-1.53-12.82-.78-7.87,2.67-13.19,10.3-15.39,5.39-1.56,10.92-2.64,16.39-3.94,3.67-1.55,7.3-3.19,11-4.6C313.42,285.61,314.6,286.07,315.65,286.16Z"/><path class="cls-16" d="M279.51,349.49c2.18-2.36,2.25-8,7.84-5.09l8.11,6.13c2.45,1.77,4.24,5.78,8.2,2.84s7.52-5.91,11.27-8.88c5.44-2.94,6,2,7.8,4.87-2.48,3.27-5.07,6.48-7.41,9.86s-4.66,4.59-7.79.9c-.66-.78-1.83-1.11-3.61-2.14-.17,3.13,0,5.57-.49,7.85-.72,3.19,2.48,9.11-2.53,9-4.67-.08-1.67-6-2.32-9.25-.41-2.05-.08-4.24-.08-6.25-.72-.22-1.11-.49-1.31-.39-7.5,4-7.46,4-12.46-3C283.11,353.72,281.26,351.64,279.51,349.49Z"/><path class="cls-19" d="M295.46,350.53l-8.11-6.13q.36-3.5.7-7c2.26.9,4.48,1.89,6.77,2.67,1.85.62,3.78,1,5.68,1.45l14-5c0,.35,0,.7,0,1.05C310.4,345.2,303.7,349,295.46,350.53Z"/><path class="cls-17" d="M295.46,350.53c8.24-1.53,14.94-5.33,19-13q.23,3.46.48,6.95c-3.75,3-7.43,6-11.27,8.88S297.91,352.3,295.46,350.53Z"/><circle class="cls-24" cx="247.5" cy="247.5" r="236"/></g></g></svg>