<svg xmlns="http://www.w3.org/2000/svg" viewBox="0 0 498.5 498.5"><defs><style>.cls-1{fill:#26364f;}.cls-2{fill:#ccf0fb;}.cls-3{fill:#30435b;}.cls-4{fill:#283a52;}.cls-5{fill:none;stroke:#fff;stroke-width:23px;}</style></defs><title>css</title><g id="Layer_2" data-name="Layer 2"><g id="Layer_1-2" data-name="Layer 1"><path class="cls-1" d="M472.6,248.34C472.73,372.2,372.23,473.45,249,473.58c-125.91.13-226.71-100-226.63-225.17C22.47,124,123,23.44,247.22,23.42A224.74,224.74,0,0,1,472.6,248.34ZM349.8,139.8H145.31c1.2,13.11,2.36,25.85,3.54,38.58q4.28,46.26,8.55,92.51c2.19,23.71,4.39,47.42,6.42,71.14.33,3.9,1.76,5.63,5.71,6.66C194.8,355.27,220,362.21,245.2,369a9.75,9.75,0,0,0,4.8,0c25.39-6.78,50.73-13.75,76.15-20.4,3.62-.95,4.81-2.64,5.11-6.07q2.92-33.58,6.07-67.15,4.34-47,8.7-94C347.3,167.56,348.53,153.84,349.8,139.8ZM234.62,464.73v.47h25.69v-.47Z"/><path class="cls-2" d="M349.8,139.8c-1.27,14-2.5,27.76-3.77,41.49q-4.33,47-8.7,94-3.09,33.57-6.07,67.15c-.3,3.43-1.49,5.12-5.11,6.07-25.42,6.65-50.76,13.62-76.15,20.4a9.75,9.75,0,0,1-4.8,0c-25.23-6.74-50.4-13.68-75.67-20.26-3.95-1-5.38-2.76-5.71-6.66-2-23.72-4.23-47.43-6.42-71.14q-4.25-46.26-8.55-92.51c-1.18-12.73-2.34-25.47-3.54-38.58Zm-97,92.11-.21-1.27c1.46-.67,2.91-1.37,4.39-2,16.23-6.87,32.49-13.69,48.68-20.64,1.51-.65,3.66-2,3.8-3.26.91-7.86,1.34-15.78,1.95-23.85H181.91c1.33,8.92,2.58,17.36,3.85,25.9h61.5a24.46,24.46,0,0,1-2.36,1.44c-17.31,7.28-34.6,14.64-52,21.74-3.39,1.39-5.14,2.89-4.64,6.87a125.55,125.55,0,0,1,1,16.44c0,4,1.5,5,5.32,5,26-.15,52-.08,78-.08h5.64c-.61,10.24-1.08,19.85-1.89,29.43a5.31,5.31,0,0,1-3,3.69c-7.56,2.55-15.22,4.83-22.91,7a10.66,10.66,0,0,1-5.35-.09c-7.4-1.94-14.8-3.93-22.07-6.32a6.4,6.4,0,0,1-3.54-4.21c-.76-4.06-.56-8.3-1.18-12.41-.22-1.41-1.71-3.71-2.69-3.75-7.76-.31-15.54-.17-23.82-.17,1,12.26,2.15,23.81,2.86,35.39.21,3.25,1.32,4.56,4.4,5.42,15.36,4.32,30.65,8.92,46,13.34a8.55,8.55,0,0,0,4.37.18c15.88-4.34,31.72-8.86,47.61-13.16,2.89-.79,3.92-2.17,4.15-5.14,1.31-16.93,2.87-33.84,4.28-50.76.67-8,1.19-16.11,1.81-24.66Z"/><ellipse class="cls-3" cx="247.47" cy="464.96" rx="18.17" ry="0.33"/><path class="cls-4" d="M252.85,231.91h54.36c-.62,8.55-1.14,16.61-1.81,24.66-1.41,16.92-3,33.83-4.28,50.76-.23,3-1.26,4.35-4.15,5.14-15.89,4.3-31.73,8.82-47.61,13.16a8.55,8.55,0,0,1-4.37-.18c-15.33-4.42-30.62-9-46-13.34-3.08-.86-4.19-2.17-4.4-5.42-.71-11.58-1.83-23.13-2.86-35.39,8.28,0,16.06-.14,23.82.17,1,0,2.47,2.34,2.69,3.75.62,4.11.42,8.35,1.18,12.41a6.4,6.4,0,0,0,3.54,4.21c7.27,2.39,14.67,4.38,22.07,6.32a10.66,10.66,0,0,0,5.35.09c7.69-2.15,15.35-4.43,22.91-7a5.31,5.31,0,0,0,3-3.69c.81-9.58,1.28-19.19,1.89-29.43h-5.64c-26,0-52-.07-78,.08-3.82,0-5.35-.91-5.32-5a125.55,125.55,0,0,0-1-16.44c-.5-4,1.25-5.48,4.64-6.87,17.39-7.1,34.68-14.46,52-21.74a24.46,24.46,0,0,0,2.36-1.44h-61.5c-1.27-8.54-2.52-17-3.85-25.9H311.46c-.61,8.07-1,16-1.95,23.85-.14,1.23-2.29,2.61-3.8,3.26C289.52,215,273.26,221.77,257,228.64c-1.48.63-2.93,1.33-4.39,2Zm-1.78.14.17-.2-.28,0Z"/><polygon class="cls-2" points="251.07 232.05 250.96 231.81 251.24 231.85 251.07 232.05"/><circle class="cls-5" cx="249.25" cy="249.25" r="237.75"/></g></g></svg>