<svg xmlns="http://www.w3.org/2000/svg" viewBox="0 0 471.93 471.86"><defs><style>.cls-1{fill:#fff;}</style></defs><title>dribbble</title><g id="Layer_2" data-name="Layer 2"><g id="Layer_1-2" data-name="Layer 1"><path class="cls-1" d="M471.93,471.85H0V0H471.93ZM23.12,238c-.36,117.2,94.58,212.33,212.16,212.59,116.86.27,212.13-94.15,212.86-210.94.72-117.34-94.32-213.3-211.69-213.75S23.47,120.42,23.12,238Z"/><path class="cls-1" d="M238.88,419.19c-34.85-.36-69.46-8.33-100.7-28.4q-3.36-2.16-6.64-4.46c-7.39-5.18-7.44-5.23-2.55-13.14,24.09-38.9,57.76-67.23,98-88,11.52-5.94,23.74-10.48,35.6-15.75,3.58-1.58,5.59-.53,6.87,3.06,13.81,38.76,26.27,77.92,33.89,118.45l.63,3.45c2.11,11.3,2.14,11.39-9,15C277.36,415.13,259.54,419.94,238.88,419.19Z"/><path class="cls-1" d="M100.33,359.2c-5.85-7.87-11.37-14.52-16.06-21.72-19.14-29.47-29.37-61.73-29.58-97,0-7.12.52-7.65,7.62-7.76,58.71-.88,116.48-8.33,173-24.48,3.64-1,5.91-.48,7.56,3.24,3.48,7.92,7.32,15.68,11,23.51a22.25,22.25,0,0,1,.63,2.23C188.28,258,138.74,300.48,100.33,359.2Z"/><path class="cls-1" d="M225.17,178.31a45.63,45.63,0,0,1-4.73,1.74c-51,12.33-102.58,19.74-155,20.86-6.81.15-7-.14-5.28-6.69q21.06-78.54,92.78-116.89c4.11-2.2,6.66-1.46,9.11,2.33q28.13,43.62,56.37,87.18C220.61,170.31,222.6,174,225.17,178.31Z"/><path class="cls-1" d="M193.51,61.73c10-1.35,18.8-3,27.67-3.68,48.6-3.73,91.71,10.3,129.78,40.52,3.9,3.1,3,5.59.38,8.72a181.84,181.84,0,0,1-50.47,41.17c-11.43,6.43-23.58,11.58-35.37,17.37-3.36,1.64-5.49.87-7.3-2.46a865.54,865.54,0,0,0-61.75-96.79C195.68,65.53,195.09,64.36,193.51,61.73Z"/><path class="cls-1" d="M416.31,223.08c.71,12.81.44,12.87-9.34,11.21-36.1-6.16-72.4-8.41-108.91-4.68-5.17.52-8-1-10-5.74q-5-12.23-10.93-24.08c-1.93-3.9-.83-5.51,2.86-7.09,24.31-10.38,47.23-23.21,67.31-40.52,8.92-7.69,17.05-16.33,25.25-24.82,2.59-2.68,4-3.28,6.45,0C401.08,156.53,413.65,189.29,416.31,223.08Z"/><path class="cls-1" d="M337.35,387.92c-2.18-10.39-4.05-19.82-6.16-29.2a738.32,738.32,0,0,0-27.28-93.85c-1.88-5.1-1.52-5.75,3.8-6.35,34.27-3.83,68.1-1.84,101.46,7.26,4.14,1.13,5.35,2.93,4.46,7.05-9.89,46.18-33.29,83.7-71.34,111.91C341,385.7,339.58,386.49,337.35,387.92Z"/></g></g></svg>