<svg xmlns="http://www.w3.org/2000/svg" viewBox="0 0 495 495"><defs><style>.cls-1{fill:#fefefe;}.cls-2{fill:#f8fbfe;}.cls-3{fill:#25364f;}.cls-4{fill:#cef3fd;}.cls-5{fill:#abccd9;}.cls-6{fill:#a5c5d2;}.cls-7{fill:none;stroke:#f7fcfe;stroke-miterlimit:10;stroke-width:23px;}</style></defs><title>figma_1</title><g id="Layer_2" data-name="Layer 2"><g id="Layer_1-2" data-name="Layer 1"><path class="cls-1" d="M261.5,11.6q108.95,0,217.91-.1c3.42,0,4.09.67,4.09,4.1q-.17,231.9,0,463.81c0,3.42-.67,4.1-4.09,4.09q-108.46-.19-216.91-.1c.32-2.74,2.59-2.11,4.19-2.24a226.18,226.18,0,0,0,88.61-25.73q61.36-32.46,95.77-93a223.27,223.27,0,0,0,28.72-90.27c6.2-66.13-11.47-125.3-54.47-176.3-31.63-37.5-71.46-62.46-118.81-75.22a196.15,196.15,0,0,0-40.82-6.79C264.09,13.75,261.82,14.34,261.5,11.6Z"/><path class="cls-2" d="M261.5,11.6c4.62,2.28,9.72,1.15,14.57,1.78a244.58,244.58,0,0,1,63.56,17.27,224.54,224.54,0,0,1,56.76,34.62A236.25,236.25,0,0,1,479.05,207.2a216.67,216.67,0,0,1,3.25,52.53c-2.17,34.13-10.62,66.68-26.6,97.07A240,240,0,0,1,350.05,459.54a233.62,233.62,0,0,1-74.48,22.11c-4.33.53-9-.54-13.07,1.75h-32c-4.19-1.28-8.54-.5-12.81-.88-30.21-2.7-58.16-12.48-84.7-26.66A238.26,238.26,0,0,1,27.41,338.56,261.53,261.53,0,0,1,13.65,293.2c-1.31-6.19-.81-12.54-2.05-18.71v-54c.89-16.88,4.75-33.17,10.19-49.1A234.56,234.56,0,0,1,77.48,81.24c35.14-35.63,77.32-57.78,126.36-67.13a138.48,138.48,0,0,1,20.82-2c2.28-.09,4.63.55,6.85-.49Z"/><path class="cls-1" d="M231.51,11.6c-4.62,2.28-9.72,1.13-14.56,1.78a248.09,248.09,0,0,0-64.89,17.91C120.53,44.79,93.66,64.79,70.78,90A226,226,0,0,0,26.7,161.65c-7.06,18.48-12.21,37.44-14.19,57.18-.06.58-.6,1.12-.91,1.68q0-102.33-.1-204.68c0-3.62.77-4.34,4.35-4.33Q123.69,11.7,231.51,11.6Z"/><path class="cls-1" d="M11.6,274.49c1.32,6.92,2.57,13.84,4,20.75a229.45,229.45,0,0,0,42.33,94,235.68,235.68,0,0,0,68.87,61.66,224.69,224.69,0,0,0,83.85,29.58c6.64.92,13.27,2,19.9,2.94q-107.46,0-214.91.1c-3.42,0-4.1-.67-4.1-4.09Q11.7,376.95,11.6,274.49Z"/><path class="cls-3" d="M471.51,247.67c-.13,125.16-100.84,225-226.8,224.81-123-.17-223.54-101.65-223.22-225.39C21.82,122,122.4,22.34,248,22.52,371.23,22.69,471.64,123.86,471.51,247.67Z"/><path class="cls-4" d="M194.33,201.45c-1.45-1.65-3.61-1.29-5.41-1.75-22.32-5.78-37.58-27.33-35.17-49.85,2.56-23.83,21.72-42.11,45.31-42.33,32.62-.32,65.26-.38,97.88,0,23.39.3,43.07,20.18,44.41,43.77,1.36,23.75-15.74,45.48-38.67,49.1a27,27,0,0,1-3,.14,3,3,0,0,1-3.2,1.45c-16.33-.25-32.65-.05-49-.09-15.61,0-31.22,0-46.82,0C198.58,201.76,196.37,202.67,194.33,201.45Z"/><path class="cls-4" d="M194.33,201.45l4.24-.92c4.93,1.09,9.92.41,14.88.47,10.82.12,21.65,0,32.47,0a3.66,3.66,0,0,1,1.69.31c.21.25.54.5.57.79a180.75,180.75,0,0,1-.19,36.25c.69-11.77,7.59-20.06,15.78-27.46,5.92-5.33,12.8-8.83,20.93-9.42a37.39,37.39,0,0,1,12.75,0l2.24-.93c1.26,1.7,3.3,1.22,4.94,1.62,22.84,5.49,38.06,25.59,36.72,48.71-1.26,22-19.13,41.22-40.47,43.56-24.42,2.68-45.18-11.07-51.77-34.31a7.76,7.76,0,0,0-1.77-3.53v37.81c-1.88,1.85-4.3,1.42-6.56,1.43-13.37,0-26.74,0-40.1,0-2.11-.17-4.32.75-6.36-.48-1-1.72-2.89-1.36-4.38-1.72a46.85,46.85,0,0,1,0-91.32C191.4,202,192.87,201.76,194.33,201.45Z"/><path class="cls-4" d="M194.32,295.41l4.25-.92c7.7,1.16,15.44.19,23.16.5,8.53.35,17.1-.68,25.61.53-.17,18.6,1.94,37.34-1,55.76-3.74,23.49-26.12,39.23-50.92,37.14-22.79-1.93-41.53-22.46-41.83-45.84C153.29,318.68,171.16,298,194.32,295.41Z"/><path class="cls-5" d="M247.34,295.52c-14.55,0-29.1,0-43.64-.07-1.73,0-3.68.72-5.13-1l48.77-.05Z"/><path class="cls-6" d="M297.45,201.51c-4.41.06-8.84-.28-13.17.89-9.87.88-19.76.71-29.65.67-2.46,0-5,.29-7.1-1.54l-.23.05a.67.67,0,0,1,.2-1.05q22.9,0,45.81,0C294.73,200.56,296.35,200,297.45,201.51Z"/><path class="cls-5" d="M247.5,200.53c-.06.35-.13.7-.19,1.05-14.54,0-29.08,0-43.62-.09-1.72,0-3.67.72-5.12-1Z"/><path class="cls-3" d="M247.53,201.53c11,0,22.09-.08,33.14-.09,1.25,0,2.69-.4,3.61,1-17.54,3.19-31,16.95-36.75,36.84Z"/><circle class="cls-7" cx="247.5" cy="247.5" r="236"/></g></g></svg>