<svg xmlns="http://www.w3.org/2000/svg" viewBox="0 0 238.32 204.31"><defs><style>.cls-1{fill:#fafafa;}.cls-2{fill:#69e781;}.cls-3{fill:#69e780;}</style></defs><title>flaticon</title><g id="Layer_2" data-name="Layer 2"><g id="Layer_1-2" data-name="Layer 1"><path class="cls-1" d="M190,0c-6.8,11.54-13.47,23.18-20.57,34.53-1,1.56-4.1,2.47-6.24,2.48-34.49.15-69,.1-103.49.1H52.5A32.07,32.07,0,0,0,54.13,41c6.42,10.73,13,21.38,19.26,32.19,1.53,2.62,3.36,3.1,6,3.09,19.16-.1,38.33-.09,57.49-.11h7.66c-7.32,12.14-14.19,23.67-21.28,35.05-.63,1-2.69,1.54-4.1,1.57-7,.16-13.95.08-21.69.08,5.85,9.76,11.36,19,16.93,28.22q12.66,21,25.43,41.85c1.32,2.15,1.91,3.83.13,6.06a75.9,75.9,0,0,0-4.18,6.69c-7.32,11.41-23.31,11.6-30.55.1-9.47-15-18.6-30.28-27.78-45.49Q41.17,90.12,5,29.88c-1.4-2.34-1.87-5.22-3-7.77C1.66,21.27.69,20.7,0,20V18c.62-.36,1.73-.65,1.8-1.09C3,9.2,7.28,4.27,14.61,1.8c.3-.1.27-1.18.39-1.8Z"/><path class="cls-2" d="M152.18,166.81l-20-33.09c10.7-17.94,21.3-35.75,32-53.53,4.12-6.88,8.26-13.75,12.6-20.49.82-1.28,2.6-2.75,3.95-2.77,12.3-.21,24.59-.12,37.84-.12Z"/><path class="cls-3" d="M191,35.75c5.75-9.45,11.24-18.51,16.79-27.54,1.33-2.17,2.65-5.72,4.39-6,4.27-.68,9.16-.85,13.13.61,13.6,5,16.47,15.55,9.14,27.88-2.74,4.61-5.63,5.81-10.59,5.63-10.46-.38-20.94-.12-31.41-.14A7.42,7.42,0,0,1,191,35.75Z"/></g></g></svg>