<svg xmlns="http://www.w3.org/2000/svg" viewBox="0 0 495 495"><defs><style>.cls-1{fill:#25364f;}.cls-2{fill:#fcd66e;}.cls-3{fill:#ababab;}.cls-4{fill:#828282;}.cls-5{fill:#fdb40a;}.cls-6{fill:#0797fb;}.cls-7{fill:#595a5b;}.cls-8{fill:#9a9a9a;}.cls-9{fill:#6b6452;}.cls-10{fill:#575a5e;}.cls-11{fill:#0477ed;}.cls-12{fill:#0a98fa;}.cls-13{fill:#0496fc;}.cls-14{fill:#63dafa;}.cls-15{fill:#62d9fa;}.cls-16{fill:#898781;}.cls-17{fill:#868582;}.cls-18{fill:#fa5a72;}.cls-19{fill:#7dddd9;}.cls-20{fill:#0baab1;}.cls-21{fill:#dae2e7;}.cls-22{fill:#01cffb;}.cls-23{fill:#e6e6e6;}.cls-24{fill:none;stroke:#fff;stroke-width:23px;}</style></defs><title>frontend</title><g id="Layer_2" data-name="Layer 2"><g id="Layer_1-2" data-name="Layer 1"><path class="cls-1" d="M22.26,254.83c-.1-68,22.66-122.51,67.07-167C131.61,45.37,184.14,24.51,244,23.57c64.95-1,120.28,22.47,165.73,68.81,36.42,37.12,57.71,82.39,62.18,133.52,6.25,71.58-16.08,134.47-68.5,184.93-42.49,40.91-93.75,61.72-152.79,62.69a219.26,219.26,0,0,1-113.25-28.61,223.9,223.9,0,0,1-83.8-82C32.89,328.23,22.83,290.55,22.26,254.83Zm340.42,85.6a13.85,13.85,0,0,0,13.72-13.49c.27-6.29-.14-12.6-.24-18.9,0-.43.07-.86.11-1.29.11-2,.32-4,.32-5.95q0-47.83,0-95.68c0-11.63-.13-23.25-.2-34.88,0-10.47,0-20.94,0-31.41,0-8.44-6-14.28-14.47-14.3-3.15,0-6.3.14-9.45.22-1.83-.07-3.66-.2-5.49-.2q-108,0-215.93,0c-.67,0-1.34,0-2,0-6.95.43-12.36,5.61-12.46,12.54-.16,10.82.06,21.65.12,32.48-.06,5.15-.17,10.31-.16,15.46q0,61.66.15,123.33c-.06,5.64-.15,11.29-.17,16.93,0,10.29,4.89,15.18,15.22,15.19l77.73.07q0,10.89-.1,21.77c-3.82,0-7.64.1-11.46.1-11.08,0-14.31,3.22-14.31,14.17,0,7.08,0,7.09,7.29,7.09H296.54c2.73.25,5.54,1,8.16.55a5.67,5.67,0,0,0,3.65-3.76c2.48-13.45-1.94-18.43-15.54-18-.49,0-1,.11-1.47.17l-8.71-.36-.16-12.65c2.48-.06,5-.15,7.44-.16l61.6-.16c1.64.06,3.29.06,4.93.19,4.52.38,6.39-1.76,6.05-6.16A21,21,0,0,1,362.68,340.43Z"/><path class="cls-2" d="M116.69,308.35q-.09-61.67-.15-123.33c0-5.15.1-10.31.16-15.46,13.49,0,27,.05,40.46,0l202.29-.08a2.76,2.76,0,0,1,.1.75l-.09,67.18-7.92.28c-14.29,0-28.58-.11-42.86-.13-15.45,0-30.91.09-46.36-.06-4.43,0-6.52,1.58-6.31,6.11.14,3.15.08,6.31,0,9.47-.26,13.14,1,10.86,10.65,11.35l-.21,15.8c-1.16,0-2.31.06-3.47.07-6.25.06-6.8.59-6.85,6.75,0,3.13,0,6.27,0,9.4,0,10.15,0,10.15,10.23,10.34l.18,1.66ZM272.5,205.71H302c4,0,8,.19,12-.18,1.25-.12,3.37-1.92,3.28-2.75-.16-1.47-1.51-3-2.77-4.05-.73-.6-2.24-.28-3.4-.28h-77c-2.91,0-6.33-.11-6.21,3.85.12,3.57,3.39,3.43,6.13,3.43Q253.26,205.69,272.5,205.71Zm-72.71,36h21.42c2.57,0,5.33.07,5.37-3.54s-2.55-3.73-5.22-3.73q-21.42,0-42.84,0c-2.71,0-5.58.41-4.91,3.79.28,1.42,3,3.23,4.77,3.33C185.5,241.93,192.65,241.71,199.79,241.71Zm-16-38.59c-4.32,3.68-7.62,6-10.25,9-1,1.18-1.44,4.18-.67,5.47,1.52,2.54,4,1.69,5.92-.14,3.7-3.59,7.33-7.25,10.93-10.93,2.24-2.3,2.22-4.74,0-7-3.61-3.68-7.1-7.52-11-10.82-1.22-1-4.26-1.32-5.54-.5-2.41,1.56-1.75,4,.32,5.87C176.4,196.65,179.4,199.26,183.79,203.12ZM178,258.5c5.16,0,10.34.31,15.45-.18,1.75-.17,3.3-2.36,4.94-3.63-1.6-1.34-3.17-3.79-4.82-3.84-10.46-.35-21-.35-31.41,0-1.6,0-3.12,2.58-4.67,4,1.68,1.22,3.28,3.33,5.06,3.5C167.64,258.81,172.83,258.5,178,258.5Zm107.5-42.95c-5.5,0-11-.27-16.47.17-1.6.13-3,2.28-4.55,3.51,1.53,1.38,3,3.91,4.6,4,10.48.35,21,.35,31.47,0,1.59,0,3.08-2.64,4.62-4.06-1.56-1.19-3-3.25-4.69-3.4C295.5,215.25,290.48,215.54,285.48,215.55Zm-146.7-12.29c3.65-3.54,6.71-5.94,9-8.94,1.08-1.44.67-4,.93-6.08-2.07.25-4.72-.22-6.1.89-3.72,3-6.89,6.69-10.32,10.06-2.7,2.65-2.5,5.15.14,7.71,3.33,3.25,6.34,6.87,10,9.7,1.49,1.17,4.25.7,6.43,1-.35-2.07,0-4.66-1.19-6.08C145.26,208.57,142.12,206.28,138.78,203.26Zm86.1,71.39c5.32,0,10.64,0,16,0,2.74,0,5.56-.6,5.16-3.74-.17-1.36-3.17-3.32-4.94-3.37-10.62-.31-21.26-.14-31.89-.16-2.61,0-5.19.75-4.48,3.71.35,1.48,3,3.23,4.77,3.38C214.56,274.93,219.73,274.64,224.88,274.65ZM217,223.38c4.15,0,8.36.42,12.42-.18,1.87-.28,3.43-2.56,5.13-3.94-1.65-1.24-3.27-3.48-5-3.55-8.45-.37-16.93-.37-25.37,0-1.66.08-3.21,2.35-4.82,3.61,1.56,1.35,3,3.64,4.7,3.87C208.31,223.75,212.67,223.38,217,223.38Zm-47-32.23c-.79-1.14-1.58-3.34-2.51-3.4-1.63-.1-4.33.68-4.85,1.86-3.48,7.89-6.63,15.93-9.53,24-.44,1.23.72,4.28,1.53,4.43,1.57.3,4.48-.4,5-1.51C163.27,208.41,166.45,200,170,191.15Zm-21.26,50.53c4.49,0,9,.24,13.45-.15,1.39-.12,2.63-1.94,3.94-3-1.2-1.35-2.36-3.81-3.61-3.86-8.8-.33-17.62-.33-26.41,0-1.25,0-2.41,2.5-3.61,3.84,1.26,1.05,2.45,2.87,3.79,3C140.42,241.93,144.6,241.68,148.75,241.68Zm32.32,33c4.15,0,8.34.37,12.42-.17,1.75-.23,3.24-2.37,4.84-3.65-1.57-1.14-3.1-3.2-4.72-3.27q-12.18-.49-24.38,0c-1.58.07-3.06,2.22-4.59,3.41,1.49,1.22,2.88,3.28,4.5,3.5C173.06,275,177.09,274.63,181.07,274.64Zm-35.13,0c3.31,0,6.67.36,9.9-.16,1.43-.23,2.59-2.21,3.88-3.39-1.25-1.22-2.45-3.41-3.77-3.48a161.9,161.9,0,0,0-19.33,0c-1.45.09-2.76,2.37-4.13,3.64,1.34,1.14,2.56,3,4,3.26C139.59,275,142.8,274.63,145.94,274.62Zm88.33-16.17c2.15,0,4.45.49,6.39-.16a6.06,6.06,0,0,0,3.59-3.74c.21-1-1.91-3.37-3.14-3.49a67.83,67.83,0,0,0-13.29,0c-1.22.13-3.31,2.59-3.08,3.53a6.32,6.32,0,0,0,3.64,3.7C230.13,258.94,232.29,258.45,234.27,258.45Zm15.78-35.14v.18c2-.12,4.14.22,5.86-.5,1.4-.59,3.11-2.45,3.11-3.75s-2-3.31-3.26-3.46a50.59,50.59,0,0,0-11.86,0c-1.27.15-3.37,2.46-3.2,3.47a6.14,6.14,0,0,0,3.45,3.89C245.88,223.83,248.06,223.31,250.05,223.31Zm-40.26-24.86c-2,0-4.12-.45-5.91.13s-3,2.21-4.49,3.38c1.39,1.25,2.67,3.38,4.19,3.57a53.31,53.31,0,0,0,12.37,0c1.48-.17,2.77-2.12,4.15-3.26-1.45-1.27-2.72-3.05-4.41-3.67S211.77,198.46,209.79,198.45Zm-68.12,60v0c1.82,0,3.83.48,5.41-.14s3.39-2.16,3.77-3.64c.25-.94-1.82-3.49-3-3.62a54.49,54.49,0,0,0-12.31.14c-1.14.15-2.91,2.58-2.76,3.78s2.05,2.8,3.5,3.32C137.87,258.89,139.85,258.44,141.67,258.44Zm70.18.27c2-.23,3.9,0,5.17-.75s2.49-3.5,2.19-3.78c-1.48-1.46-3.39-3.11-5.32-3.37-2.92-.38-6.7-1.31-8.21,2.6a4.66,4.66,0,0,0,1.25,4.27C208.25,258.62,210.36,258.45,211.85,258.71Z"/><path class="cls-3" d="M359.45,169.52l-202.29.08c-13.49,0-27,0-40.46,0-.06-10.83-.28-21.66-.12-32.48.1-6.93,5.51-12.11,12.46-12.54.66,0,1.33,0,2,0q108,0,215.93,0c1.83,0,3.66.13,5.49.2.57,1,.93,2.22,1.75,2.87,4.5,3.53,5.5,8.2,5.36,13.64C359.31,150.67,359.46,160.1,359.45,169.52Zm-164.13-17a5.56,5.56,0,0,0,8.28.87,11,11,0,0,0,3.6-7.32c.05-3.76-2.78-6.08-6.72-6.52a7.17,7.17,0,0,0-7.56,5.2C191.85,147.82,192.22,150.68,195.32,152.56Zm-29.29,0c2.58,2.81,5.92,2.94,8.46.82a10.59,10.59,0,0,0,3.61-7c.07-3.78-2.62-6.26-6.63-6.77s-6.82,1.59-7.5,4.77C163.44,146.85,165.26,149.82,166,152.57Zm-16.81-5a7.87,7.87,0,0,0-7.14-8,7.59,7.59,0,1,0,7.14,8Z"/><path class="cls-4" d="M116.69,308.35l149.86.14q.1,7,.2,14.09c-.83.05-1.65.13-2.48.14-7.52.13-8,.59-8,7.87,0,3.31-.26,6.61-.4,9.91l-46.36,0-77.73-.07c-10.33,0-15.25-4.9-15.22-15.19C116.54,319.64,116.63,314,116.69,308.35Z"/><path class="cls-4" d="M296.54,383.68H190.89c-7.29,0-7.29,0-7.29-7.09,0-10.95,3.23-14.15,14.31-14.17,3.82,0,7.64-.06,11.46-.1h73.26l8.71.36c3.32,3.56,5.83,7.37,5.24,12.62A75.52,75.52,0,0,0,296.54,383.68Z"/><path class="cls-5" d="M359.46,237.45l.09-67.18,16.21.1q0,66.24,0,132.49a27.49,27.49,0,0,0,.54,3.9c0,.42-.07.85-.11,1.28l-16.68.48-1-1.06c3.12-1.23,4.26-3.44,4.08-6.84-.27-4.91.2-9.86-.21-14.75-.16-1.95-1.84-3.77-2.83-5.65q0-7.89,0-15.76C363.87,260.59,363.88,241.33,359.46,237.45Z"/><path class="cls-6" d="M255.83,340.5c.14-3.3.37-6.6.4-9.91.08-7.28.52-7.74,8-7.87.83,0,1.65-.09,2.48-.14l74.79-.05,10-.07.91.42c.35,7,.84,14.07.93,21.11,0,1.77-1.23,3.57-1.89,5.36l-61.6.16c-2.48,0-5,.1-7.44.16-6.58-.06-13.16-.28-19.73-.11-4.46.11-7-1.22-6.55-6.15A13.31,13.31,0,0,0,255.83,340.5Zm78.7-.36h0c4.31,0,8.65.33,12.9-.18,1.63-.19,3-2.31,4.54-3.56-1.56-1.32-3.06-3.7-4.68-3.78-8.1-.39-16.23-.39-24.33,0-1.75.08-3.39,2.25-5.08,3.46,1.74,1.36,3.33,3.59,5.25,3.91C326.84,340.59,330.72,340.14,334.53,340.14Zm-55-7.66v0c-3,0-6.06-.39-8.95.16-1.52.29-2.71,2.24-4.05,3.45,1.23,1.31,2.4,3.69,3.72,3.77a149.62,149.62,0,0,0,18.94,0c1.24-.08,3-2.48,3.24-4,.14-.92-2.07-3-3.43-3.21C285.87,332.14,282.66,332.48,279.49,332.48Zm25.71,7.81c1.45-.19,3.26.08,4.28-.69,1.21-.92,2.68-3,2.41-4.13-.9-4-4.57-3.32-7.31-2.9-2.08.31-4,1.94-5.93,3,.87,1.39,1.49,3.1,2.7,4.09C302.21,340.35,303.86,340.1,305.2,340.29Z"/><path class="cls-7" d="M255.83,340.5a13.31,13.31,0,0,1,.36,2.91c-.46,4.93,2.09,6.26,6.55,6.15,6.57-.17,13.15.05,19.73.11q.07,6.33.16,12.65H209.37q0-10.89.1-21.77Z"/><path class="cls-8" d="M375.76,170.37l-16.21-.1a2.76,2.76,0,0,0-.1-.75c0-9.42-.14-18.85.12-28.26.14-5.44-.86-10.11-5.36-13.64-.82-.65-1.18-1.9-1.75-2.87,3.15-.08,6.3-.23,9.45-.22,8.5,0,14.43,5.86,14.47,14.3.05,10.47,0,20.94,0,31.41A2,2,0,0,1,375.76,170.37Z"/><path class="cls-9" d="M359.48,308.52l16.68-.48c.1,6.3.51,12.61.24,18.9a13.85,13.85,0,0,1-13.72,13.49c-.06-3.92.22-7.88-.3-11.74-.29-2.12-1.94-4.06-3-6.08Q359.44,315.56,359.48,308.52Z"/><path class="cls-10" d="M296.54,383.68a75.52,75.52,0,0,1,0-8.38c.59-5.25-1.92-9.06-5.24-12.62.49-.06,1-.15,1.47-.17,13.6-.47,18,4.51,15.54,18a5.67,5.67,0,0,1-3.65,3.76C302.08,384.66,299.27,383.93,296.54,383.68Z"/><path class="cls-11" d="M359.41,322.61c1,2,2.68,4,3,6.08.52,3.86.24,7.82.3,11.74a21,21,0,0,0-.19,2.95c.34,4.4-1.53,6.54-6.05,6.16-1.64-.13-3.29-.13-4.93-.19.66-1.79,1.91-3.59,1.89-5.36-.09-7-.58-14.07-.93-21.11Z"/><path class="cls-9" d="M375.76,170.37a2,2,0,0,0,.63-.13c.07,11.63.19,23.25.2,34.88q0,47.83,0,95.68c0,2-.21,4-.32,5.95a27.16,27.16,0,0,1-.54-3.89Q375.72,236.62,375.76,170.37Z"/><path class="cls-12" d="M266.67,264.47C257,264,255.76,266.26,256,253.12c.07-3.16.13-6.32,0-9.47-.21-4.53,1.88-6.15,6.31-6.11,15.45.15,30.91,0,46.36.06,14.28,0,28.57.09,42.86.13.64,1.13,1.85,2.27,1.82,3.39-.15,7.71-.55,15.41-.88,23.12a1.84,1.84,0,0,1-.88.35l-10.11-.08Zm68.18-9.83c4.16,0,8.35.33,12.45-.17,1.62-.19,3-2.21,4.51-3.41-1.42-1.26-2.8-3.56-4.27-3.62-8.29-.35-16.62-.35-24.92,0-1.54.06-3,2.22-4.5,3.41,1.59,1.26,3.06,3.38,4.79,3.63C326.82,255,330.87,254.64,334.85,254.64Zm-55.25,0c2.84,0,5.76.42,8.47-.15,1.68-.36,3-2.22,4.54-3.41-1.42-1.27-2.77-3.51-4.28-3.63a119.71,119.71,0,0,0-17.46,0c-1.53.11-2.89,2.35-4.33,3.61,1.52,1.19,2.9,3.06,4.6,3.42C273.85,255.06,276.77,254.63,279.6,254.63Zm25.52-8.14c-2.05.94-4.28,1.55-5.87,2.91-.56.49.36,4.07.76,4.1a63.13,63.13,0,0,0,10.91-.2c.28,0,.94-3.63.25-4.24C309.73,247.8,307.51,247.42,305.12,246.49Z"/><path class="cls-13" d="M266.37,306.83c-10.23-.19-10.23-.19-10.23-10.34,0-3.13,0-6.27,0-9.4.05-6.16.6-6.69,6.85-6.75,1.16,0,2.31,0,3.46-.07l74.93.08,10.38-.18,0,.06c3,8.79,2.08,17.67.69,26.57a6.69,6.69,0,0,0-.77-.2l-10.36.1Zm69.14-17.18c-4.31,0-8.68-.38-12.91.19-1.7.23-3.12,2.56-4.67,3.94,1.52,1.22,3,3.42,4.56,3.49,8.28.35,16.59.38,24.86,0,1.6-.07,3.09-2.52,4.63-3.88-1.51-1.24-2.91-3.32-4.56-3.54C343.51,289.3,339.49,289.66,335.51,289.65Zm-56.42,7.77c3.16,0,6.4.38,9.47-.16,1.51-.27,2.73-2.24,4.08-3.43-1.35-1.39-2.62-3.85-4.07-4a117.17,117.17,0,0,0-18,0c-1.46.11-2.74,2.57-4.1,3.95,1.36,1.2,2.57,3.12,4.12,3.44C273.34,297.83,276.25,297.42,279.09,297.42Zm26.42.47c1.89-.59,4.28-.66,5.36-1.88.85-1,.19-4.89,0-4.9-3.73-.26-7.49-.16-11.24-.13.05,1.76-.59,4.17.32,5.13C301.09,297.31,303.48,297.32,305.51,297.89Z"/><path class="cls-14" d="M341.38,280.35l-74.93-.08q.12-7.9.22-15.8l74.82,0Q341.43,272.43,341.38,280.35Z"/><path class="cls-15" d="M266.37,306.83l75-.13q.11,7.91.2,15.83l-74.79.05q-.11-7-.2-14.09Z"/><path class="cls-4" d="M272.5,205.71q-19.24,0-38.49,0c-2.74,0-6,.14-6.13-3.43-.12-4,3.3-3.85,6.21-3.85h77c1.16,0,2.67-.32,3.4.28,1.26,1,2.61,2.58,2.77,4.05.09.83-2,2.63-3.28,2.75-4,.37-8,.18-12,.18Z"/><path class="cls-4" d="M199.79,241.71c-7.14,0-14.29.22-21.41-.15-1.72-.1-4.49-1.91-4.77-3.33-.67-3.38,2.2-3.8,4.91-3.79q21.42,0,42.84,0c2.67,0,5.25.21,5.22,3.73s-2.8,3.54-5.37,3.54Z"/><path class="cls-16" d="M183.79,203.12c-4.39-3.86-7.39-6.47-10.34-9.12-2.07-1.85-2.73-4.31-.32-5.87,1.28-.82,4.32-.52,5.54.5,3.93,3.3,7.42,7.14,11,10.82,2.24,2.29,2.26,4.73,0,7-3.6,3.68-7.23,7.34-10.93,10.93-1.88,1.83-4.4,2.68-5.92.14-.77-1.29-.38-4.29.67-5.47C176.17,209.14,179.47,206.8,183.79,203.12Z"/><path class="cls-16" d="M178,258.5c-5.15,0-10.34.31-15.45-.17-1.78-.17-3.38-2.28-5.06-3.5,1.55-1.38,3.07-3.91,4.67-4,10.46-.37,21-.37,31.41,0,1.65.05,3.22,2.5,4.82,3.84-1.64,1.27-3.19,3.46-4.94,3.63C188.32,258.81,183.14,258.5,178,258.5Z"/><path class="cls-16" d="M285.48,215.55c5,0,10-.3,15,.16,1.65.15,3.13,2.21,4.69,3.4-1.54,1.42-3,4-4.62,4.06-10.48.37-21,.37-31.47,0-1.57-.05-3.07-2.58-4.6-4,1.51-1.23,3-3.38,4.55-3.51C274.47,215.28,280,215.55,285.48,215.55Z"/><path class="cls-17" d="M138.78,203.26c3.34,3,6.48,5.31,8.85,8.24,1.14,1.42.84,4,1.19,6.08-2.18-.28-4.94.19-6.43-1-3.64-2.83-6.65-6.45-10-9.7-2.64-2.56-2.84-5.06-.14-7.71,3.43-3.37,6.6-7.06,10.32-10.06,1.38-1.11,4-.64,6.1-.89-.26,2.06.15,4.64-.93,6.08C145.49,197.32,142.43,199.72,138.78,203.26Z"/><path class="cls-4" d="M224.88,274.64c-5.15,0-10.32.29-15.43-.16-1.75-.15-4.42-1.9-4.77-3.38-.71-3,1.87-3.72,4.48-3.71,10.63,0,21.27-.15,31.89.16,1.77.05,4.77,2,4.94,3.37.4,3.14-2.42,3.76-5.16,3.74C235.52,274.62,230.2,274.65,224.88,274.64Z"/><path class="cls-16" d="M217,223.38c-4.31,0-8.67.37-12.91-.19-1.71-.23-3.14-2.52-4.7-3.87,1.61-1.26,3.16-3.53,4.82-3.61,8.44-.37,16.92-.37,25.37,0,1.7.07,3.32,2.31,5,3.55-1.7,1.38-3.26,3.66-5.13,3.94C225.34,223.8,221.13,223.38,217,223.38Z"/><path class="cls-17" d="M170,191.15c-3.56,8.89-6.74,17.26-10.39,25.43-.49,1.11-3.4,1.81-5,1.51-.81-.15-2-3.2-1.53-4.43,2.9-8.12,6-16.16,9.53-24,.52-1.18,3.22-2,4.85-1.86C168.43,187.81,169.22,190,170,191.15Z"/><path class="cls-11" d="M352.48,264.24c.33-7.71.73-15.41.88-23.12,0-1.12-1.18-2.26-1.82-3.39l7.92-.28c4.42,3.88,4.41,23.14,0,27Z"/><path class="cls-4" d="M148.75,241.68c-4.15,0-8.33.25-12.45-.14-1.34-.13-2.53-1.95-3.79-3,1.2-1.34,2.36-3.8,3.61-3.84,8.79-.35,17.61-.35,26.41,0,1.25,0,2.41,2.51,3.61,3.86-1.31,1.05-2.55,2.87-3.94,3C157.75,241.92,153.24,241.68,148.75,241.68Z"/><path class="cls-4" d="M181.07,274.64c-4,0-8,.34-11.93-.17-1.62-.22-3-2.28-4.5-3.5,1.53-1.19,3-3.34,4.59-3.41q12.18-.53,24.38,0c1.62.07,3.15,2.13,4.72,3.27-1.6,1.28-3.09,3.42-4.84,3.65C189.41,275,185.22,274.64,181.07,274.64Z"/><path class="cls-4" d="M145.94,274.63c-3.14,0-6.35.36-9.4-.15-1.49-.25-2.71-2.12-4-3.26,1.37-1.27,2.68-3.55,4.13-3.64a161.9,161.9,0,0,1,19.33,0c1.32.07,2.52,2.26,3.77,3.48-1.29,1.18-2.45,3.16-3.88,3.39C152.61,275,149.25,274.62,145.94,274.63Z"/><path class="cls-16" d="M234.27,258.45c-2,0-4.14.49-5.89-.14a6.32,6.32,0,0,1-3.64-3.7c-.23-.94,1.86-3.4,3.08-3.53a67.83,67.83,0,0,1,13.29,0c1.23.12,3.35,2.54,3.14,3.49a6.06,6.06,0,0,1-3.59,3.74C238.72,258.94,236.42,258.45,234.27,258.45Z"/><path class="cls-16" d="M250.05,223.31c-2,0-4.17.52-5.89-.16a6.14,6.14,0,0,1-3.45-3.89c-.17-1,1.93-3.32,3.2-3.47a50.59,50.59,0,0,1,11.86,0c1.29.15,3.26,2.25,3.26,3.46s-1.71,3.16-3.11,3.75c-1.72.72-3.89.38-5.86.5Z"/><path class="cls-4" d="M209.79,198.46c2,0,4.15-.5,5.9.14s3,2.4,4.41,3.67c-1.38,1.14-2.67,3.09-4.15,3.26a53.31,53.31,0,0,1-12.37,0c-1.52-.19-2.8-2.32-4.19-3.57,1.48-1.17,2.8-2.82,4.49-3.38S207.8,198.45,209.79,198.46Z"/><path class="cls-16" d="M141.67,258.44c-1.82,0-3.8.45-5.42-.13-1.45-.52-3.35-2.05-3.5-3.32s1.62-3.63,2.76-3.78a54.49,54.49,0,0,1,12.31-.14c1.21.13,3.28,2.68,3,3.62-.38,1.48-2.2,3-3.77,3.64s-3.59.14-5.41.14Z"/><path class="cls-16" d="M211.85,258.71c-1.49-.26-3.6-.09-4.92-1a4.66,4.66,0,0,1-1.25-4.27c1.51-3.91,5.29-3,8.21-2.6,1.93.26,3.84,1.91,5.32,3.37.3.28-1,3.06-2.19,3.78S213.83,258.48,211.85,258.71Z"/><path class="cls-18" d="M149.22,147.53a7.74,7.74,0,1,1-7.14-8A7.87,7.87,0,0,1,149.22,147.53Z"/><path class="cls-2" d="M166,152.57c-.77-2.75-2.59-5.72-2.06-8.18.68-3.18,3.6-5.36,7.5-4.77C173.73,147.5,172.81,149.67,166,152.57Z"/><path class="cls-19" d="M195.32,152.56c-3.1-1.88-3.47-4.74-2.4-7.77a7.17,7.17,0,0,1,7.56-5.2C202.9,147.39,201.86,150,195.32,152.56Z"/><path class="cls-5" d="M166,152.57c6.78-2.9,7.7-5.07,5.44-12.95,4,.51,6.7,3,6.63,6.77a10.59,10.59,0,0,1-3.61,7C172,155.51,168.61,155.38,166,152.57Z"/><path class="cls-20" d="M195.32,152.56c6.54-2.58,7.58-5.17,5.16-13,3.94.44,6.77,2.76,6.72,6.52a11,11,0,0,1-3.6,7.32A5.56,5.56,0,0,1,195.32,152.56Z"/><path class="cls-11" d="M352.47,306.8c1.39-8.9,2.35-17.78-.69-26.57h7.71c1,1.88,2.67,3.7,2.83,5.65.41,4.89-.06,9.84.21,14.75.18,3.4-1,5.61-4.08,6.84Z"/><path class="cls-2" d="M359.49,280.22h-7.71l0-.06q-.08-7.79-.16-15.58a1.84,1.84,0,0,0,.88-.35l7,.22Q359.47,272.33,359.49,280.22Z"/><path class="cls-4" d="M352.47,306.8l6,.66,1,1.06q0,7-.07,14.09l-6.94.27-.91-.42q.07-7.93.14-15.86A6.69,6.69,0,0,1,352.47,306.8Z"/><path class="cls-21" d="M334.53,340.14c-3.81,0-7.69.45-11.4-.18-1.92-.32-3.51-2.55-5.25-3.91,1.69-1.21,3.33-3.38,5.08-3.46,8.1-.37,16.23-.37,24.33,0,1.62.08,3.12,2.46,4.68,3.78-1.51,1.25-2.91,3.37-4.54,3.56-4.25.51-8.59.18-12.9.18Z"/><path class="cls-21" d="M279.49,332.48c3.17,0,6.38-.34,9.47.15,1.36.22,3.57,2.29,3.43,3.21-.24,1.53-2,3.93-3.24,4a149.62,149.62,0,0,1-18.94,0c-1.32-.08-2.49-2.46-3.72-3.77,1.34-1.21,2.53-3.16,4.05-3.45,2.89-.55,6-.16,8.95-.16Z"/><path class="cls-22" d="M351.7,306.6q-.06,7.93-.14,15.86l-10,.07q-.1-7.92-.2-15.83Z"/><path class="cls-21" d="M305.2,340.29c-1.34-.19-3,.06-3.85-.64-1.21-1-1.83-2.7-2.7-4.09,2-1.05,3.85-2.68,5.93-3,2.74-.42,6.41-1.09,7.31,2.9.27,1.18-1.2,3.21-2.41,4.13C308.46,340.37,306.65,340.1,305.2,340.29Z"/><path class="cls-23" d="M334.85,254.64c-4,0-8,.38-11.94-.17-1.73-.25-3.2-2.37-4.79-3.63,1.5-1.19,3-3.35,4.5-3.41,8.3-.34,16.63-.34,24.92,0,1.47.06,2.85,2.36,4.27,3.62-1.5,1.2-2.89,3.22-4.51,3.41C343.2,255,339,254.64,334.85,254.64Z"/><path class="cls-23" d="M279.6,254.63c-2.83,0-5.75.43-8.46-.15-1.7-.36-3.08-2.23-4.6-3.42,1.44-1.26,2.8-3.5,4.33-3.61a119.71,119.71,0,0,1,17.46,0c1.51.12,2.86,2.36,4.28,3.63-1.5,1.19-2.86,3.05-4.54,3.41C285.36,255.05,282.44,254.63,279.6,254.63Z"/><path class="cls-22" d="M351.6,264.59q.09,7.8.16,15.58l-10.38.18q.06-7.92.11-15.84Z"/><path class="cls-23" d="M305.12,246.49c2.39.93,4.61,1.31,6.05,2.57.69.61,0,4.21-.25,4.24a63.13,63.13,0,0,1-10.91.2c-.4,0-1.32-3.61-.76-4.1C300.84,248,303.07,247.43,305.12,246.49Z"/><path class="cls-21" d="M335.51,289.66c4,0,8-.36,11.91.17,1.65.22,3.05,2.3,4.56,3.54-1.54,1.36-3,3.81-4.63,3.88-8.27.4-16.58.37-24.86,0-1.57-.07-3-2.27-4.56-3.49,1.55-1.38,3-3.71,4.67-3.94C326.83,289.27,331.2,289.65,335.51,289.66Z"/><path class="cls-21" d="M279.09,297.42c-2.84,0-5.75.41-8.47-.16-1.55-.32-2.76-2.24-4.12-3.44,1.36-1.38,2.64-3.84,4.1-3.95a117.17,117.17,0,0,1,18,0c1.45.11,2.72,2.57,4.07,4-1.35,1.19-2.57,3.16-4.08,3.43C285.49,297.8,282.25,297.42,279.09,297.42Z"/><path class="cls-21" d="M305.51,297.89c-2-.57-4.42-.58-5.54-1.78-.91-1-.27-3.37-.32-5.13,3.75,0,7.51-.13,11.24.13.17,0,.83,3.93,0,4.9C309.79,297.23,307.4,297.3,305.51,297.89Z"/><circle class="cls-24" cx="247.5" cy="247.5" r="236"/></g></g></svg>