<svg xmlns="http://www.w3.org/2000/svg" viewBox="0 0 495 495"><defs><style>.cls-1{fill:#26374f;}.cls-2{fill:#cdf2fc;}.cls-3{fill:none;stroke:#fff;stroke-width:23px;}</style></defs><title>git</title><g id="Layer_2" data-name="Layer 2"><g id="Layer_1-2" data-name="Layer 1"><path class="cls-1" d="M22.22,248.58c.43-63.14,23.32-117.24,67.64-161.31C133.27,44.1,187,23.5,248.19,23.55c60.75,0,113.06,21.89,156.73,64,39.16,37.78,62.05,84.56,66.92,138,6.28,69-14.42,130.41-63.69,180.44-44.32,45-98.58,67.54-161.82,67.43-61.85-.11-115.3-22.56-158.55-66S22.61,310.38,22.22,248.58ZM187,143.89c-1.23,1.12-2.24,2-3.17,2.9-32.41,32.39-64.62,65-97.34,97.07-9,8.78-9.51,24.77,0,33.39,7.63,6.95,14.67,14.55,22,21.84l124.18,124c4.89,4.89,10.52,8.09,17.7,7.39,6.22-.6,11.13-3.76,15.49-8.12q71.88-72,144-143.77c9.54-9.44,10.69-24.74.14-34.44-7.6-7-14.67-14.55-22-21.85Q326.8,161.11,265.64,100c-11.76-11.75-23.31-11.66-35,.08-7.42,7.42-14.78,14.92-22.31,22.23-2.1,2-4.73,3.54-7.28,5.41,13.6,13.6,25.69,25.77,37.94,37.78a6.18,6.18,0,0,0,4.68,1.17c19.1-3.17,34.13,11.45,30.95,30.48a6.45,6.45,0,0,0,2.07,6.51c9.39,9.22,18.79,18.45,27.9,27.94,4,4.15,7.68,7.67,14,5.16,1.14-.45,2.65-.1,4,.07,15.15,1.95,25.36,15.45,22.93,30.25-2.36,14.42-16.66,24.1-31.14,21.09-14.33-3-23.22-17.31-19.59-32,.64-2.59.33-4.16-1.59-6-9.89-9.67-19.6-19.52-29.41-29.28a27.06,27.06,0,0,0-2.94-2.18c0,29.84-.05,59,.14,88.12,0,1.67,1.62,3.83,3.1,4.93,10.34,7.62,14.07,20.47,9,32a26,26,0,1,1-37.79-32.34c2-1.31,4.24-2,4.22-5.37-.15-28.83-.05-57.66-.18-86.48a6.07,6.07,0,0,0-2.32-4.29c-11.87-8-15.23-16.18-12.6-30.83a5.09,5.09,0,0,0-.9-3.94C211.42,168.22,199.27,156.13,187,143.89Z"/><path class="cls-2" d="M187,143.89c12.24,12.24,24.39,24.33,36.41,36.54a5.09,5.09,0,0,1,.9,3.94c-2.63,14.65.73,22.8,12.6,30.83a6.07,6.07,0,0,1,2.32,4.29c.13,28.82,0,57.65.18,86.48,0,3.38-2.2,4.06-4.22,5.37A26,26,0,1,0,273,343.68c5.05-11.49,1.32-24.34-9-32-1.48-1.1-3.09-3.26-3.1-4.93-.19-29.14-.14-58.28-.14-88.12a27.06,27.06,0,0,1,2.94,2.18c9.81,9.76,19.52,19.61,29.41,29.28,1.92,1.88,2.23,3.45,1.59,6-3.63,14.66,5.26,29,19.59,32,14.48,3,28.78-6.67,31.14-21.09,2.43-14.8-7.78-28.3-22.93-30.25-1.31-.17-2.82-.52-4-.07-6.31,2.51-10-1-14-5.16-9.11-9.49-18.51-18.72-27.9-27.94a6.45,6.45,0,0,1-2.07-6.51c3.18-19-11.85-33.65-30.95-30.48a6.18,6.18,0,0,1-4.68-1.17c-12.25-12-24.34-24.18-37.94-37.78,2.55-1.87,5.18-3.37,7.28-5.41,7.53-7.31,14.89-14.81,22.31-22.23,11.74-11.74,23.29-11.83,35-.08Q326.83,161.08,388,222.26c7.31,7.3,14.38,14.87,22,21.85,10.55,9.7,9.4,25-.14,34.44q-72.32,71.55-144,143.77c-4.36,4.36-9.27,7.52-15.49,8.12-7.18.7-12.81-2.5-17.7-7.39l-124.18-124c-7.31-7.29-14.35-14.89-22-21.84-9.47-8.62-8.91-24.61,0-33.39,32.72-32.08,64.93-64.68,97.34-97.07C184.79,145.86,185.8,145,187,143.89Z"/><circle class="cls-3" cx="247.5" cy="247.5" r="236"/></g></g></svg>