<svg xmlns="http://www.w3.org/2000/svg" viewBox="0 0 471.93 471.86"><defs><style>.cls-1{fill:#fbfbfb;}.cls-2{fill:#fefefe;}</style></defs><title>github</title><g id="Layer_2" data-name="Layer 2"><g id="Layer_1-2" data-name="Layer 1"><path class="cls-1" d="M471.93,471.86H0V0H471.93ZM197.23,327.64c-1.34-.37-2.08-.58-2.84-.77-10.74-2.69-21.84-4.41-32.15-8.27C140,310.31,124.6,294.85,117.05,272a129.1,129.1,0,0,1-6.12-45.12,73.1,73.1,0,0,1,16.58-44.91c2-2.49,2.66-4.51,1.79-7.63a69.21,69.21,0,0,1,1.39-42.1c2.54-7.33,4.8-8.54,12.6-6.72a120.5,120.5,0,0,1,39,17.11c3.5,2.31,6.86,2.46,10.84,1.77,11.71-2,23.44-4.52,35.27-5.3a156.28,156.28,0,0,1,49.28,5,14.75,14.75,0,0,0,12.64-2c11.67-7.46,24.08-13.44,37.64-16.72,7.56-1.83,11.37.34,13.51,7.71,4,13.8,5.08,27.64,1.13,41.71-.55,1.95.27,4.89,1.51,6.62,5.93,8.28,11.2,16.79,13.88,26.79,4.89,18.3,3.48,36.48-.59,54.63-2.75,12.24-7.48,23.9-15.53,33.39C330,310.3,314,318.49,296.18,322.94c-7,1.75-14,3.1-20.95,4.6-.05.77-.19,1.17-.06,1.41a28.92,28.92,0,0,0,1.57,2.54A48.54,48.54,0,0,1,285,359.71c-.13,18-.08,36,0,54,0,8.79,6,13.88,13.54,10.65,13.71-5.87,27.52-11.77,40.44-19.15,19.66-11.22,35.87-26.77,49.72-44.65A187.49,187.49,0,0,0,429.17,255.9a198.16,198.16,0,0,0-2.9-53.4,190,190,0,0,0-22-59c-8.56-14.92-18.63-28.91-31.17-40.48a281.52,281.52,0,0,0-37.78-29c-26-16.89-55.19-25.19-85.95-26.92-14.16-.8-28.53.48-42.71,1.87-19.15,1.87-37.28,7.93-54.53,16.35A196.89,196.89,0,0,0,93.6,108.5,190.94,190.94,0,0,0,42.71,223.22a203.51,203.51,0,0,0,1.47,48.11,184.63,184.63,0,0,0,31.5,78.82,202.85,202.85,0,0,0,44.08,46.28C136,408.71,153.89,417.58,173,424.32c8.17,2.89,13.92-1.2,14-9.91.05-8.5,0-17,0-25.5,0-7-.77-7.22-7.78-7.13-9.87.12-19.91.41-29.57-1.22-13.14-2.23-22.82-9.9-28.23-22.65-4.82-11.35-10.18-22.45-21.67-29A15.48,15.48,0,0,1,94.76,324c-1-1.49-1.83-3.78-1.36-5.3.39-1.26,2.73-2.54,4.3-2.67a25.73,25.73,0,0,1,8.84.65c11.67,3.15,19.65,10.85,26.42,20.66a58,58,0,0,0,15.22,15.33c11.27,7.4,23.67,4.39,35.58.9,1.73-.51,3.18-3.1,4.09-5,2.5-5.37,4.61-10.93,7-16.38C195.41,330.74,196.27,329.4,197.23,327.64Z"/><path class="cls-2" d="M270.08,311.75c-73.81,17.65-74.67,19-75.28,20.43-2.34,5.45-4.45,11-7,16.38-.91,1.94-2.36,4.53-4.09,5-11.91,3.49-24.31,6.5-35.58-.9A58,58,0,0,1,133,337.37c-6.77-9.81-14.75-17.51-26.42-20.66a25.73,25.73,0,0,0-8.84-.65c-1.57.13-3.91,1.41-4.3,2.67-.47,1.52.38,3.81,1.36,5.3a15.48,15.48,0,0,0,4.92,4.91c11.49,6.52,16.85,17.62,21.67,29,5.41,12.75,15.09,20.42,28.23,22.65,9.66,1.63,19.7,1.34,29.57,1.22,7-.09,7.78.09,7.78,7.13,0,8.5,0,17,0,25.5,0,8.71-5.8,12.8-14,9.91-19.06-6.74-37-15.61-53.19-27.89a202.85,202.85,0,0,1-44.08-46.28,184.63,184.63,0,0,1-31.5-78.82,203.51,203.51,0,0,1-1.47-48.11A190.94,190.94,0,0,1,93.6,108.5a196.89,196.89,0,0,1,58.52-43.16C169.37,56.92,187.5,50.86,206.65,49c14.18-1.39,28.55-2.67,42.71-1.87,30.76,1.73,59.94,10,85.95,26.92a281.52,281.52,0,0,1,37.78,29c12.54,11.57,22.61,25.56,31.17,40.48a190,190,0,0,1,22,59,198.16,198.16,0,0,1,2.9,53.4,187.49,187.49,0,0,1-40.52,104.65C374.8,378.43,358.59,394,338.93,405.2c-12.92,7.38-26.73,13.28-40.44,19.15C291,427.58,285,422.49,285,413.7c-.06-18-.11-36,0-54a48.54,48.54,0,0,0-8.23-28.22,28.92,28.92,0,0,1-1.57-2.54c-.13-.24,0-.64.06-1.41,6.91-1.5,14-2.85,20.95-4.6C314,318.49,330,310.3,341.9,296.21c8.05-9.49,12.78-21.15,15.53-33.39,4.07-18.15,5.48-36.33.59-54.63-2.68-10-7.95-18.51-13.88-26.79-1.24-1.73-2.06-4.67-1.51-6.62,3.95-14.07,2.87-27.91-1.13-41.71-2.14-7.37-5.95-9.54-13.51-7.71-13.56,3.28-26,9.26-37.64,16.72a14.75,14.75,0,0,1-12.64,2,156.28,156.28,0,0,0-49.28-5c-11.83.78-23.56,3.26-35.27,5.3-4,.69-7.34.54-10.84-1.77a120.5,120.5,0,0,0-39-17.11c-7.8-1.82-10.06-.61-12.6,6.72a69.21,69.21,0,0,0-1.39,42.1c.87,3.12.24,5.14-1.79,7.63a73.1,73.1,0,0,0-16.58,44.91A129.1,129.1,0,0,0,117.05,272c7.55,22.88,23,38.34,45.19,46.63,10.31,3.86,21.41,5.58,32.15,8.27.76.19,1.5.4,75.69-15.12,72-14.19,71.5-12.13,70.23-10.87-13.13,13-29,21-46.91,25.07-4.48,1-9,1.95-13.47,2.92-3.12,1-1.56,2,0,3,6.72,11.16,7.45,23.4,7.1,36-.41,14.65-.18,29.32-.07,44,.07,10.11,4.05,12.92,13.55,9.63,37.78-13.1,67.83-36.63,91.34-68.62,23-31.26,34.58-66.72,35.82-105.26.47-14.65-1.08-29.51-3.23-44-2.32-15.79-7.9-30.82-14.78-45.27-15.37-32.27-38.23-58.14-67.78-78A180.79,180.79,0,0,0,245.6,49.14a222.39,222.39,0,0,0-47.53,3.19c-33.28,6.15-62.95,20.92-88.35,43.4a197.19,197.19,0,0,0-50.86,70c-9.57,22.11-13.76,45.32-14.67,69.05-.48,12.65,1.37,25.44,2.77,38.09,2.57,23.16,11.2,44.35,22.9,64.22,12.56,21.33,28.4,40.05,48.1,55.21,17.1,13.15,35.6,23.84,56.5,29.82,6.29,1.8,9.92-.41,10.28-6.9.49-9.14.27-18.33,0-27.48,0-1.21-2.25-3.32-3.5-3.35-6.12-.16-12.29.72-18.4.37-19.74-1.13-37.33-7.61-45.51-30.44-3.49-9.73-9.52-18.61-19.24-24.12a22.29,22.29,0,0,1-6.57-6.55c-2.78-3.88-1.85-7.69,2.68-8.5,5-.9,10.72-1.21,15.44.32,11.27,3.67,19.32,11.61,25.69,21.68A50.45,50.45,0,0,0,147.6,350c9.73,7.3,20.73,5.5,31.5,2.59,2.37-.64,5.51-1.87,6.42-3.74,2.65-5.42,4.34-11.3,6.41-17,1.56-1,3.12-2,0-3-9.27-2.36-18.78-4.06-27.77-7.22-17.71-6.23-32.67-16.49-41.95-33.36-9.65-17.52-13.48-36.37-13.49-56.45,0-19.09,5.21-36,16.86-50.83a7.17,7.17,0,0,0,1.4-7.17c-4.11-15.6-2.66-31,3-45.9a9.08,9.08,0,0,1,5.41-4.84c2.73-.71,6-.24,8.83.45,14.51,3.5,27.78,9.89,40.48,17.63a10.59,10.59,0,0,0,6.48,1.36c9.45-1.37,18.81-3.44,28.28-4.7,18.93-2.51,37.71-1,56.19,3.51a20,20,0,0,0,15.44-1.89,319.05,319.05,0,0,1,34.28-15.67c9.86-3.82,14.81-1.27,18.15,8.45,4.7,13.67,4.91,27.69,1.46,41.68a7.46,7.46,0,0,0,1.35,7.15,116.79,116.79,0,0,1,9.64,15.59c6.6,13,7.37,27,7.1,41.24a110,110,0,0,1-13,49.52C348.34,290.6,345.32,293.07,270.08,311.75Z"/><path class="cls-2" d="M191.93,331.87v-3C195.05,329.87,193.49,330.87,191.93,331.87Z"/><path class="cls-2" d="M279.93,328.87v3C278.37,330.87,276.81,329.87,279.93,328.87Z"/></g></g></svg>