<svg xmlns="http://www.w3.org/2000/svg" viewBox="0 0 472 472"><defs><style>.cls-1{fill:#fbfbfb;}.cls-2{fill:#fefefe;}</style></defs><title>gmail</title><g id="Layer_2" data-name="Layer 2"><g id="Layer_1-2" data-name="Layer 1"><path class="cls-1" d="M0,0H472V472H0ZM353.93,101.66c-2.17-1.77-3.7-3-5.25-4.27-17-13.54-35.55-24.3-56.27-31.26-15.82-5.31-32-8.91-48.63-8.93a322.36,322.36,0,0,0-40.08,2.9c-20.88,2.61-40.08,10.54-58.17,21a176.63,176.63,0,0,0-55.24,50.2c-13.77,19.06-23.76,40-29,62.92-3.75,16.41-5.89,33.19-4.27,50.15.83,8.72,1.64,17.46,3.1,26.09a161,161,0,0,0,19.31,53A181.5,181.5,0,0,0,118.31,371c21.14,18.3,45,31.11,72,37.93,19,4.8,38.23,6.95,58,5.34a190.73,190.73,0,0,0,48.89-10.48,158.62,158.62,0,0,0,64.44-43A156.37,156.37,0,0,0,391,315.37c7.5-18,11.86-36.7,14.4-56.1a159.09,159.09,0,0,0-1.73-50.33c-1-5.54-3.77-6-8.21-6q-75.73.12-151.46.05c-7.91,0-9,1-9,8.89q0,25,0,50c0,10.41.69,11.12,10.88,11.12q39.75,0,79.48,0c5.55,0,6,.45,4.51,5.61-3.6,12.25-9.22,23.56-18,32.9C292.8,331.85,268.4,339.86,241.26,341a106.9,106.9,0,0,1-51.14-10.29c-22.39-10.64-38.57-27.3-49.33-49.3-9.7-19.84-12-41-8.74-62.63,4.37-28.65,18.66-51.54,42.14-68.41,18.74-13.47,39.67-19.9,63-19.53,22.42.36,42.41,6.81,60.15,20.25,3.16,2.39,5.05,2.12,7.61-.49,8.52-8.68,17.16-17.23,25.77-25.83C338.16,117.35,345.59,110,353.93,101.66Z"/><path class="cls-2" d="M353.93,101.66c-8.34,8.31-15.77,15.69-23.18,23.09-8.61,8.6-17.25,17.15-25.77,25.83-2.56,2.61-4.45,2.88-7.61.49-17.74-13.44-37.73-19.89-60.15-20.25-23.36-.37-44.29,6.06-63,19.53-23.48,16.87-37.77,39.76-42.14,68.41-3.31,21.65-1,42.79,8.74,62.63,10.76,22,26.94,38.66,49.33,49.3A106.9,106.9,0,0,0,241.26,341c27.14-1.12,51.54-9.13,70.62-29.46,8.77-9.34,14.39-20.65,18-32.9,1.52-5.16,1-5.61-4.51-5.61q-39.74,0-79.48,0c-10.19,0-10.88-.71-10.88-11.12q0-25,0-50c0-7.85,1.08-8.89,9-8.89q75.72,0,151.46-.05c4.44,0,7.18.45,8.21,6a159.09,159.09,0,0,1,1.73,50.33c-2.54,19.4-6.9,38.11-14.4,56.1a156.37,156.37,0,0,1-29.32,45.39,158.62,158.62,0,0,1-64.44,43,190.73,190.73,0,0,1-48.89,10.48c-19.82,1.61-39-.54-58-5.34-27-6.82-50.85-19.63-72-37.93a181.5,181.5,0,0,1-38.87-47.55,161,161,0,0,1-19.31-53c-1.46-8.63-2.27-17.37-3.1-26.09-1.62-17,.52-33.74,4.27-50.15,5.23-22.9,15.22-43.86,29-62.92a176.63,176.63,0,0,1,55.24-50.2c18.09-10.43,37.29-18.36,58.17-21a322.36,322.36,0,0,1,40.08-2.9c16.62,0,32.81,3.62,48.63,8.93,20.72,7,39.25,17.72,56.27,31.26C350.23,98.63,351.76,99.89,353.93,101.66ZM297,328l-3,2-16,7-2,1-5,2-5,1c-4,.67-8.07,1.5-12.13,2-4.61.51-9.25.65-13.87,1-2.78.21-5.58.86-8.34.68-4.57-.28-9.11-1.07-13.66-1.65l-2-1-7-1-5-2h-2l-2-1-6-2-2-1-7-3-3-2-8-5-3-2-2-2-3-2c-1.44-1.6-2.75-3.35-4.33-4.79-13-11.75-22-26.23-28.1-42.4s-6.37-33.33-4.91-50.53c1.19-13.88,6.16-26.34,12.78-38.26a108.59,108.59,0,0,1,31.11-35.1,104.61,104.61,0,0,1,33.85-16.5,100.35,100.35,0,0,1,30.11-3.87,135.74,135.74,0,0,1,20.94,2.19c14.26,2.66,27.11,8.77,38.86,17.16,3.94,2.82,7,2.7,10.4-1,6.71-7.37,13.7-14.49,20.61-21.68,6.2-6.43,12.45-12.81,18.68-19.21,3.72-1,4.09-2.65,1-5a8.71,8.71,0,0,0-1.52-1.94c-16.59-12-33.63-23.15-53.58-29-21.33-6.23-42.88-11.41-65.3-8.95-13.26,1.45-26.69,3.08-39.51,6.57-39.44,10.73-70.95,33.05-93.89,67.13a202.54,202.54,0,0,0-22.69,43.63,160.25,160.25,0,0,0-9.27,48.32A223.55,223.55,0,0,0,63.17,263c2.14,17.23,6.74,34,14.7,49.51a206.73,206.73,0,0,0,14,23.25,237.37,237.37,0,0,0,17,21.41A118.17,118.17,0,0,0,122.59,370c5.95,4.9,12.26,9.37,18.41,14l3,2c5.57,3.11,11,6.44,16.75,9.26,2.84,1.4,6.15,1.85,9.25,2.74l2,2,3,1,2,1,15,4,5,2c1.64.16,3.29.27,4.93.48,9.3,1.16,18.56,2.82,27.89,3.42,17.33,1.1,34.2-2.1,50.86-6.63,4.41-1.2,8.88-2.19,13.32-3.27l2-1,3-1,2-2,19-8,3-2,8-5,3-2,3-2,1-1,3-2,2-2,3-2c5.7-5.55,11.89-10.69,17-16.76,5.24-6.28,9.4-13.46,14-20.24l2-3,3-5c.33-.67.67-1.33,1-2,.33-1,.67-2,1-3l2-3,3-7c.33-.67.67-1.33,1-2,.67-2,1.33-4,2-6,.33-.67.67-1.33,1-2,.33-1.33.67-2.67,1-4,.33-.67.67-1.33,1-2l3-12c.33-.67.67-1.33,1-2v-3c.33-.67.67-1.33,1-2,.33-3,.67-6,1-9v-2c.66-3,1.57-6.05,1.93-9.13,1.74-15.06,1.57-30-1.57-45-1-5-2.92-6-7.5-6q-76.94.21-153.86.09c-.67,1.9-1.9,3.79-1.91,5.69-.15,17.49.06,35-.19,52.49-.06,4.74,1.62,5.93,6.11,5.9,28-.16,56-.08,84-.08h3l2,1c-.45,4.24-.29,8.66-1.5,12.67C329.9,289,327.22,293.9,325,299l-2,3-2,3-2,3-1,1-2,3-7,7-3,2-3,3-3,2Z"/><path class="cls-2" d="M240,206c0,18.79.17,37.58-.12,56.36-.07,4.77,1.51,5.77,5.94,5.73,25.6-.19,51.21-.13,76.81,0,1.79,0,3.58,1.24,5.37,1.91-28,0-56-.08-84,.08-4.49,0-6.17-1.16-6.11-5.9.25-17.5,0-35,.19-52.49C238.1,209.79,239.33,207.9,240,206Z"/><path class="cls-2" d="M346,105c.33-1.67.67-3.33,1-5C350.09,102.35,349.72,104,346,105Z"/><path class="cls-2" d="M209,341l-5-2Z"/><path class="cls-2" d="M192,406l5,2Z"/><path class="cls-2" d="M271,340l-5,1Z"/><path class="cls-2" d="M334,381l3-2Z"/><path class="cls-2" d="M331,383l3-2Z"/><path class="cls-2" d="M141,384l3,2Z"/><path class="cls-2" d="M320,390l3-2Z"/><path class="cls-2" d="M325,299l-2,3Z"/><path class="cls-2" d="M323,302l-2,3Z"/><path class="cls-2" d="M321,305l-2,3Z"/><path class="cls-2" d="M318,309l-2,3Z"/><path class="cls-2" d="M169,321l-3-2Z"/><path class="cls-2" d="M309,319l-3,2Z"/><path class="cls-2" d="M384,322l2-3Z"/><path class="cls-2" d="M174,325l-3-2Z"/><path class="cls-2" d="M303,324l-3,2Z"/><path class="cls-2" d="M343,374l3-2Z"/><path class="cls-2" d="M300,326l-3,2Z"/><path class="cls-2" d="M297,328l-3,2Z"/><path class="cls-2" d="M185,332l-3-2Z"/><path class="cls-2" d="M377,335l2-3Z"/><path class="cls-2" d="M338,378l3-2Z"/><path class="cls-2" d="M401,268v0Z"/><path class="cls-2" d="M331,270l2,1Z"/><path class="cls-2" d="M399,279c.33-.67.67-1.33,1-2C399.67,277.67,399.33,278.33,399,279Z"/><path class="cls-2" d="M398,284c.33-.67.67-1.33,1-2C398.67,282.67,398.33,283.33,398,284Z"/><path class="cls-2" d="M218,343l-2-1Z"/><path class="cls-2" d="M394,298c.33-.67.67-1.33,1-2C394.67,296.67,394.33,297.33,394,298Z"/><path class="cls-2" d="M194,336l-2-1Z"/><path class="cls-2" d="M278,337l-2,1Z"/><path class="cls-2" d="M202,339l-2-1Z"/><path class="cls-2" d="M389,312c.33-.67.67-1.33,1-2C389.67,310.67,389.33,311.33,389,312Z"/><path class="cls-2" d="M382,327c.33-.67.67-1.33,1-2C382.67,325.67,382.33,326.33,382,327Z"/><path class="cls-2" d="M170,398l2,2Z"/><path class="cls-2" d="M299,400l2-2Z"/><path class="cls-2" d="M175,401l2,1Z"/><path class="cls-2" d="M294,402l2-1Z"/><path class="cls-2" d="M392,304c.33-.67.67-1.33,1-2C392.67,302.67,392.33,303.33,392,304Z"/></g></g></svg>