<svg xmlns="http://www.w3.org/2000/svg" viewBox="0 0 497.5 497.5"><defs><style>.cls-1{fill:#25364f;}.cls-2{fill:#ccf0fa;}.cls-3{fill:#293a53;}.cls-4{fill:none;stroke:#fff;stroke-width:23px;}</style></defs><title>html</title><g id="Layer_2" data-name="Layer 2"><g id="Layer_1-2" data-name="Layer 1"><path class="cls-1" d="M254.5,473.69c-26.85.44-53.13-3-78.64-11.61a216.58,216.58,0,0,1-68-37C58,384.67,29.17,332.69,23.4,268.65,13.42,157.81,85.3,56.79,192.61,30.08,315.45-.51,439.73,75.07,466.89,198.7c17.3,78.74-2.57,148.77-58.6,207.1-40.61,42.27-91.21,64.28-149.8,67.65-.67,0-1.33.14-2,.21ZM358.07,136H145.23c.1,1.94.12,3.56.27,5.18q2.19,25.11,4.41,50.21,6.94,78.07,13.82,156.16c.38,4.38,2,6.29,6.21,7.41,26.18,7,52.28,14.37,78.44,21.47a12.4,12.4,0,0,0,6.23,0c26.63-7.26,53.21-14.75,79.88-21.91,3.68-1,4.64-2.73,4.86-6.2.68-10.63,1.62-21.24,2.56-31.85q3.79-42.77,7.69-85.51c1.73-19.06,3.55-38.11,5.26-57.17C356,161.38,357,149,358.07,136Z"/><path class="cls-2" d="M358.07,136c-1.1,13-2.09,25.37-3.21,37.78-1.71,19.06-3.53,38.11-5.26,57.17q-3.89,42.75-7.69,85.51c-.94,10.61-1.88,21.22-2.56,31.85-.22,3.47-1.18,5.21-4.86,6.2-26.67,7.16-53.25,14.65-79.88,21.91a12.4,12.4,0,0,1-6.23,0c-26.16-7.1-52.26-14.43-78.44-21.47-4.2-1.12-5.83-3-6.21-7.41Q157,269.47,149.91,191.4q-2.24-25.1-4.41-50.21c-.15-1.62-.17-3.24-.27-5.18Zm-74.14,125.3c-.93,11.05-1.7,21.16-2.73,31.25a4.46,4.46,0,0,1-2.61,3c-15.16,4.68-30.28,10.7-46.16,2.34a24.3,24.3,0,0,0-6.71-1.89c-2.64-.51-4-1.64-4.13-4.6-.2-4.65-1-9.27-1.38-13.91-.23-2.68-1.42-3.71-4.16-3.64-6.5.15-13,.21-19.5,0-3.41-.12-4.35,1.08-4,4.37,1.18,11.26,2.32,22.53,3.13,33.81.28,3.9,2,5.43,5.59,6.34,15.62,4,31.18,8.31,46.8,12.36a14.19,14.19,0,0,0,6.78.26c15.13-3.94,30.16-8.29,45.31-12.15,4.72-1.2,6.76-3.33,7.09-8.35,1-15.61,2.56-31.19,3.82-46.78.8-9.89,1.45-19.79,2.22-30.28H277c-18.67,0-37.33.06-56-.1-1.52,0-4.21-1.27-4.36-2.25-1.19-7.68-1.88-15.43-2.79-23.72h68.32c10.17,0,20.34.07,30.5-.08,1.36,0,3.79-1,3.87-1.77.91-8.67,1.46-17.38,2.11-26.26H183.92c0,1.84-.12,3.32,0,4.78,2.25,24,4.66,48.05,6.67,72.11.35,4.18,1.57,5.27,5.62,5.24,27.17-.16,54.33-.08,81.5-.08Z"/><path class="cls-3" d="M283.93,261.31h-6.2c-27.17,0-54.33-.08-81.5.08-4,0-5.27-1.06-5.62-5.24-2-24.06-4.42-48.07-6.67-72.11-.14-1.46,0-2.94,0-4.78H318.66c-.65,8.88-1.2,17.59-2.11,26.26-.08.75-2.51,1.75-3.87,1.77-10.16.15-20.33.08-30.5.08H213.86c.91,8.29,1.6,16,2.79,23.72.15,1,2.84,2.24,4.36,2.25,18.67.16,37.33.1,56,.1h36.27c-.77,10.49-1.42,20.39-2.22,30.28-1.26,15.59-2.81,31.17-3.82,46.78-.33,5-2.37,7.15-7.09,8.35C285,322.71,270,327.06,254.84,331a14.19,14.19,0,0,1-6.78-.26c-15.62-4.05-31.18-8.34-46.8-12.36-3.55-.91-5.31-2.44-5.59-6.34-.81-11.28-1.95-22.55-3.13-33.81-.34-3.29.6-4.49,4-4.37,6.49.22,13,.16,19.5,0,2.74-.07,3.93,1,4.16,3.64.4,4.64,1.18,9.26,1.38,13.91.13,3,1.49,4.09,4.13,4.6a24.3,24.3,0,0,1,6.71,1.89c15.88,8.36,31,2.34,46.16-2.34a4.46,4.46,0,0,0,2.61-3C282.23,282.47,283,272.36,283.93,261.31Z"/><circle class="cls-4" cx="248.75" cy="248.75" r="237.25"/></g></g></svg>