<svg xmlns="http://www.w3.org/2000/svg" viewBox="0 0 96.09 96.09"><defs><style>.cls-1{fill:#273850;}.cls-2{fill:#f9d96d;}.cls-3{fill:#a9aaab;}.cls-4{fill:#7e7f80;}.cls-5{fill:#098ffc;}.cls-6{fill:#f8b715;}.cls-7{fill:#565656;}.cls-8{fill:#5ed8fa;}.cls-9{fill:#bcaa79;}.cls-10{fill:#1f6ca5;}.cls-11{fill:#f7fafc;}.cls-12{fill:none;stroke:#fff;stroke-width:5px;}</style></defs><title>integration</title><g id="Layer_2" data-name="Layer 2"><g id="Layer_1-2" data-name="Layer 1"><path class="cls-1" d="M2.6,48.17C1.24,21.3,26.37,2.42,47.86,2.5A46,46,0,0,1,93.59,47.84c.33,25.1-21.78,45.41-45.2,46C25.49,94.45.7,72.2,2.6,48.17ZM75.49,62.44V32.72c.06-2.1.12-4.19.17-6.29.08-2.85-1.12-4.28-4.13-3.71-14.48,0-29,0-43.44-.12-9-.05-10.08-1.06-9.3,10-.22,10.22-.37,20.45.09,30.67-.55,6.42.1,7.13,6.49,7.16l14.23.11-.05,3.94c-.83,0-1.67,0-2.49.13-3.26.42-3.34.58-2.89,4.62H58.25c1.12-3.66-1.18-4.25-3.59-4.76V72.42c4.24,0,8.48.11,12.69-.15,2-.13,4.86.69,5.42-2.68,1.61.08,3-.15,2.85-2.28C75.52,65.69,75.53,64.06,75.49,62.44Z"/><path class="cls-2" d="M18.88,63.31c-.46-10.22-.31-20.45-.09-30.67l53,.15-.09,14.55H49.33c.49,2.79-1.46,5.54,2.31,6.22l-.07,3c-3.12,1.2-2.12,3.74-1.94,6a5.36,5.36,0,0,0-.23.71Zm43.4-23.07c-5.36-2.17-15.93-1.84-18.89,0ZM30.93,47.67c3.82.91,7.63,1.24,11.37-.11A18,18,0,0,0,30.93,47.67Zm5-4.05c3.6,1,6,1.41,9.18-.39C41.79,42.44,39.41,42.15,35.92,43.62Zm23.43-.29c-2.49-.56-5-1.24-7.47.19A7.26,7.26,0,0,0,59.35,43.33ZM22.9,47.76c2.15.47,4.45,1.82,6.24-.69C27,46.91,24.87,46,22.9,47.76Z"/><path class="cls-3" d="M71.75,32.79l-53-.15c-.78-11.1.33-10.09,9.3-10,14.48.07,29,.08,43.44.12,1.62,3.1.94,6.48,1.16,9.74Z"/><path class="cls-4" d="M18.88,63.31l30.52-.05,1.09.37.25-.2.76,2.88c-2.91.26-1.62,2.8-2.32,4.26H39.6l-14.23-.11C19,70.44,18.33,69.73,18.88,63.31Z"/><path class="cls-5" d="M49.18,70.57c.7-1.46-.59-4,2.32-4.26,2.79.07,5.59.26,8.38.17,3.24-.11,6.58.74,9.68-.86,1.66.85,3.66,1.42,3.2,4-.56,3.37-3.39,2.55-5.42,2.68-4.21.26-8.45.12-12.69.15l-1.09-.15c-1.13-1.21-2.61-.43-3.91-.71Z"/><path class="cls-4" d="M54.66,74.51c2.41.51,4.71,1.1,3.59,4.76H34.17c-.45-4-.37-4.2,2.89-4.62.82-.11,1.66-.09,2.49-.13Z"/><path class="cls-6" d="M71.75,32.79l.94-.33,2.8.26V62.44c-1,.46-2,2.12-3.15.07.59-2.55.77-4.93-2.42-5.95v-3c3.21-1.11,3.43-1.9,1.74-6.26Z"/><path class="cls-7" d="M54.66,74.51H39.55l.05-3.94h9.58l.47,1c1.05,2.58,1.78,2.71,3.91.71l1.09.15Z"/><path class="cls-4" d="M75.49,32.72l-2.8-.26c-.22-3.26.46-6.64-1.16-9.74,3-.57,4.21.86,4.13,3.71C75.61,28.53,75.55,30.62,75.49,32.72Z"/><path class="cls-7" d="M72.34,62.51c1.1,2.05,2.11.39,3.15-.07,0,1.62,0,3.25.12,4.87.11,2.13-1.24,2.36-2.85,2.28.46-2.55-1.54-3.12-3.2-4l.12-1.9A4.18,4.18,0,0,0,72.34,62.51Z"/><path class="cls-5" d="M72.34,62.51a4.18,4.18,0,0,1-2.66,1.21,40,40,0,0,0-18.94-.29l-.25.2a1,1,0,0,0-.86-1.08c-.18-2.27-1.18-4.81,1.94-6l18.35,0C73.11,57.58,72.93,60,72.34,62.51ZM69.86,60a6.75,6.75,0,0,0-7.72.09A14,14,0,0,0,69.86,60Z"/><path class="cls-5" d="M71.66,47.34c1.69,4.36,1.47,5.15-1.74,6.26l-18.28,0c-3.77-.68-1.82-3.43-2.31-6.22ZM70,50.47a8.45,8.45,0,0,0-7.19-.08C65.17,51.8,67.58,51.42,70,50.47Z"/><path class="cls-8" d="M51.64,53.56l18.28,0v3l-18.35,0Z"/><path class="cls-4" d="M62.28,40.24H43.39C46.35,38.4,56.92,38.07,62.28,40.24Z"/><path class="cls-4" d="M30.93,47.67a18,18,0,0,1,11.37-.11C38.56,48.91,34.75,48.58,30.93,47.67Z"/><path class="cls-4" d="M35.92,43.62c3.49-1.47,5.87-1.18,9.18-.39C41.9,45,39.52,44.66,35.92,43.62Z"/><path class="cls-4" d="M59.35,43.33a7.26,7.26,0,0,1-7.47.19C54.33,42.09,56.86,42.77,59.35,43.33Z"/><path class="cls-4" d="M22.9,47.76c2-1.73,4.12-.85,6.24-.69C27.35,49.58,25.05,48.23,22.9,47.76Z"/><path class="cls-9" d="M49.63,62.55a1,1,0,0,1,.86,1.08l-1.09-.37A5.36,5.36,0,0,1,49.63,62.55Z"/><path class="cls-8" d="M50.74,63.43a40,40,0,0,1,18.94.29l-.12,1.9c-3.1,1.6-6.44.75-9.68.86-2.79.09-5.59-.1-8.38-.17Z"/><path class="cls-10" d="M53.56,72.27c-2.13,2-2.86,1.87-3.91-.71C51,71.84,52.43,71.06,53.56,72.27Z"/><path class="cls-11" d="M69.86,60a14,14,0,0,1-7.72.09A6.75,6.75,0,0,1,69.86,60Z"/><path class="cls-11" d="M70,50.47c-2.46,1-4.87,1.33-7.19-.08A8.45,8.45,0,0,1,70,50.47Z"/><circle class="cls-12" cx="48.05" cy="48.05" r="45.55"/></g></g></svg>