<svg xmlns="http://www.w3.org/2000/svg" viewBox="0 0 495 495"><defs><style>.cls-1{fill:#25364f;}.cls-2{fill:#cdf2fc;}.cls-3{fill:#273851;}.cls-4{fill:#263750;}.cls-5{fill:none;stroke:#fff;stroke-width:23px;}</style></defs><title>javascript</title><g id="Layer_2" data-name="Layer 2"><g id="Layer_1-2" data-name="Layer 1"><path class="cls-1" d="M22.24,255.89c0-69.31,22.78-123.62,67-168,42.41-42.57,95.11-63.41,155.1-64.27,64-.92,118.69,22,163.86,67.32,37.26,37.33,59,83.06,63.63,134.92,6.26,70.77-15.56,133.2-67,183.56-42.69,41.8-94.4,63.31-154.19,64.11-62.31.83-116.36-20.66-160.79-64.18S23.44,312.06,22.24,255.89ZM120.9,120.73V377.29H377.24V120.73Z"/><path class="cls-2" d="M120.9,120.73H377.24V377.29H120.9ZM351,257c-1-1.72-1.76-3.17-2.69-4.49-9.84-14-29.92-19.44-47.07-12.66-7.16,2.83-13.32,7.1-16.83,14.13-8.09,16.22-3.24,34.82,11.79,44.92,4.39,2.95,9.35,5.05,14.11,7.41,5.51,2.74,11.2,5.14,16.61,8.05,4.43,2.38,7,6.23,6.2,11.52s-4.5,8.09-9.32,9.3c-9,2.25-17.24.85-24-5.93-2.32-2.33-4.29-5-6.73-7.88l-19.93,11.8c5.6,9.42,12.4,16.61,22.16,20.74,12,5.05,24.45,5.37,36.76,2.47,12.6-3,22.3-10.41,25-23.75,3-14.91.07-28.47-13.77-37.22-6.84-4.33-14.39-7.53-21.62-11.25-4.13-2.12-8.46-3.94-12.3-6.49-4-2.66-5.12-6.89-3.84-11.51s4.83-6.65,9.26-7.19a14.29,14.29,0,0,1,12.66,4.56c1.57,1.67,3,3.5,4.74,5.56ZM207.86,323.4c-5.66,3.47-10.93,6.94-16.44,10-3.2,1.77-3.16,3.38-1.39,6.29,9.2,15.2,23.28,19.31,39.88,18,8.61-.66,16.25-3.37,22.16-10,6.47-7.25,8.7-16,8.71-25.38q0-40,0-80c0-1.11-.19-2.22-.3-3.45H236.12v18.26c0,21.32.07,42.65-.06,64-.05,8.71-2.75,13.1-8.12,14.41-7.28,1.79-12.8-.73-17.21-7.81C209.87,326.38,209,325.05,207.86,323.4Z"/><path class="cls-3" d="M351,257l-18.83,12.09c-1.75-2.06-3.17-3.89-4.74-5.56A14.29,14.29,0,0,0,314.73,259c-4.43.54-8,2.58-9.26,7.19s-.17,8.85,3.84,11.51c3.84,2.55,8.17,4.37,12.3,6.49,7.23,3.72,14.78,6.92,21.62,11.25,13.84,8.75,16.77,22.31,13.77,37.22-2.69,13.34-12.39,20.78-25,23.75-12.31,2.9-24.79,2.58-36.76-2.47-9.76-4.13-16.56-11.32-22.16-20.74L293,321.36c2.44,2.88,4.41,5.55,6.73,7.88,6.77,6.78,15,8.18,24,5.93,4.82-1.21,8.51-4,9.32-9.3s-1.77-9.14-6.2-11.52c-5.41-2.91-11.1-5.31-16.61-8.05-4.76-2.36-9.72-4.46-14.11-7.41-15-10.1-19.88-28.7-11.79-44.92,3.51-7,9.67-11.3,16.83-14.13,17.15-6.78,37.23-1.36,47.07,12.66C349.2,253.82,349.94,255.27,351,257Z"/><path class="cls-4" d="M207.86,323.4c1.09,1.65,2,3,2.87,4.36,4.41,7.08,9.93,9.6,17.21,7.81,5.37-1.31,8.07-5.7,8.12-14.41.13-21.33.05-42.66.06-64V238.92h24.37c.11,1.23.3,2.34.3,3.45q0,40,0,80c0,9.43-2.24,18.13-8.71,25.38-5.91,6.62-13.55,9.33-22.16,10-16.6,1.28-30.68-2.83-39.88-18-1.77-2.91-1.81-4.52,1.39-6.29C196.93,330.34,202.2,326.87,207.86,323.4Z"/><circle class="cls-5" cx="247.5" cy="247.5" r="236"/></g></g></svg>