<svg xmlns="http://www.w3.org/2000/svg" viewBox="0 0 498 498"><defs><style>.cls-1{fill:#26374f;}.cls-2{fill:#c8ecf6;}.cls-3{fill:#c4e7f2;}.cls-4{fill:#c9edf8;}.cls-5{fill:#c8ecf7;}.cls-6{fill:#c7ebf5;}.cls-7{fill:#c4e8f2;}.cls-8{fill:#bfe2ed;}.cls-9{fill:#c3e6f1;}.cls-10{fill:none;stroke:#fff;stroke-width:23px;}</style></defs><title>java</title><g id="Layer_2" data-name="Layer 2"><g id="Layer_1-2" data-name="Layer 1"><path class="cls-1" d="M22.23,248.35c.4-62.88,23.29-117,67.61-161.06,43.26-43,96.85-63.66,157.82-63.75,60.56-.09,112.81,21.5,156.53,63.33,39.59,37.87,62.71,84.89,67.65,138.75,6.28,68.59-14.19,129.77-63,179.72C364.46,450.81,310,473.6,246.36,473.51c-61.85-.09-115.3-22.54-158.56-66S22.62,310.41,22.23,248.35ZM189,284a43.84,43.84,0,0,0-5.88,2.63c-5.85,3.66-5.88,7.67.31,10.54a64.12,64.12,0,0,0,14.66,4.63c18.62,3.63,37.39,3.21,56.08.71,10.55-1.41,21-3.77,31.46-5.7l.09-1.56c-3.9-1.84-7.89-5.4-11.68-5.2-11.91.62-23.72,3.64-35.6,3.9-14.39.32-28.82-1.11-43.22-2.05-4.19-.28-6.78-2.65-5.69-7.41l.6-.55Zm46.52-40c-1.41-2.61-2.1-4.16-3-5.55-3.15-4.7-6.5-9.27-9.55-14-11.57-18.11-10.48-31.78,4.38-47.23,6.09-6.33,13.2-11.67,19.75-17.56,10-9,18.81-18.89,23.91-31.56,4-10,4.59-20-.31-30A24.94,24.94,0,0,0,268,94.67c-.29,1.7-.59,2.35-.48,2.92,3.34,16.94-3.66,30.25-15.17,41.62-6.14,6.07-13.1,11.29-19.61,17-7.89,6.89-16.29,13.31-23.39,20.93-11,11.78-12.23,22.69-3,35.74,7.6,10.78,17.33,20.06,26.16,30C232.82,243.24,233.57,243.29,235.51,244ZM175,334c-2.54,0-5-.52-7.07.09-9.21,2.64-18.5,5.18-27.38,8.7-3,1.21-4.95,5.21-7.38,7.93,3.17,1.89,6.26,3.91,9.54,5.58,1.42.72,3.21.76,4.85,1,35.77,5.7,71.79,8.28,107.89,5,18.45-1.66,36.75-5.41,55-9,6-1.19,11.65-4.64,17.13-7.65,2.52-1.38,4.63-4.16,2-6.2-3.36,2.71-6.05,5.33-9.18,7.22-2.2,1.32-5,1.79-7.57,2.4-21.79,5.14-44.06,6.69-66.29,7.08-21.59.37-43.23-.65-64.8-1.84-8.53-.47-17-2.87-25.39-4.83-2.1-.49-3.82-2.66-5.71-4.06,1.6-1.7,2.89-4.18,4.86-5C161.65,338.06,168.16,336.23,175,334Zm77.35-79.42a36,36,0,0,0,14.53-12.87c5.1-7.76,5.25-15.59-.06-23.34-2.26-3.3-4.71-6.47-6.88-9.82-7.8-12-7.47-20.47,3-30.27,8.11-7.56,17.53-13.7,26.4-20.42,1.65-1.25,3.49-2.26,5.48-3.53-.84-.52-1.07-.77-1.34-.8a3.09,3.09,0,0,0-1.48,0c-17.09,6-33.58,13.18-45.65,27.46-6.34,7.5-9.87,16.47-6.52,26,2.65,7.51,7,14.63,11.66,21.16C258,237.28,258.55,245.29,252.3,254.61Zm-55,59.55c-2.43,1.16-4.47,1.92-6.28,3-4.83,3-5.24,6.61-.44,9.63a48.22,48.22,0,0,0,13.62,5.84c18.81,4.83,37.79,4.38,56.66.3,6.82-1.48,13.46-3.78,20.18-5.71-2-2-4-2.46-5.53-3.61-6.19-4.73-12.81-3.69-19.82-2.49-17.52,3-35.09,2.56-52.62-.3C199.55,320.26,196.64,319.12,197.35,314.16Zm94.31-52.68c-1.79.13-3.59.13-5.36.4a493.07,493.07,0,0,1-85.48,5.43,146.32,146.32,0,0,1-19.77-2.18c-1.84-.29-3.43-2.16-5.14-3.3,1.34-1.54,2.38-3.71,4.07-4.49,5.36-2.46,11-4.4,16.26-6.46-10.5-1.33-35.5,7.07-40.75,14.37,2.47,1.31,4.74,2.87,7.26,3.76a45.39,45.39,0,0,0,8.74,2c30.86,4.46,61.72,3.58,92.51-.66C273.58,269,283.57,268.58,291.66,261.48Zm-100,112.94c.76.13,1.51.3,2.28.38,35.27,3.65,70.5,3.57,105.6-1.76,12.14-1.84,24.25-4.35,34.89-11.08,2-1.28,3.61-3.27,5.39-4.94C291.58,375.57,241.54,373.42,191.66,374.42Zm121-126.16c2.37.76,4,1.33,5.58,1.78,9.44,2.61,14.92,10.07,13.24,19.31a23.42,23.42,0,0,1-5.06,11.13c-5.58,6.15-12,11.5-18.1,17.15,1.21-.1,2.94.15,4.36-.41,10.18-4,19.6-9.19,26-18.48,5.62-8.18,5.55-16.28.4-23.14C334.78,249.84,323.28,244,312.69,248.26Z"/><path class="cls-2" d="M235.51,244c-1.94-.74-2.69-.79-3-1.19-8.83-9.92-18.56-19.2-26.16-30-9.19-13.05-7.93-24,3-35.74,7.1-7.62,15.5-14,23.39-20.93,6.51-5.69,13.47-10.91,19.61-17,11.51-11.37,18.51-24.68,15.17-41.62-.11-.57.19-1.22.48-2.92a24.94,24.94,0,0,1,2.66,3.45c4.9,9.93,4.34,20,.31,30-5.1,12.67-13.93,22.57-23.91,31.56-6.55,5.89-13.66,11.23-19.75,17.56-14.86,15.45-15.95,29.12-4.38,47.23,3,4.76,6.4,9.33,9.55,14C233.41,239.87,234.1,241.42,235.51,244Z"/><path class="cls-3" d="M175,334c-6.79,2.2-13.3,4-19.56,6.5-2,.78-3.26,3.26-4.86,5,1.89,1.4,3.61,3.57,5.71,4.06,8.4,2,16.86,4.36,25.39,4.83,21.57,1.19,43.21,2.21,64.8,1.84,22.23-.39,44.5-1.94,66.29-7.08,2.59-.61,5.37-1.08,7.57-2.4,3.13-1.89,5.82-4.51,9.18-7.22,2.64,2,.53,4.82-2,6.2-5.48,3-11.13,6.46-17.13,7.65-18.2,3.61-36.5,7.36-55,9-36.1,3.24-72.12.66-107.89-5-1.64-.26-3.43-.3-4.85-1-3.28-1.67-6.37-3.69-9.54-5.58,2.43-2.72,4.35-6.72,7.38-7.93,8.88-3.52,18.17-6.06,27.38-8.7C170,333.51,172.41,334,175,334Z"/><path class="cls-4" d="M252.3,254.61c6.25-9.32,5.68-17.33-.83-26.46-4.67-6.53-9-13.65-11.66-21.16-3.35-9.5.18-18.47,6.52-26,12.07-14.28,28.56-21.42,45.65-27.46a3.09,3.09,0,0,1,1.48,0c.27,0,.5.28,1.34.8-2,1.27-3.83,2.28-5.48,3.53-8.87,6.72-18.29,12.86-26.4,20.42-10.5,9.8-10.83,18.23-3,30.27,2.17,3.35,4.62,6.52,6.88,9.82,5.31,7.75,5.16,15.58.06,23.34A36,36,0,0,1,252.3,254.61Z"/><path class="cls-5" d="M197.35,314.16c-.71,5,2.2,6.1,5.77,6.69,17.53,2.86,35.1,3.31,52.62.3,7-1.2,13.63-2.24,19.82,2.49,1.51,1.15,3.54,1.63,5.53,3.61-6.72,1.93-13.36,4.23-20.18,5.71-18.87,4.08-37.85,4.53-56.66-.3a48.22,48.22,0,0,1-13.62-5.84c-4.8-3-4.39-6.67.44-9.63C192.88,316.08,194.92,315.32,197.35,314.16Z"/><path class="cls-6" d="M189.52,284.52c-1.09,4.76,1.5,7.13,5.69,7.41,14.4.94,28.83,2.37,43.22,2.05,11.88-.26,23.69-3.28,35.6-3.9,3.79-.2,7.78,3.36,11.68,5.2l-.09,1.56c-10.48,1.93-20.91,4.29-31.46,5.7-18.69,2.5-37.46,2.92-56.08-.71a64.12,64.12,0,0,1-14.66-4.63c-6.19-2.87-6.16-6.88-.31-10.54A43.84,43.84,0,0,1,189,284,4.1,4.1,0,0,0,189.52,284.52Z"/><path class="cls-7" d="M291.66,261.48c-8.09,7.1-18.08,7.53-27.66,8.85-30.79,4.24-61.65,5.12-92.51.66a45.39,45.39,0,0,1-8.74-2c-2.52-.89-4.79-2.45-7.26-3.76,5.25-7.3,30.25-15.7,40.75-14.37-5.29,2.06-10.9,4-16.26,6.46-1.69.78-2.73,3-4.07,4.49,1.71,1.14,3.3,3,5.14,3.3a146.32,146.32,0,0,0,19.77,2.18,493.07,493.07,0,0,0,85.48-5.43C288.07,261.61,289.87,261.61,291.66,261.48Z"/><path class="cls-8" d="M191.66,374.42c49.88-1,99.92,1.15,148.16-17.4-1.78,1.67-3.36,3.66-5.39,4.94-10.64,6.73-22.75,9.24-34.89,11.08-35.1,5.33-70.33,5.41-105.6,1.76C193.17,374.72,192.42,374.55,191.66,374.42Z"/><path class="cls-9" d="M312.69,248.26c10.59-4.23,22.09,1.58,26.4,7.34,5.15,6.86,5.22,15-.4,23.14-6.38,9.29-15.8,14.48-26,18.48-1.42.56-3.15.31-4.36.41,6.06-5.65,12.52-11,18.1-17.15a23.42,23.42,0,0,0,5.06-11.13c1.68-9.24-3.8-16.7-13.24-19.31C316.65,249.59,315.06,249,312.69,248.26Z"/><path class="cls-6" d="M189,284l1.13-.06-.6.55A4.1,4.1,0,0,1,189,284Z"/><circle class="cls-10" cx="249" cy="249" r="237.5"/></g></g></svg>