<svg xmlns="http://www.w3.org/2000/svg" viewBox="0 0 472 472"><defs><style>.cls-1{fill:#fff;}</style></defs><title>linkedin</title><g id="Layer_2" data-name="Layer 2"><g id="Layer_1-2" data-name="Layer 1"><path class="cls-1" d="M0,472V0H472V472Zm404-68.34c.08-1.83.2-3.15.2-4.47,0-39.83.26-79.66-.15-119.49a319,319,0,0,0-3.16-41.77c-2.45-17.06-8.83-32.54-21.18-45.37-20.79-21.61-70.95-25.9-98.15-10.62a86.39,86.39,0,0,0-29.18,26.72v-30H185.53v224.9h69.66v-6.14c0-35-.12-70,.09-105a149,149,0,0,1,2-23.86c4.12-24.37,20.72-36.5,45.21-33.91,14,1.49,23.61,8.71,27.14,22.1a123.28,123.28,0,0,1,4,29.55c.45,37.16.18,74.32.19,111.49,0,1.91.17,3.83.26,5.83ZM140.93,178.3h-5.44c-19.49,0-39,.15-58.48-.11-4.63-.06-5.81,1.26-5.8,5.84q.23,107,.1,213.92v5.59h69.62Zm6.45-70.86c.37-22.17-17.7-40.74-40.19-41.28-22.25-.54-41,17.59-41.37,40a40.71,40.71,0,0,0,40,41.79C128.34,148.34,147,130.16,147.38,107.44Z"/></g></g></svg>