<svg xmlns="http://www.w3.org/2000/svg" viewBox="0 0 499 499"><defs><style>.cls-1{fill:#263750;}.cls-2{fill:#cdf2fc;}.cls-3{fill:none;stroke:#fff;stroke-width:23px;}</style></defs><title>node</title><g id="Layer_2" data-name="Layer 2"><g id="Layer_1-2" data-name="Layer 1"><path class="cls-1" d="M244.1,23.18c63,.88,114.75,21.08,158.22,61.86,40.63,38.12,64.41,85.69,69.51,140.46,6.31,67.61-13.58,128.22-61.14,178-44.58,46.62-99.62,70.09-164.22,70-61.65-.05-114.74-22.61-158.3-65.47C49.5,370,27.24,322.54,22.89,268.55c-5.63-69.89,16.9-131.12,66.49-180.86C132.66,44.27,186.56,24.52,244.1,23.18Zm-56,374.73a27.85,27.85,0,0,0,2.66,2.13C205.7,409,220.6,418,235.69,426.68a32.33,32.33,0,0,0,10.9,3.68c5.91,1,11.29-1.66,16.26-4.41,11.9-6.59,23.59-13.55,35.35-20.38,30.7-17.85,61.5-35.53,92-53.67a23.93,23.93,0,0,0,12.32-21.67c-.11-49-.23-98,.08-147,.08-11.78-4.88-19.82-14.57-25.49q-36.1-21.09-72.28-42c-17.63-10.25-35.34-20.36-52.87-30.78-6.67-4-14.06-6.61-21-3.81C232.33,85,223.51,90.75,214.52,96q-52.4,30.28-104.68,60.73c-11.72,6.8-17.41,16.83-17.37,30.49.13,46.66-.08,93.33.14,140,0,10.8,4.71,19.72,14.2,25.54,5.37,3.29,10.81,6.5,16.4,9.39,10.57,5.47,20.85,12,32,15.68,13.42,4.48,27.27,3.76,39.2-5.68,9.67-7.64,12.72-18.53,13-30,.5-21,.16-42,.16-63v-81c0-6.59-1.16-7.71-7.9-7.72h-7.5c-8.06,0-8.06,0-8.06,8.15q0,69.24,0,138.48c0,12.07-5,18.71-16.34,19.78a27.3,27.3,0,0,1-14.29-3.08c-11.64-6-22.92-12.77-34.08-19.65a9.24,9.24,0,0,1-3.66-6.73c-.21-48.16-.14-96.32-.2-144.49,0-3,.9-4.86,3.62-6.38,9.83-5.51,19.51-11.29,29.27-16.93C179.32,141.66,210.3,124,241,105.85c5.28-3.12,9.08-2.56,14,.3q60,35,120.23,69.53c3.46,2,4.95,4.24,4.94,8.27q-.17,71.24,0,142.49c0,4.08-1.48,6.36-4.89,8.31Q314,370,253,405.52c-3.92,2.29-6.89,2.25-10.53,0-9-5.58-18.16-11-27.32-16.37-1.49-.87-3.71-2.11-4.92-1.59C202.93,390.65,195.87,394.2,188.09,397.91Zm99-69.4c8.22-.94,16.56-1.32,24.64-2.94,14-2.81,26.72-8.35,34.26-21.56,9.63-16.88,8.49-44.38-17.39-52.1-13.38-4-27.41-5.85-41.15-8.62-10-2-20.16-3.75-30.13-6.12-4.82-1.15-7.63-4.32-7.87-10-.44-10.62,7-16,16.79-17.3,8.52-1.11,17.21-1.14,25.83-1.13a52.88,52.88,0,0,1,12.7,1.9c9.81,2.51,15.17,9.33,18,18.82.6,2,3,4.7,4.88,5a47.47,47.47,0,0,0,13.93,0c1.82-.25,4.86-3.08,4.7-4.4-2.18-17-8.33-30.78-27.14-38.27-15.9-6.32-32.55-6.63-49.1-4.93a79.09,79.09,0,0,0-24.59,7.09c-14.57,6.71-21.33,19.13-20.82,35,.53,16.33,9.9,26,25,31,14.76,5,30.26,5.21,45.38,7.87a201,201,0,0,1,25.78,6.82c4.14,1.31,5.76,5,5.76,9.52,0,10.32-4.36,16.48-14.65,19-15.54,3.83-31.27,3.61-46.88.54a37.07,37.07,0,0,1-12.22-5.17c-6.08-3.84-7.8-10.48-8.95-17.1-.54-3.09-2-4.27-5-4.2-4.33.09-8.67.14-13,0-4.08-.14-5.6,1.66-5.58,5.7.06,17.17,11.1,32.61,27.77,38.79C260.55,326.41,273.59,328.22,287.08,328.51Z"/><path class="cls-2" d="M188.09,397.91c7.78-3.71,14.84-7.26,22.1-10.35,1.21-.52,3.43.72,4.92,1.59,9.16,5.37,18.29,10.79,27.32,16.37,3.64,2.25,6.61,2.29,10.53,0q61-35.61,122.33-70.77c3.41-1.95,4.9-4.23,4.89-8.31q-.21-71.25,0-142.49c0-4-1.48-6.29-4.94-8.27Q315,141.08,255,106.15c-4.9-2.86-8.7-3.42-14-.3-30.71,18.13-61.69,35.81-92.57,53.66-9.76,5.64-19.44,11.42-29.27,16.93-2.72,1.52-3.63,3.39-3.62,6.38.06,48.17,0,96.33.2,144.49a9.24,9.24,0,0,0,3.66,6.73c11.16,6.88,22.44,13.62,34.08,19.65a27.3,27.3,0,0,0,14.29,3.08c11.32-1.07,16.34-7.71,16.34-19.78q0-69.24,0-138.48c0-8.14,0-8.14,8.06-8.15h7.5c6.74,0,7.89,1.13,7.9,7.72v81c0,21,.34,42-.16,63-.27,11.48-3.32,22.37-13,30-11.93,9.44-25.78,10.16-39.2,5.68-11.18-3.73-21.46-10.21-32-15.68-5.59-2.89-11-6.1-16.4-9.39-9.49-5.82-14.15-14.74-14.2-25.54-.22-46.66,0-93.33-.14-140,0-13.66,5.65-23.69,17.37-30.49Q162.17,126.32,214.52,96c9-5.2,17.81-11,27.37-14.82,7-2.8,14.35-.16,21,3.81,17.53,10.42,35.24,20.53,52.87,30.78q36.15,21,72.28,42c9.69,5.67,14.65,13.71,14.57,25.49-.31,49-.19,98-.08,147a23.93,23.93,0,0,1-12.32,21.67c-30.53,18.14-61.33,35.82-92,53.67-11.76,6.83-23.45,13.79-35.35,20.38-5,2.75-10.35,5.37-16.26,4.41a32.33,32.33,0,0,1-10.9-3.68C220.6,418,205.7,409,190.75,400A27.85,27.85,0,0,1,188.09,397.91Z"/><path class="cls-2" d="M287.08,328.51c-13.49-.29-26.53-2.1-39.15-6.78-16.67-6.18-27.71-21.62-27.77-38.79,0-4,1.5-5.84,5.58-5.7,4.33.15,8.67.1,13,0,3-.07,4.49,1.11,5,4.2,1.15,6.62,2.87,13.26,8.95,17.1a37.07,37.07,0,0,0,12.22,5.17c15.61,3.07,31.34,3.29,46.88-.54,10.29-2.54,14.65-8.7,14.65-19,0-4.5-1.62-8.21-5.76-9.52a201,201,0,0,0-25.78-6.82c-15.12-2.66-30.62-2.88-45.38-7.87-15.07-5.09-24.44-14.71-25-31-.51-15.86,6.25-28.28,20.82-35A79.09,79.09,0,0,1,270,186.83c16.55-1.7,33.2-1.39,49.1,4.93,18.81,7.49,25,21.3,27.14,38.27.16,1.32-2.88,4.15-4.7,4.4a47.47,47.47,0,0,1-13.93,0c-1.89-.3-4.28-3-4.88-5-2.79-9.49-8.15-16.31-18-18.82a52.88,52.88,0,0,0-12.7-1.9c-8.62,0-17.31,0-25.83,1.13-9.8,1.27-17.23,6.68-16.79,17.3.24,5.73,3.05,8.9,7.87,10,10,2.37,20.09,4.08,30.13,6.12,13.74,2.77,27.77,4.62,41.15,8.62,25.88,7.72,27,35.22,17.39,52.1-7.54,13.21-20.24,18.75-34.26,21.56C303.64,327.19,295.3,327.57,287.08,328.51Z"/><circle class="cls-3" cx="249.5" cy="249.5" r="238"/></g></g></svg>