<svg xmlns="http://www.w3.org/2000/svg" viewBox="0 0 500.5 500.5"><defs><style>.cls-1{fill:#25364f;}.cls-2{fill:#cef2fc;}.cls-3{fill:#273851;}.cls-4{fill:#ccf0fa;}.cls-5{fill:none;stroke:#fff;stroke-width:23px;}</style></defs><title>photoshop</title><g id="Layer_2" data-name="Layer 2"><g id="Layer_1-2" data-name="Layer 1"><path class="cls-1" d="M22.24,255.49c0-68.92,22.78-123.23,67-167.65,42.4-42.58,95.1-63.41,155.09-64.27,64.18-.92,119,22.18,164.22,67.68,37,37.28,58.71,82.89,63.27,134.57,6.27,71-15.68,133.51-67.36,183.91-42.64,41.58-94.23,63-153.84,63.75-62.31.82-116.37-20.65-160.78-64.19S23.42,312.06,22.24,255.49ZM119.5,248c0,37.48.08,75-.06,112.45,0,9.14,8.11,17,17.12,17q112,.1,223.91,0c8.39,0,17-8.36,17-17.2q0-111.7,0-223.41c0-8.73-8.48-17.47-17.38-17.45q-111.7.24-223.41.1c-10.19,0-17.24,7-17.24,17Z"/><path class="cls-2" d="M119.5,248V136.55c0-10,7-17,17.24-17q111.7,0,223.41-.1c8.9,0,17.38,8.72,17.38,17.45q-.07,111.7,0,223.41c0,8.84-8.63,17.19-17,17.2q-112,.07-223.91,0c-9,0-17.15-7.86-17.12-17C119.58,323,119.5,285.49,119.5,248Zm74.66,14.86c11.78-1.2,22.81-1.4,33.43-3.58,24.13-5,37.66-24,36.57-49.81-.86-20.55-17.14-37.18-39.76-40-19.07-2.34-38.16-1.5-57.24.6-4.74.52-5.92,1.95-5.9,6.59.18,43.31.11,86.62.11,129.94v5.3h32.79Zm70.54,43.8c16.38,9.85,46.9,10.44,62.63,1.55,16.21-9.16,21.47-27.84,12-43.79-4.54-7.61-12.1-11.63-20.1-14.83-5.24-2.09-10.49-4.17-15.62-6.5-3.16-1.43-5.46-4.29-3.9-7.58,1.16-2.44,4-5.21,6.46-5.64a40.45,40.45,0,0,1,13.78.41c4.63.84,9.07,2.77,13.84,4.3,1.73-6.75,3.5-13.13,4.87-19.58.27-1.27-.69-3.83-1.66-4.17-17.46-6.12-35.08-7.88-52.18.86-15.35,7.85-21.75,25.32-15,39.67,4.12,8.78,11.69,13.86,20.29,17.53,5.5,2.35,11.12,4.39,16.62,6.72,3.6,1.52,5.44,4.33,5,8.34s-3.44,5.84-6.83,6.21c-4.41.49-9.06.83-13.34-.06-7-1.45-13.83-3.95-21-6.1C268.53,291.45,266.64,299,264.7,306.67Z"/><path class="cls-3" d="M194.16,262.87v49.07H161.37v-5.3c0-43.32.07-86.63-.11-129.94,0-4.64,1.16-6.07,5.9-6.59,19.08-2.1,38.17-2.94,57.24-.6,22.62,2.79,38.9,19.42,39.76,40,1.09,25.84-12.44,44.86-36.57,49.81C217,261.47,205.94,261.67,194.16,262.87Zm.21-69.67v42.47c10.16,1.22,20,1.55,28.71-4.69,7-5,9.23-12.42,8-20.69s-5.92-13.89-14.2-15.27C209.65,193.82,202.21,193.79,194.37,193.2Z"/><path class="cls-3" d="M264.7,306.67c1.94-7.69,3.83-15.22,5.71-22.66,7.22,2.15,14,4.65,21,6.1,4.28.89,8.93.55,13.34.06,3.39-.37,6.35-2.23,6.83-6.21s-1.36-6.82-5-8.34c-5.5-2.33-11.12-4.37-16.62-6.72-8.6-3.67-16.17-8.75-20.29-17.53-6.72-14.35-.32-31.82,15-39.67,17.1-8.74,34.72-7,52.18-.86,1,.34,1.93,2.9,1.66,4.17-1.37,6.45-3.14,12.83-4.87,19.58-4.77-1.53-9.21-3.46-13.84-4.3a40.45,40.45,0,0,0-13.78-.41c-2.47.43-5.3,3.2-6.46,5.64-1.56,3.29.74,6.15,3.9,7.58,5.13,2.33,10.38,4.41,15.62,6.5,8,3.2,15.56,7.22,20.1,14.83,9.5,15.95,4.24,34.63-12,43.79C311.6,317.11,281.08,316.52,264.7,306.67Z"/><path class="cls-4" d="M194.37,193.2c7.84.59,15.28.62,22.51,1.82,8.28,1.38,13,7.11,14.2,15.27s-1,15.64-8,20.69c-8.7,6.24-18.55,5.91-28.71,4.69Z"/><circle class="cls-5" cx="250.25" cy="250.25" r="238.75"/></g></g></svg>