<svg xmlns="http://www.w3.org/2000/svg" viewBox="0 0 501 501"><defs><style>.cls-1{fill:#26374f;}.cls-2{fill:#caeff9;}.cls-3{fill:#273851;}.cls-4{fill:#273850;}.cls-5{fill:#2a3c54;}.cls-6{fill:#2b3c55;}.cls-7{fill:#2b3d55;}.cls-8{fill:#2a3b54;}.cls-9{fill:#ccf1fb;}.cls-10{fill:none;stroke:#fff;stroke-width:23px;}</style></defs><title>react</title><g id="Layer_2" data-name="Layer 2"><g id="Layer_1-2" data-name="Layer 1"><path class="cls-1" d="M255.39,473.66c-70-.24-123.56-22.51-167.46-65.86-38.59-38.11-60.69-85.58-65.08-139.58C17,195.61,41.55,132.53,94,82.83c42.45-40.22,95.25-59.8,154.4-59.35,63.25.49,117,23.76,161.26,68.86,36.41,37.12,57.72,82.38,62.2,133.5,6.27,71.38-15.94,134.14-68.09,184.61C360.39,452.44,307.9,472.87,255.39,473.66Zm86.69-171.51c4.72-1.73,10.24-3.54,15.6-5.73,16.15-6.62,31.45-14.59,42.64-28.61,9.91-12.41,10-25.86.33-38.45-7-9.22-16.25-15.83-26.51-20.76C363.26,203.35,352,199,340.42,194c.78-4,1.78-8.58,2.52-13.15,2.84-17.55,4.07-35.1-1.46-52.4-5.92-18.54-19.18-26.25-38.21-22.31-13.68,2.84-25.45,9.72-36.46,17.93-6.9,5.14-13.37,10.85-20.13,16.37-4.83-4.08-9.48-8.36-14.49-12.18-14.67-11.21-30-21.15-49.13-22.76-11.57-1-20.88,3.25-27.15,13.29-5.54,8.88-7.34,18.84-7.89,29.07-.85,15.71,1.6,31.11,5.33,46.68-4,1.34-7.81,2.52-11.53,3.83-16.92,6-33.11,13.31-45.8,26.53-13.65,14.22-14.21,29.56-1.81,44.71,8.86,10.83,20.48,18,33,23.68,8.28,3.8,16.93,6.79,25.79,10.29-.93,4.71-2,9.54-2.83,14.43-2.86,17.55-4.19,35.09,1.94,52.3,5.43,15.27,16.58,22.64,32.62,21.37a54.86,54.86,0,0,0,12.19-2.54c17.65-5.64,32.49-16,45.86-28.49,3.79-3.53,5.71-3.06,9.21.21,13.35,12.48,27.94,23.19,45.66,28.78,22.56,7.13,38.53-1.19,44.88-23.93a75.27,75.27,0,0,0,3-22.13C345.13,330,343.36,316.51,342.08,302.15Z"/><path class="cls-2" d="M342.08,302.15c1.28,14.36,3.05,27.88,3.46,41.44a75.27,75.27,0,0,1-3,22.13c-6.35,22.74-22.32,31.06-44.88,23.93-17.72-5.59-32.31-16.3-45.66-28.78-3.5-3.27-5.42-3.74-9.21-.21-13.37,12.47-28.21,22.85-45.86,28.49a54.86,54.86,0,0,1-12.19,2.54c-16,1.27-27.19-6.1-32.62-21.37-6.13-17.21-4.8-34.75-1.94-52.3.79-4.89,1.9-9.72,2.83-14.43-8.86-3.5-17.51-6.49-25.79-10.29-12.49-5.71-24.11-12.85-33-23.68-12.4-15.15-11.84-30.49,1.81-44.71,12.69-13.22,28.88-20.53,45.8-26.53,3.72-1.31,7.49-2.49,11.53-3.83-3.73-15.57-6.18-31-5.33-46.68.55-10.23,2.35-20.19,7.89-29.07,6.27-10,15.58-14.26,27.15-13.29,19.09,1.61,34.46,11.55,49.13,22.76,5,3.82,9.66,8.1,14.49,12.18,6.76-5.52,13.23-11.23,20.13-16.37,11-8.21,22.78-15.09,36.46-17.93,19-3.94,32.29,3.77,38.21,22.31,5.53,17.3,4.3,34.85,1.46,52.4-.74,4.57-1.74,9.1-2.52,13.15,11.54,5,22.84,9.34,33.72,14.59,10.26,4.93,19.46,11.54,26.51,20.76,9.64,12.59,9.58,26-.33,38.45-11.19,14-26.49,22-42.64,28.61C352.32,298.61,346.8,300.42,342.08,302.15Zm-95.43-2.1v-.15c8.66,0,17.33.22,26-.16a8.28,8.28,0,0,0,5.82-3.44q13.15-22.1,25.64-44.58a7.59,7.59,0,0,0,.1-6.32q-12.74-22.64-26.12-44.89a7.61,7.61,0,0,0-5.49-3.12q-26-.33-51.94,0a7.67,7.67,0,0,0-5.44,3.23c-8.71,14.57-17.26,29.24-25.49,44.09a9.37,9.37,0,0,0,0,7.74c8.23,14.84,16.78,29.51,25.53,44.06a8.39,8.39,0,0,0,5.91,3.35C229.65,300.26,238.16,300.05,246.65,300.05Zm-90.68-10c5.5-13.72,10.81-26.79,15.89-39.93.5-1.29-.09-3.21-.65-4.65-3.61-9.3-7.39-18.54-11-27.83-1.26-3.19-2.29-6.46-3.9-11.06-11.94,5.31-23.62,9.7-34.48,15.61-6.71,3.65-12.81,9-18,14.66-6.9,7.44-6.87,14.66-.58,22.54C116.82,276.49,136.29,283.62,156,290.05Zm81.32,57.79c-8.86-11.23-17.28-21.95-25.78-32.61-.87-1.08-2.19-2.33-3.44-2.5-13.79-1.88-27.62-3.55-42.15-5.38-1,4.82-2.2,9.95-3,15.15-2.12,14.07-3.22,28.17,1.27,42,3.85,11.89,10.78,16,22.91,13.41C207.3,373.64,222.61,361.19,237.29,347.84ZM328,306.3c-9.79,1.6-19.08,4.23-28.42,4.36-12,.17-19.39,5.33-25.44,15.18-4.72,7.69-11.22,14.29-17.53,22.12,7.78,6.09,14.92,12.7,23,17.73a109.76,109.76,0,0,0,25.13,11.74c12.93,4,20.41-.47,24.5-13.36C335.35,344.8,332.29,325.65,328,306.3ZM236.79,149.89c-9.61-9.2-19.9-17.63-31.9-23.56a83.22,83.22,0,0,0-19.12-6.88c-11.63-2.5-17.75,1.55-21.53,13s-3.51,23-2.2,34.58c.9,8,2.64,15.9,4,23.53,14.64-2.09,28.28-4,41.9-6a5.64,5.64,0,0,0,3.18-2C219.55,171.88,227.94,161.15,236.79,149.89Zm90.76,40.84c1.2-7.2,2.81-14.5,3.56-21.9,1.32-13.13,1.72-26.29-3.42-38.88-3.92-9.6-10.09-13.16-20.14-11-20.69,4.38-36.08,17.44-50.77,30.92,8.8,11.26,17.15,22,25.63,32.69A6.25,6.25,0,0,0,286,184.6C299.48,186.67,313,188.59,327.55,190.73Zm9.38,17.16c-3.31,8.81-5.49,17.54-9.72,25.13-5.91,10.62-5.7,20,.13,30.57,4.36,7.89,6.8,16.84,10.24,25.72,17.29-5.38,33.75-11.89,47.15-24.22s13.12-22.3-.78-34.15C370.37,219.35,354.16,213.05,336.93,207.89Zm-23.51,56.16c-6.82,11.88-12.9,22.47-19.67,34.29L324.54,293C320.7,283,317.28,274.11,313.42,264.05ZM199.86,298.6l-19.75-34c-3.72,10.2-7,19.26-10.58,29.07Zm113.43-65.87,10.56-28.51L293.74,199ZM247.23,338c6.65-8.24,12.72-15.74,19.22-23.78h-39ZM169.67,204.1c3.63,9.85,6.91,18.73,10.51,28.51L199.55,199ZM266.33,183l-19.64-23.41L227.43,183Z"/><path class="cls-3" d="M246.65,300.05c-8.49,0-17,.21-25.48-.16a8.39,8.39,0,0,1-5.91-3.35c-8.75-14.55-17.3-29.22-25.53-44.06a9.37,9.37,0,0,1,0-7.74c8.23-14.85,16.78-29.52,25.49-44.09a7.67,7.67,0,0,1,5.44-3.23q26-.37,51.94,0a7.61,7.61,0,0,1,5.49,3.12q13.38,22.26,26.12,44.89a7.59,7.59,0,0,1-.1,6.32q-12.51,22.46-25.64,44.58a8.28,8.28,0,0,1-5.82,3.44c-8.64.38-17.31.16-26,.16Zm.17-80.47a28.83,28.83,0,0,0-29,28.75c-.07,15.58,12.84,28.47,28.64,28.59a28.67,28.67,0,1,0,.33-57.34Z"/><path class="cls-3" d="M156,290.05c-19.68-6.43-39.15-13.56-52.8-30.66-6.29-7.88-6.32-15.1.58-22.54,5.24-5.64,11.34-11,18-14.66,10.86-5.91,22.54-10.3,34.48-15.61,1.61,4.6,2.64,7.87,3.9,11.06,3.64,9.29,7.42,18.53,11,27.83.56,1.44,1.15,3.36.65,4.65C166.78,263.26,161.47,276.33,156,290.05Z"/><path class="cls-4" d="M237.29,347.84c-14.68,13.35-30,25.8-50.17,30.08-12.13,2.57-19.06-1.52-22.91-13.41-4.49-13.84-3.39-27.94-1.27-42,.78-5.2,2-10.33,3-15.15,14.53,1.83,28.36,3.5,42.15,5.38,1.25.17,2.57,1.42,3.44,2.5C220,325.89,228.43,336.61,237.29,347.84Z"/><path class="cls-3" d="M328,306.3c4.34,19.35,7.4,38.5,1.28,57.77-4.09,12.89-11.57,17.32-24.5,13.36a109.76,109.76,0,0,1-25.13-11.74c-8.12-5-15.26-11.64-23-17.73,6.31-7.83,12.81-14.43,17.53-22.12,6.05-9.85,13.48-15,25.44-15.18C308.87,310.53,318.16,307.9,328,306.3Z"/><path class="cls-4" d="M236.79,149.89c-8.85,11.26-17.24,22-25.72,32.64a5.64,5.64,0,0,1-3.18,2c-13.62,2-27.26,3.95-41.9,6-1.31-7.63-3.05-15.53-4-23.53-1.31-11.61-1.54-23.26,2.2-34.58s9.9-15.5,21.53-13a83.22,83.22,0,0,1,19.12,6.88C216.89,132.26,227.18,140.69,236.79,149.89Z"/><path class="cls-4" d="M327.55,190.73c-14.59-2.14-28.07-4.06-41.52-6.13a6.25,6.25,0,0,1-3.62-2.07c-8.48-10.67-16.83-21.43-25.63-32.69,14.69-13.48,30.08-26.54,50.77-30.92,10.05-2.13,16.22,1.43,20.14,11,5.14,12.59,4.74,25.75,3.42,38.88C330.36,176.23,328.75,183.53,327.55,190.73Z"/><path class="cls-4" d="M336.93,207.89c17.23,5.16,33.44,11.46,47,23.05,13.9,11.85,14.19,21.8.78,34.15s-29.86,18.84-47.15,24.22c-3.44-8.88-5.88-17.83-10.24-25.72-5.83-10.55-6-19.95-.13-30.57C331.44,225.43,333.62,216.7,336.93,207.89Z"/><path class="cls-5" d="M313.42,264.05c3.86,10.06,7.28,19,11.12,29l-30.79,5.32C300.52,286.52,306.6,275.93,313.42,264.05Z"/><path class="cls-6" d="M199.86,298.6l-30.33-4.92c3.57-9.81,6.86-18.87,10.58-29.07Z"/><path class="cls-7" d="M313.29,232.73,293.74,199l30.11,5.24Z"/><path class="cls-8" d="M247.23,338l-19.81-23.78h39C260,322.28,253.88,329.78,247.23,338Z"/><path class="cls-6" d="M169.67,204.1,199.55,199l-19.37,33.6C176.58,222.83,173.3,214,169.67,204.1Z"/><path class="cls-6" d="M266.33,183h-38.9l19.26-23.41Z"/><path class="cls-9" d="M246.82,219.58a28.67,28.67,0,1,1-.33,57.34c-15.8-.12-28.71-13-28.64-28.59A28.83,28.83,0,0,1,246.82,219.58Z"/><circle class="cls-10" cx="250.5" cy="250.5" r="239"/></g></g></svg>