<svg xmlns="http://www.w3.org/2000/svg" viewBox="0 0 101 101"><defs><style>.cls-1{fill:#f3f7fa;}.cls-2{fill:#283952;}.cls-3{fill:#b0d0da;}.cls-4{fill:#c2e5ee;}.cls-5{fill:#394b61;}</style></defs><title>react</title><g id="Layer_2" data-name="Layer 2"><g id="Layer_1-2" data-name="Layer 1"><path class="cls-1" d="M64,101H36c-.09-2.38-2.28-2.11-3.64-2.73C23.6,94.32,16,89,10.28,81.07c-3.76-5.2-7.2-10.34-8.11-16.82C2,63,1.47,62,0,62V40c1.46-.08,1.93-1,2-2.32.51-6.4,3.9-11.47,7.43-16.57A46.76,46.76,0,0,1,37.18,1.71c1.23-.32,1.7-.6,1.82-1.71H61a1.94,1.94,0,0,0,1.81,2C69.6,2.82,75.23,6.07,80.67,10A48.58,48.58,0,0,1,98.3,33.36c.5,1.4.33,3.53,2.7,3.64V65a2,2,0,0,0-1.91,1.28A53.94,53.94,0,0,1,91,80.7,50.4,50.4,0,0,1,66.77,98.85C65.52,99.3,64.08,99.17,64,101ZM50.62,5A45.49,45.49,0,1,0,96,50.87,45.64,45.64,0,0,0,50.62,5Z"/><path class="cls-2" d="M50.62,5A45.49,45.49,0,1,1,5,50.13,45.62,45.62,0,0,1,50.62,5Zm2,24.75c-.72.68-1.41,1.4-2.55,1.21-3.32-4.86-7.72-7.51-13.51-6.94A10.9,10.9,0,0,0,32,31.89c-.36,3,.56,5.87.69,8.81-3.66,1.78-7.34,3-10.11,5.78-3.49,3.52-3.48,5.76-.08,9.31,2.84,3,6.77,4.08,10.31,6.08-.79,5.32-2.06,10.64,1.83,14.8,6.64,1.46,12-.13,16.68-5.14,4.36,5.78,9.93,6.3,16,5.18C71.3,72.25,69.69,67,69.49,61.8,74,59.42,79,57.68,82.14,52.33c-.42-7.72-8-8.63-13-11.93,1.08-6,2-11.84-3.42-16.24C60,23.06,56.21,26.19,52.59,29.76Z"/><path class="cls-3" d="M52.59,29.76c3.62-3.57,7.43-6.7,13.12-5.6,5.46,4.4,4.5,10.21,3.42,16.24,5,3.3,12.59,4.21,13,11.93C79,57.68,74,59.42,69.49,61.8c.2,5.19,1.81,10.45-2.08,14.91-6.12,1.12-11.69.6-16-5.18-4.71,5-10,6.6-16.68,5.14-3.89-4.16-2.62-9.48-1.83-14.8-3.54-2-7.47-3.1-10.31-6.08-3.4-3.55-3.41-5.79.08-9.31,2.77-2.79,6.45-4,10.11-5.78-.13-2.94-1-5.84-.69-8.81A10.9,10.9,0,0,1,36.53,24C42.32,23.46,46.72,26.11,50,31l-1.26,1.37c-3.42-2.2-6.42-5.29-11.22-5.23-3.91,3.64-2.28,8-2,11.89,1.64,1.45,3,.49,4.27.74l3.41,4.42c-.66,2.59-2.95,4.43-3.32,7.44,1.57,3.22,3.2,6.62,6,9.29,3.62.1,7.08.38,10.57-.18a36.57,36.57,0,0,0,5.57-9.15c-.26-3-2.59-4.84-3.29-7.4l3.39-4.43c1.25-.24,2.61.7,4.27-.78.24-3.91,2-8.44-2.14-11.89-4.36-.17-6.87,3-10.25,4.07Zm12,45.53C68.18,71.18,67,67,66,62.41c-5.52.83-10.92.7-12.33,7.77C56.8,72.61,59.72,75.28,64.64,75.29Zm-27.12.17c4.72-.21,8-2.6,11-5.79a23.59,23.59,0,0,0-5.09-6.07l-7.55-1.18C35.17,67.11,33.83,71.38,37.52,75.46ZM33.33,58.27c1.8-2.17,2.29-4.63,3.15-7-.84-2.47-1.35-5.07-3.31-7.32-4.06,1.63-8.3,2.71-10.2,7.54C25.27,55.59,29.15,57.1,33.33,58.27Zm35.3-.2c5.93-1.47,8-2.86,10.21-6.87C76.41,47,75,46,68.54,44.18c-1.63,2.11-2.34,4.63-3,7.28.73,1.83,1.44,3.69,2.22,5.51A5.33,5.33,0,0,0,68.63,58.07Z"/><path class="cls-4" d="M52.59,29.76,54,31.13c-1.12.76-.69,1.79-.49,2.79H48.4l.38-1.58L50,31C51.18,31.16,51.87,30.44,52.59,29.76Z"/><path class="cls-5" d="M58.76,44.16c.7,2.56,3,4.39,3.29,7.4a36.57,36.57,0,0,1-5.57,9.15c-3.49.56-6.95.28-10.57.18-2.77-2.67-4.4-6.07-6-9.29.37-3,2.66-4.85,3.32-7.44,1.31-1.45,2.43-3.2,4.77-3a17.94,17.94,0,0,0,5.94,0C56.33,40.93,57.44,42.71,58.76,44.16ZM51.08,56.75a6.12,6.12,0,0,0,5.53-5.47,5.77,5.77,0,0,0-5.87-5.53,5.36,5.36,0,0,0-5.14,5.62A5.66,5.66,0,0,0,51.08,56.75Z"/><path class="cls-5" d="M53.54,33.92c-.2-1-.63-2,.49-2.79,3.38-1.06,5.89-4.24,10.25-4.07,4.17,3.45,2.38,8,2.14,11.89-1.66,1.48-3,.54-4.27.78a13.49,13.49,0,0,1-7-3.26Z"/><path class="cls-5" d="M48.78,32.34l-.38,1.58L47,35.86c-1.61.27-1.67,2.26-3,2.85l-4.13,1c-1.26-.25-2.63.71-4.27-.74-.3-3.85-1.93-8.25,2-11.89C42.36,27.05,45.36,30.14,48.78,32.34Z"/><path class="cls-5" d="M64.64,75.29c-4.92,0-7.84-2.68-10.94-5.11,1.41-7.07,6.81-6.94,12.33-7.77C67,67,68.18,71.18,64.64,75.29Z"/><path class="cls-5" d="M37.52,75.46c-3.69-4.08-2.35-8.35-1.63-13l7.55,1.18a23.59,23.59,0,0,1,5.09,6.07C45.54,72.86,42.24,75.25,37.52,75.46Z"/><path class="cls-5" d="M33.33,58.27C29.15,57.1,25.27,55.59,23,51.48c1.9-4.83,6.14-5.91,10.2-7.54,2,2.25,2.47,4.85,3.31,7.32C35.62,53.64,35.13,56.1,33.33,58.27Z"/><path class="cls-5" d="M68.63,58.07a5.33,5.33,0,0,1-.91-1.1c-.78-1.82-1.49-3.68-2.22-5.51.7-2.65,1.41-5.17,3-7.28C75,46,76.41,47,78.84,51.2,76.61,55.21,74.56,56.6,68.63,58.07Z"/><path class="cls-4" d="M39.85,39.74l4.13-1c1.37-.59,1.43-2.58,3-2.85l1,5.26c-2.34-.16-3.46,1.59-4.77,3Z"/><path class="cls-4" d="M55.13,36.47a13.49,13.49,0,0,0,7,3.26l-3.39,4.43c-1.32-1.45-2.43-3.23-4.79-3Z"/><path class="cls-3" d="M55.13,36.47,54,41.12a17.94,17.94,0,0,1-5.94,0l-1-5.26,1.38-1.94h5.14Z"/><path class="cls-4" d="M51.08,56.75a5.66,5.66,0,0,1-5.48-5.38,5.36,5.36,0,0,1,5.14-5.62,5.77,5.77,0,0,1,5.87,5.53A6.12,6.12,0,0,1,51.08,56.75Z"/></g></g></svg>