<svg xmlns="http://www.w3.org/2000/svg" viewBox="0 0 42 72">
  <defs>
    <linearGradient id="grad" x1="0%" y1="0%" x2="0%" y2="100%">
      <stop offset="0%" style="stop-color:#10233e;stop-opacity:1"/>
      <stop offset="100%" style="stop-color:#25364f;stop-opacity:1"/>
    </linearGradient>
  </defs>
  <title>right-arrow</title>
  <g id="Layer_2" data-name="Layer 2">
    <g id="Layer_1-2" data-name="Layer 1"><path
      fill="url(#grad)"
      d="M9,72H0V64c3.43-3,7-5.82,10.26-9,6.27-6.12,12.34-12.44,18.79-19C23,30,17.56,24.46,12,19,8.07,15.26,4,11.67,0,8V0H9a8.4,8.4,0,0,0,1.14,2Q24.83,16.86,39.58,31.6A11.26,11.26,0,0,0,42,33v6a10.15,10.15,0,0,0-2.45,1.35Q25,54.71,10.57,69.16A12,12,0,0,0,9,72Z"/></g>
  </g>
</svg>
