<svg xmlns="http://www.w3.org/2000/svg" viewBox="0 0 101 101"><defs><style>.cls-1{fill:#f4f7fa;}.cls-2{fill:#273750;}.cls-3{fill:#e7ebf2;}.cls-4{fill:#d2e2f4;}.cls-5{fill:#263633;}.cls-6{fill:#2b3a71;}.cls-7{fill:#a6c8e9;}.cls-8{fill:#949ef2;}.cls-9{fill:#fabe07;}.cls-10{fill:#fe641a;}.cls-11{fill:#f13000;}.cls-12{fill:#fbd931;}.cls-13{fill:#727dc6;}.cls-14{fill:#747fe9;}.cls-15{fill:#45558d;}</style></defs><title>visual</title><g id="Layer_2" data-name="Layer 2"><g id="Layer_1-2" data-name="Layer 1"><path class="cls-1" d="M39,0H61a1.72,1.72,0,0,0,1.37,1.74A57.3,57.3,0,0,1,73.23,5.38C83.08,10.29,89.94,17.83,95.72,27,97.79,30.23,97,34.89,101,37V64c-.46.16-1.27.23-1.34.51C97.85,71,94.43,76.45,90.32,81.69A57.56,57.56,0,0,1,75,95.23c-3.55,2.2-8.1,2.39-11,5.77H37a2.26,2.26,0,0,0-1.82-2C18.46,93.12,7,82.17,2.36,64.72,2,63.47,1.8,62,0,62V40c1.44-.11,1.93-1,2-2.32.5-6.58,4-11.78,7.72-16.91C16.27,11.85,24.16,5,35.33,2.67,36.75,2.37,38.84,2.33,39,0ZM50.46,5A45.49,45.49,0,1,0,96,50.71,45.66,45.66,0,0,0,50.46,5Z"/><path class="cls-2" d="M50.46,5A45.49,45.49,0,1,1,5,50.29,45.61,45.61,0,0,1,50.46,5Zm8.36,68.07L59,67c4.28,0,8.56,0,12.84-.06,6.32,0,6.32,0,6.06-6.53,0-10.16,0-20.32.18-30.48.07-3.68-1.3-5.05-5-5-7.66.18-15.33.05-23,.05-7.46,0-14.92.1-22.37,0-3.35-.06-4.82,1.11-4.76,4.61.17,10.27.14,20.54.19,30.81-.32,6.54-.32,6.54,6.11,6.55l12.88,0c.48,3.27,1.6,6.91-4.06,6.35-.91-.1-2.11.43-1.88,1.73s1.54,1,2.43,1c6.8,0,13.61.11,20.41-.06,2-.05,5.58,1.12,5.55-1C64.54,71.85,60.79,73.89,58.82,73.08Z"/><path class="cls-3" d="M42.14,67l-12.88,0c-6.43,0-6.43,0-6.11-6.55L26,60.07l.48,0L27,60l4.18.07,4.81,0,5,0h3.12l5.93,0,1,.44-.06,6.42Z"/><path class="cls-4" d="M50.94,66.94,51,60.52l6-.43,4.2,0,7.51.08,6.15,0,3,.29c.26,6.52.26,6.51-6.06,6.53-4.28,0-8.56,0-12.84.06L51,67Z"/><path class="cls-5" d="M77.87,60.4l-3-.29c0-9.45,0-18.89,0-28.33,0-2.33-.27-3.74-3.16-3.64-7,.23-13.9.21-20.86.28q-.4-.24-.84-.45l0-3c7.66,0,15.33.13,23-.05,3.67-.08,5,1.29,5,5C77.86,40.08,77.91,50.24,77.87,60.4Z"/><path class="cls-6" d="M50.09,25l0,3c-6.81.07-13.63.24-20.45.16-2.54,0-3.54.67-3.48,3.37.18,9.14.15,18.29.2,27.44L26,60.07l-2.88.31c0-10.27,0-20.54-.19-30.81-.06-3.5,1.41-4.67,4.76-4.61C35.17,25.1,42.63,25,50.09,25Z"/><path class="cls-4" d="M42.14,67h8.8L51,67c-.94,4.79,1.06,6.71,5.82,6a10.87,10.87,0,0,1,2,.06c2,.81,5.72-1.23,5.77,1.85,0,2.12-3.6.95-5.55,1-6.8.17-13.61.1-20.41.06-.89,0-2.2.41-2.43-1s1-1.83,1.88-1.73C43.74,73.86,42.62,70.22,42.14,67Z"/><path class="cls-7" d="M58.82,73.08a10.87,10.87,0,0,0-2-.06c-4.76.72-6.76-1.2-5.82-6L59,67Z"/><path class="cls-8" d="M26.33,58.94c0-9.15,0-18.3-.2-27.44-.06-2.7.94-3.4,3.48-3.37,6.82.08,13.64-.09,20.45-.16q.44.21.84.45v2.64c-3.24,1.34-9.06.22-6.64,7v3l0,3.09v3.84l0,3.1v3l-.21,6.09H40.94c-1.79-5.27-1-10.58-.22-15.88q-1.29-5-2.6-10c-.29-1.11-.5-2.47-1.88-2.61s-1.82,1.28-2.1,2.34c-.86,3.34-2.32,6.55-2.2,10.1-1.73,5.28-.25,10.72-.79,16.07L27,60C26.75,59.65,26.54,59.29,26.33,58.94Z"/><path class="cls-9" d="M44.3,47.91c0-1.28,0-2.56,0-3.84,1.83-.59,5.27,1.2,5.26-1.57s-3.45-1-5.29-1.52V38c2.18-.85,6.1,1.89,6.47-2.21.32-3.6,2.17-3.92,4.77-4.05,2.44.65,1.46,2.66,1.48,4.1.08,8.08,0,16.15,0,24.23l-6,.43-1-.44c.87-4.63-.78-6.92-5.72-6.11,0-1,0-2,0-3,1.84-.55,5.27,1.19,5.29-1.51S46.12,48.51,44.3,47.91Z"/><path class="cls-10" d="M31.15,60.07c.54-5.35-.94-10.79.79-16.07l4.11.45L36,60.1Z"/><path class="cls-11" d="M36,60.1l.09-15.65,2-.11c.32.47.65.46,1,0l1.73-.14c-.82,5.3-1.57,10.61.22,15.88Z"/><path class="cls-12" d="M44.27,54c4.94-.81,6.59,1.48,5.72,6.11l-5.93,0Z"/><path class="cls-13" d="M26.33,58.94c.21.35.42.71.64,1.06l-.46.12-.48,0Z"/><path class="cls-14" d="M57,60.09c0-8.08,0-16.15,0-24.23,0-1.44,1-3.45-1.48-4.1l-4.6-.7V28.42c7-.07,13.91-.05,20.86-.28,2.89-.1,3.18,1.31,3.16,3.64-.08,9.44,0,18.88,0,28.33l-6.15,0a56.37,56.37,0,0,0,0-12.25c0-1.47,1.26-2.26,1.8-3.42,1.9-4.1-.16-7.29-2.5-10.4-1.15-1.52-2.29-3-4.34-1.15-5.69,5.4-6.29,8.9-2.41,14q0,6.57-.05,13.14Z"/><path class="cls-9" d="M61.22,60.05q0-6.57.05-13.14c1.32-.62,2.36,2.54,3.8.29,1.4-.74,2.29,1.21,3.65.68a56.37,56.37,0,0,1,0,12.25Z"/><path class="cls-3" d="M38,44.34l-2,.11L31.94,44c-.12-3.55,1.34-6.76,2.2-10.1.28-1.06.61-2.48,2.1-2.34s1.59,1.5,1.88,2.61q1.32,5,2.6,10L39,44.33Z"/><path class="cls-12" d="M50.9,31.06l4.6.7c-2.6.13-4.45.45-4.77,4.05-.37,4.1-4.29,1.36-6.47,2.21C41.84,31.28,47.66,32.4,50.9,31.06Z"/><path class="cls-12" d="M44.26,41c1.84.56,5.27-1.19,5.29,1.52s-3.43,1-5.26,1.57Z"/><path class="cls-12" d="M44.3,47.91c1.82.6,5.27-1.2,5.25,1.59s-3.45,1-5.29,1.51C44.27,50,44.29,49,44.3,47.91Z"/><path class="cls-10" d="M38,44.34h1C38.67,44.8,38.34,44.81,38,44.34Z"/><path class="cls-6" d="M68.72,47.88c-1.36.53-2.25-1.42-3.65-.68-.89-4.72,1.54-9.77-1.39-14.29,2.05-1.88,3.19-.37,4.34,1.15,2.34,3.11,4.4,6.3,2.5,10.4C70,45.62,68.7,46.41,68.72,47.88Z"/><path class="cls-15" d="M63.68,32.91c2.93,4.52.5,9.57,1.39,14.29-1.44,2.25-2.48-.91-3.8-.29C57.39,41.81,58,38.31,63.68,32.91Z"/></g></g></svg>