<svg xmlns="http://www.w3.org/2000/svg" viewBox="0 0 473.64 473.64"><defs><style>.cls-1{fill:#25364f;}.cls-2{fill:#2c3b72;}.cls-3{fill:#293939;}.cls-4{fill:#ecf4fe;}.cls-5{fill:#d6e8fe;}.cls-6{fill:#d1e2f8;}.cls-7{fill:#accff0;}.cls-8{fill:#ebf3fd;}.cls-9{fill:#d6e7fd;}.cls-10{fill:#979eec;}.cls-11{fill:#24342d;}.cls-12{fill:#727de2;}.cls-13{fill:#fe651c;}.cls-14{fill:#ef3800;}.cls-15{fill:#fdd932;}.cls-16{fill:#fcbe01;}.cls-17{fill:#f9bd08;}.cls-18{fill:#fd9001;}.cls-19{fill:#fed92d;}.cls-20{fill:#facdd2;}.cls-21{fill:#fbe3e3;}.cls-22{fill:#fed82c;}.cls-23{fill:#47568c;}.cls-24{fill:#2c3b73;}.cls-25{fill:none;stroke:#fff;stroke-width:23px;}</style></defs><title>visualdesign_1</title><g id="Layer_2" data-name="Layer 2"><g id="Layer_1-2" data-name="Layer 1"><path class="cls-1" d="M11.5,219.92c.28-46.39,23.16-100.49,67.44-144.61,43-42.81,96.22-63.41,156.8-63.8,60.18-.4,112.31,20.69,156.12,61.87,40.46,38,64.07,85.52,69.15,140.11,6.29,67.61-13.6,128.2-61.16,178-44.31,46.35-99,69.82-163.23,70-62,.2-115.71-22.11-159.21-65.55C37.84,356.41,11.85,305,11.5,219.92ZM237.66,360.3c20.63.05,41.26.15,61.89.13,4.85,0,8-3.22,8-7.67s-3.15-7.55-8.06-7.61c-7.49-.09-15,0-22.46.07l-.51-30.82c4.15-.11,8.3-.3,12.46-.31,23.81,0,47.62,0,71.43-.09,7.23,0,9.26-2.12,9.27-9.16s0-14.32,0-21.48l0-160.28c0-8.27-2.36-10.61-10.68-10.61q-60.66,0-121.33,0-61,0-122,0c-8,0-10,2-10,10v181.4c0,8.16,2.06,10.22,10.37,10.23,20,0,39.92,0,59.88,0,7.64,0,15.27.21,22.91.32l-.51,30.84c-7.47,0-14.94-.2-22.4-.09-4.82.07-8.1,3.37-8.1,7.64s3.31,7.62,8.11,7.62C196.51,360.45,217.08,360.35,237.66,360.3Z"/><path class="cls-2" d="M105.67,283.38V122.44c0-8,2-10,10-10q61,0,122,0l.06,14-.11,1.1H120.75v6.54q0,71.46,0,142.92c0,2-.25,4-.38,5.95Z"/><path class="cls-3" d="M237.72,126.49l-.06-14q60.66,0,121.33,0c8.32,0,10.68,2.34,10.68,10.61l0,160.28-14.83-.44c-.09-1.83-.26-3.65-.26-5.47q0-71.7,0-143.4v-6.31c-8.74,0-16.86,0-25,0l-90.92-.2Z"/><path class="cls-4" d="M105.67,283.38l14.69-.38,24.41-.05,23-.24,23.31-.32,15.7.6,30.9.42q0,15.49,0,31h-38.8c-7.64-.11-15.27-.3-22.91-.32-20,0-39.92,0-59.88,0-8.31,0-10.36-2.07-10.37-10.23Z"/><path class="cls-5" d="M237.63,314.4q0-15.5,0-31a1.12,1.12,0,0,0,0-.7l31,.17,23.31,0,15.74-.15,15.08.19,32.1,0,14.84.44q0,10.74,0,21.48c0,7-2,9.14-9.27,9.16-23.81.07-47.62,0-71.43.09-4.16,0-8.31.2-12.46.31l-38.82.09Z"/><path class="cls-6" d="M198.83,314.41h38.8l.06.09q0,15.45,0,30.89l-39.41-.13Z"/><path class="cls-7" d="M237.73,345.38q0-15.45,0-30.89l38.82-.09.51,30.82-39.29.19Z"/><path class="cls-8" d="M198.32,345.25l39.41.13v0q0,7.44-.07,14.89c-20.58.05-41.15.15-61.73.12-4.8,0-8.1-3.32-8.11-7.62s3.28-7.57,8.1-7.64C183.38,345.05,190.85,345.21,198.32,345.25Z"/><path class="cls-9" d="M237.66,360.3q0-7.44.07-14.89l39.29-.19c7.49,0,15-.16,22.46-.07,4.91.06,8,3.16,8.06,7.61s-3.14,7.67-8,7.67C278.92,360.45,258.29,360.35,237.66,360.3Z"/><path class="cls-10" d="M144.77,283l-24.41.05c.13-2,.38-4,.38-5.95q0-71.46,0-142.92v-6.54H237.61l-.1.35.15,15.31,0,.37c-7.63-.07-15.27-.25-22.9-.15-5.11.07-8,3-8.09,8.12-.1,7.63.08,15.27.14,22.9q0,7.48,0,15,0,8,0,16,0,7.5,0,15,0,8,0,16l0,15q0,15.75-.07,31.51l-15.7-.59c0-12.59,0-25.18,0-37.76-.05-13.08-.2-26.15-.31-39.22a6.15,6.15,0,0,0-.05-1.49c-5.13-18.39-10.2-36.78-15.47-55.13a6.82,6.82,0,0,0-7.55-5.22c-3.9,0-6.09,2.15-7.12,5.68-2.24,7.61-4.51,15.21-6.59,22.86-2.9,10.67-5.65,21.37-8.47,32.06l-.69,1.33Z"/><path class="cls-11" d="M237.72,126.49l1,1.05-1.17.4.1-.35C237.65,127.22,237.69,126.86,237.72,126.49Z"/><path class="cls-12" d="M237.51,127.94l1.17-.4,90.92.2c8.13,0,16.25,0,25,0v6.31q0,71.7,0,143.4c0,1.82.17,3.64.26,5.47l-32.11,0q0-32.81,0-65.63l3.91-3.05c11.15-8.74,15.39-23.57,8.64-36-5.66-10.41-13-19.94-20-29.56-1.67-2.29-5-3.37-7.55-5-2.3,1.07-5.37,1.55-6.75,3.33-6.67,8.62-13.36,17.3-19.14,26.52-7.23,11.52-7.56,23.54.87,34.82,2.52,3.39,6.07,6,9.16,9l.05,65.55-23.31,0q0-65.15,0-130.3c0-6.4-2.71-9.08-9.05-9.15-7.32-.08-14.64-.12-22-.18Z"/><path class="cls-13" d="M144.77,283l0-77.44a1.83,1.83,0,0,0,.89-.22l22-.07-.09.46q0,38.52.1,77Z"/><path class="cls-14" d="M167.74,282.71q0-38.52-.1-77l23.1-.26c.11,13.07.26,26.14.31,39.22,0,12.58,0,25.17,0,37.76Z"/><path class="cls-15" d="M206.75,283q0-15.75.07-31.51c6.15,0,12.3,0,18.46,0,4.45,0,9.26,1.08,12.34-5.75v37a1.12,1.12,0,0,1,0,.7Z"/><path class="cls-16" d="M237.62,282.71v-37c-3.08,6.83-7.89,5.73-12.34,5.75-6.16,0-12.31,0-18.46,0l0-15c6.48,0,13-.32,19.42.09,3.81.25,7.54,1.66,11.14,2.51V218.44c-4,.7-7.79,1.77-11.65,2-6.3.32-12.62.07-18.93.07q0-7.5,0-15c6.63,0,13.29-.32,19.89.09,3.65.23,7.21,1.66,10.67,2.51V187c-3.38.83-6.75,2.2-10.19,2.39-6.78.38-13.59.1-20.39.09q0-7.49,0-15c6.48,0,13-.33,19.43.09,3.81.25,7.54,1.66,11.42,2.58V143.62l0-.37c7.32.06,14.64.1,22,.18,6.34.07,9.05,2.75,9.05,9.15q0,65.16,0,130.3Z"/><path class="cls-17" d="M291.94,282.86l-.06-65.55,15.8,3.7v61.7Z"/><path class="cls-18" d="M307.68,282.71V221l.07-.38,15-3.36q0,32.82,0,65.63Z"/><path class="cls-19" d="M237.7,143.62v33.54c-3.88-.92-7.61-2.33-11.42-2.58-6.45-.42-12.95-.1-19.43-.09-.06-7.63-.24-15.27-.14-22.9.07-5.12,3-8.05,8.09-8.12C222.43,143.37,230.07,143.55,237.7,143.62Z"/><path class="cls-20" d="M190.74,205.42l-23.1.26.09-.46-.06-61.64a6.82,6.82,0,0,1,7.55,5.22c5.27,18.35,10.34,36.74,15.47,55.13A6.15,6.15,0,0,1,190.74,205.42Z"/><path class="cls-21" d="M167.67,143.58l.06,61.64-22,.07-.2-1.11c2.82-10.69,5.57-21.39,8.47-32.06,2.08-7.65,4.35-15.25,6.59-22.86C161.58,145.73,163.77,143.56,167.67,143.58Z"/><path class="cls-22" d="M206.83,189.47c6.8,0,13.61.29,20.39-.09,3.44-.19,6.81-1.56,10.19-2.39v21.1c-3.46-.85-7-2.28-10.67-2.51-6.6-.41-13.26-.1-19.89-.09Q206.84,197.48,206.83,189.47Z"/><path class="cls-22" d="M206.83,220.48c6.31,0,12.63.25,18.93-.07,3.86-.2,7.68-1.27,11.65-2v20.65c-3.6-.85-7.33-2.26-11.14-2.51-6.45-.41-12.94-.1-19.42-.09Q206.84,228.48,206.83,220.48Z"/><path class="cls-20" d="M145.49,204.18l.2,1.11a1.83,1.83,0,0,1-.89.22Z"/><path class="cls-23" d="M307.68,221l-15.8-3.7c-3.08-3-6.63-5.59-9.15-9-8.43-11.28-8.1-23.3-.87-34.82,5.78-9.22,12.47-17.9,19.14-26.52,1.38-1.78,4.45-2.26,6.74-3.33q0,38.47,0,77Z"/><path class="cls-24" d="M307.75,220.63q0-38.49,0-77c2.57,1.64,5.89,2.72,7.56,5,7,9.62,14.34,19.15,20,29.56,6.75,12.42,2.51,27.25-8.64,36l-3.91,3.05Z"/><circle class="cls-25" cx="236.82" cy="236.82" r="225.32"/></g></g></svg>