<svg xmlns="http://www.w3.org/2000/svg" viewBox="0 0 96.83 96.83"><defs><style>.cls-1{fill:#273750;}.cls-2{fill:#f4f7fa;}.cls-3{fill:#949ef2;}.cls-4{fill:#747fe9;}.cls-5{fill:#a6c8e9;}.cls-6{fill:#fabe07;}.cls-7{fill:#f13000;}.cls-8{fill:#fe9000;}.cls-9{fill:#fed72a;}.cls-10{fill:#fe5500;}.cls-11{fill:#ea7652;}.cls-12{fill:#45558c;}.cls-13{fill:#fe641a;}.cls-14{fill:none;stroke:#fff;stroke-width:6px;}</style></defs><title>Asset 4</title><g id="Layer_2" data-name="Layer 2"><g id="Layer_1-2" data-name="Layer 1"><path class="cls-1" d="M48.74,3a45.49,45.49,0,0,1-.19,91C23.41,94,3.22,73.35,3,48.15,2.78,22.43,24.42,2.86,48.74,3ZM24.41,57l-.29,1.1c-3.24-.16-3.11,2-3.06,4.26.06,2.43,1.65,2.53,3.4,2.53H40.32c.29,2.41.74,4.32-.14,5.89-2.11,1.09-5-.51-6.31,2.69H63.45c-1.93-3.19-4.62-1.6-6.6-2.33l.16-6.2H75.35C76.72,61.17,76,59,72.8,58V26.47H24.41Z"/><path class="cls-2" d="M72.8,58c3.24,1,3.92,3.16,2.55,6.92H57c-1.64,0-3.28.08-4.91,0-2.32-.1-3.19,1-3.14,3.24,0,2.1.95,3,3,2.9,1.63,0,3.27,0,4.91.06,2,.73,4.67-.86,6.6,2.33H33.87c1.35-3.2,4.2-1.6,6.31-2.69.88-1.57.43-3.48.14-5.89H24.46c-1.75,0-3.34-.1-3.4-2.53,0-2.27-.18-4.42,3.06-4.26l1-.05,4,.1.47.1.47-.13,4,0,5,0h3.16l5.89,0,7,.1,4.4,0L63,58.08l3.68.09Z"/><path class="cls-3" d="M29.1,58.14l-4-.1-.7-1V26.47H49c0,.86,0,1.73,0,2.59-1.84,1.83-4.55.07-6.63,1.61V39l0,3.08v3.85l0,3.09v3c-.06,2-.13,4.09-.19,6.14H39c-1.81-5.31-.92-10.67-.27-16-1.07-4.34-1.7-8.86-4.59-13.72a31.34,31.34,0,0,0-4.08,13.45,1.08,1.08,0,0,0-.24.84l-.13.16c-.78.66-.59,1.44-.28,2.23V55.93Z"/><path class="cls-4" d="M49,29.06c0-.86,0-1.73,0-2.59H72.8V58l-6.08.14a38.89,38.89,0,0,0-.11-12.37c.65-1.14,1.38-2.24,1.93-3.43,1.7-3.72.14-6.8-2.11-9.66-1.14-1.45-2-3.94-4.59-1.77-5.36,3.36-6.36,8.92-2.5,14a65.09,65.09,0,0,0,.08,13.24l-4.4,0c0-8.25.08-16.51,0-24.76,0-1.32.78-3.13-1.45-3.62Z"/><path class="cls-5" d="M56.85,71.13c-1.64,0-3.28-.1-4.91-.06-2,.05-2.94-.8-3-2.9-.05-2.28.82-3.34,3.14-3.24,1.63.08,3.27,0,4.91,0C57,67,56.9,69.06,56.85,71.13Z"/><path class="cls-4" d="M24.41,57l.7,1-1,.05C24.22,57.72,24.32,57.36,24.41,57Z"/><path class="cls-6" d="M53.61,29.8c2.23.49,1.44,2.3,1.45,3.62,0,8.25,0,16.51,0,24.76l-7-.1c-.17-1.92.64-4-1-6.12H42.35c0-1,0-2,0-3,1.87-.42,4.23,1,5.85-1.69-1.63-2.09-3.92-1.05-5.81-1.4,0-1.28,0-2.57,0-3.85,1.86-.47,4.25,1,5.82-1.79-1.7-2-3.94-1-5.85-1.29V36c2.07-.29,4.29.56,6.35-.79l.81-4.87Z"/><path class="cls-7" d="M38.72,42.09c-.64,5.35-1.53,10.71.28,16l-5,0c0-.37,0-.74,0-1.1L34,44l.07-1.54L36,42.2c.37.64.73.66,1.09,0Z"/><path class="cls-6" d="M59.42,58.14a65.09,65.09,0,0,1-.08-13.24c1.39-.24,2.19,1.68,3.7,1Q63,52,63,58.08Z"/><path class="cls-8" d="M63,58.08Q63,52,63,45.93l0,0,1-.82,2.59.63a38.89,38.89,0,0,1,.11,12.37Z"/><path class="cls-9" d="M42.35,52H47c1.69,2.15.88,4.2,1,6.12l-5.89,0C42.22,56.05,42.29,54,42.35,52Z"/><path class="cls-10" d="M34,57c0,.36,0,.73,0,1.1l-4,0-.63-2.18V45.05a1.92,1.92,0,0,0,.28-2.23l.13-.16,1.81.27,1.15-.27,1.3-.18c0,.51,0,1-.07,1.54-1.13.06-2.65-.09-2.74,1.36a91.51,91.51,0,0,0,0,10.21C31.35,57.05,32.87,56.9,34,57Z"/><path class="cls-11" d="M29.41,55.93,30,58.11l-.47.13-.47-.1C29.21,57.4,29.31,56.67,29.41,55.93Z"/><path class="cls-2" d="M34.08,42.48l-1.3.17-1.55-.24-1.17-.59a31.34,31.34,0,0,1,4.08-13.45c2.89,4.86,3.52,9.38,4.59,13.72l-1.62.1H36Z"/><path class="cls-9" d="M53.61,29.8l-4.11.55-.81,4.87c-2.06,1.35-4.28.5-6.35.79V30.67c2.08-1.54,4.79.22,6.63-1.61Z"/><path class="cls-9" d="M42.34,39c1.91.29,4.15-.66,5.85,1.29-1.57,2.76-4,1.32-5.82,1.79Z"/><path class="cls-9" d="M42.38,45.91c1.89.35,4.18-.69,5.81,1.4-1.62,2.64-4,1.27-5.85,1.69C42.35,48,42.37,46.94,42.38,45.91Z"/><path class="cls-11" d="M29.69,42.82a1.92,1.92,0,0,1-.28,2.23C29.1,44.26,28.91,43.48,29.69,42.82Z"/><path class="cls-11" d="M30.06,41.82l1.17.59a5.12,5.12,0,0,1,.4.52l-1.81-.27A1.08,1.08,0,0,1,30.06,41.82Z"/><path class="cls-1" d="M66.61,45.79,64,45.16a1,1,0,0,0-.78-.06c-.94-4.68,1.47-9.69-1.4-14.17,2.58-2.17,3.45.32,4.59,1.77,2.25,2.86,3.81,5.94,2.11,9.66C68,43.55,67.26,44.65,66.61,45.79Z"/><path class="cls-12" d="M61.84,30.93c2.87,4.48.46,9.49,1.4,14.17L63,46l0,0c-1.51.65-2.31-1.27-3.7-1C55.48,39.85,56.48,34.29,61.84,30.93Z"/><path class="cls-13" d="M34,57c-1.12-.06-2.64.09-2.72-1.37a91.51,91.51,0,0,1,0-10.21c.09-1.45,1.61-1.3,2.74-1.36Q34,50.49,34,57Z"/><path class="cls-11" d="M36,42.2h1.09C36.75,42.86,36.39,42.84,36,42.2Z"/><path class="cls-6" d="M63,46l.24-.88a1,1,0,0,1,.78.06Z"/><path class="cls-7" d="M31.63,42.93a5.12,5.12,0,0,0-.4-.52l1.55.24Z"/><circle class="cls-14" cx="48.42" cy="48.42" r="45.42"/></g></g></svg>