<svg id="Layer_1" data-name="Layer 1" xmlns="http://www.w3.org/2000/svg" viewBox="0 0 491.09 491.8"><defs><style>.cls-1{fill:#fefefe;}.cls-2{fill:#f8fbfe;stroke:#f7fcfe;stroke-miterlimit:10;stroke-width:20px;}.cls-3{fill:#25364f;}.cls-4{fill:#cef3fd;}</style></defs><title>xd</title><path class="cls-1" d="M250,.1Q358.95.1,467.91,0c3.42,0,4.09.67,4.09,4.1q-.17,231.9,0,463.81c0,3.42-.67,4.1-4.09,4.09q-108.46-.19-216.91-.1c.32-2.74,2.59-2.11,4.19-2.24a226.29,226.29,0,0,0,88.61-25.73q61.36-32.46,95.77-93a223.32,223.32,0,0,0,28.72-90.27c6.2-66.13-11.47-125.3-54.47-176.3C382.19,46.86,342.36,21.9,295,9.14a196,196,0,0,0-40.82-6.79C252.59,2.25,250.32,2.84,250,.1Z" transform="translate(9.9 9.9)"/><path class="cls-2" d="M250,.1c4.62,2.28,9.72,1.15,14.57,1.78a244.22,244.22,0,0,1,63.56,17.27,224.73,224.73,0,0,1,56.76,34.62A236.25,236.25,0,0,1,467.55,195.7a216.61,216.61,0,0,1,3.25,52.53c-2.17,34.13-10.62,66.68-26.6,97.07A236,236,0,0,1,264.07,470.15c-4.33.53-9-.54-13.07,1.75H219c-4.19-1.28-8.54-.5-12.81-.88-30.21-2.7-58.16-12.48-84.7-26.66A238.26,238.26,0,0,1,15.91,327.06,261,261,0,0,1,2.15,281.7C.84,275.51,1.34,269.16.1,263V209c.89-16.88,4.75-33.17,10.19-49.1A234.53,234.53,0,0,1,66,69.74C101.14,34.11,143.32,12,192.36,2.61a138.45,138.45,0,0,1,20.82-2c2.28-.09,4.63.55,6.85-.49Z" transform="translate(9.9 9.9)"/><path class="cls-1" d="M220,.1c-4.62,2.28-9.72,1.13-14.56,1.78a248,248,0,0,0-64.89,17.91C109,33.29,82.15,53.29,59.27,78.54A225.91,225.91,0,0,0,15.2,150.15C8.14,168.63,3,187.59,1,207.33c-.06.58-.6,1.12-.91,1.68Q.09,106.68,0,4.33C0,.71.76,0,4.34,0Q112.19.2,220,.1Z" transform="translate(9.9 9.9)"/><path class="cls-1" d="M.1,263c1.32,6.92,2.57,13.84,4,20.75a229.46,229.46,0,0,0,42.33,94,235.72,235.72,0,0,0,68.87,61.66A224.54,224.54,0,0,0,199.11,469c6.64.92,13.27,2,19.9,2.94q-107.46,0-214.91.1C.68,472,0,471.37,0,468Q.2,365.46.1,263Z" transform="translate(9.9 9.9)"/><path class="cls-3" d="M234.51,461C110.44,461,9.9,360.16,10,235.88,10.09,111.1,110.63,11,235.75,11,359.75,11,460.3,112.15,460,236.35A224.69,224.69,0,0,1,234.51,461Z" transform="translate(9.9 9.9)"/><path class="cls-4" d="M235.29,106.05h87.94c24.16,0,45.47,20.43,45.59,44.59q.4,85.7,0,171.4c-.13,24.39-21.59,44.75-46.64,44.8q-87.19.2-174.4,0a45.93,45.93,0,0,1-7.93-.78A46.83,46.83,0,0,1,101.1,320q-.12-83.7,0-167.41a46.36,46.36,0,0,1,46.2-46.52h.53Z" transform="translate(9.9 9.9)"/><path class="cls-3" d="M315.07,227.44q0,27.45.06,54.89c0,1.82-.56,2.82-2.09,3.47-15.37,6.49-31,8.77-46.93,2.26-9.08-3.72-15.35-10.57-18.83-19.62-5.52-14.35-6-29,.25-43.19,8-18.2,22.91-26,42.29-25.84,3.18,0,4.26-.53,4.13-3.92-.28-7.47,0-15-.14-22.45-.05-2.85.52-4.31,3.8-4.13a126.09,126.09,0,0,0,13.47,0c3.29-.19,3.8,1.28,3.78,4.13-.1,18.13-.05,36.27-.05,54.4Z" transform="translate(9.9 9.9)"/><path class="cls-3" d="M193.55,244.67c-6.34,13.54-12.77,27-18.93,40.61-1.57,3.46-3.37,5.24-7.44,4.83a78.79,78.79,0,0,0-12.48,0c-4.26.24-4.4-1.19-2.62-4.52,9.14-17.18,18.08-34.47,27.26-51.62a7.8,7.8,0,0,0,.08-8.23c-8.73-17-17.2-34.18-25.76-51.3C151,169,151,169,157.18,169c2.5,0,5.08.41,7.48-.07,7.74-1.56,11,2.43,13.78,9,5,12.06,10.95,23.75,16.76,36.16,6.49-14,12.78-27.31,18.82-40.74,1.5-3.31,3.33-4.9,7.14-4.58a96.09,96.09,0,0,0,12.47,0c3.66-.15,3.89,1.11,2.36,4-7.86,15-15.15,30.39-23.6,45.09-4,7-4.28,12.37-.26,19.43C221,252.9,228.93,269,237.26,285c2.55,4.87,2.48,5.07-3.19,5s-12.53,1.58-17.19-.79-5.71-9.71-8.3-14.88c-4.83-9.66-9.43-19.45-14.15-29.17C194.31,245,193.91,244.91,193.55,244.67Z" transform="translate(9.9 9.9)"/><path class="cls-4" d="M293.87,245c0,8-.15,15.95.07,23.92.09,3-1,4-3.79,4.49-8.93,1.54-18.48-2.64-22.13-10.79-5.2-11.65-5.42-23.53.78-35A21.6,21.6,0,0,1,290.28,217c2.64.35,3.71,1.24,3.65,4.05C293.75,229,293.87,237,293.87,245Z" transform="translate(9.9 9.9)"/></svg>